<svg xmlns="http://www.w3.org/2000/svg" version="1.2" viewBox="0 0 50 50"><path d="M49.983 35.287c-.357-1.143-2.011-2.812-1.81-5.044.203-2.233 1.976-7.325 1.515-9.5-.459-2.174-2.765-8.57-8.731-9.536-5.963-.969-10.246.638-12.534.533-2.285-.106-2.7-1.833-5.227-1.812-3.262.029-3.826 1.383-6.13 2.109-1.692.53-6.987.524-6.987.524s-1.516-1.976-1.977-1.253c-.461.725-1.055 2.572-1.055 2.572s-2.836.987-3.098 1.517a31.318 31.318 0 0 0-.622 1.383s-3.002.786-3.33 1.512c-.332.724 1.317 2.438 1.844 3.031.523.595 6.653.728 7.625 1.442.971.722 3.69 1.258 5.21 1.516 2.847.495 4.1 6.156 4.823 12.417-.857.726-2.371 1.369-2.454 3.366l9.29.003s.122-1.333.28-2.99c.157-1.65 2.968-7.905 2.968-7.905s2.04 1.58 3.426 1.652c-.131 1.249.453 2.58.453 2.58s1.195 1.44 2.36 2.575c-2.13.879-2.067 2.425-2.067 2.425l7.886.066s.79-1.646.79-2.968c1.057 1.518 3.1 2.112 3.1 2.112l-1.27 2.456 4.817.001c.004-.002 1.266-3.644.905-4.784"/></svg>
