<svg xmlns="http://www.w3.org/2000/svg" version="1.2" viewBox="-2 -2 54 54">
<defs>
<path id="a" d="M46.228 19.501c3.63.106 2.649-3.73 4.336-5.855.68 2.274-.02 5.075-3.023 6.778-.246.586.559.078.719.53-.59.372-1.176.587-1.766.911-.215.55.625.469.82.898-2.46.282-3.504 3.305-5.847 3.7-2.442 3.43-6.797 3.343-9.953 4.37-.5-.027-.172-.304-.344-.632-3.367 1.328-2.215 4.676-2.656 6.926-1.938.676-3.172 2.219-5.446 3.09-.636-.965-2.812-.778-2.117-2.313-1.422-.086-.863-2.016-2.367-2.328.844-1.906 4.941-3.422 5.8-5.555-.449-.047-.937.79-1.386.559-.45-.309-.121-.582-.57-.89-.7-.009-1.414.284-2.086-.462-1.867.422-3.66-.968-5.508-1.113-.395-.355-.043-.875-.578-.89-3.297.831-5.457-3.426-8.594-3.962-.074-.374-.414-.761.172-1.105-.625.063-1.238.059-1.848-.207-.148-.418-.347-.84.309-1.223-.735-.191-1.485.024-2.192-.84.477-.488.922-.328 1.387-.554-1.015-.285-2.039-.399-3.066-.508.914-1.098 2.808-.305 4.117-.93-1.781-.652-3.61-.316-5.344-1.96 2.094.05 4.164.753 6.27.644-1.942-.945-4.563-1.027-6.035-3.23 2.324.484 4.601 2.085 6.941 2.16-1.945-.946-4.496-2.137-5.961-4.715 2.488 1.496 4.961 3.23 7.469 4.285-1.36-1.094-4.703-2.957-5.324-5.297 2.273 1.656 4.515 4.008 6.812 5.121-.758-1.332-3.758-2.844-3.254-4.598 1.274 1.356 2.274 2.614 3.664 3.75 1.14.93 1.961 1.083 3.516 1.512 4.773 1.332 10.164 4.29 13.86 5.067.902.187 1.984-.043 2.964-.114 1.633-1.875 3.996-5.535 5.805-2.707-1.38.692-1.543 2.36-1.52 3.516 3.946-.719 7.86-.691 11.844-2.32.246.18.125.34-.02.492 z"/>
</defs>
<use href="#a" stroke="black" stroke-width="4" stroke-linejoin="round"/>
<use href="#a" fill="#5fc89e"/>
</svg>
