<svg xmlns="http://www.w3.org/2000/svg" version="1.2" viewBox="0 0 50 50"><path d="M46.11 38.401c1.572-.584 3.674.214 3.416 1.333-2.454.022-4.357.53-6.345-.159-1.36-2.521-3.904-3.832-5.963-5.612-1.111.56-1.707.832-2.938.465-.637 1.503-1.882 2.354-2.22 4.104.006.738 1.012.48.695 1.601-1.087.414-3.614.93-4.333-.206 1.133-1.673.636-4.906 1.547-6.82-3.619.604-6.218-.708-9.109-1.497.296 2.691-2.137 4.264-1.061 6.134.831 1.49 3.487.295 4.107 2.466-.349.33-1.06.313-1.353.694l-.927.01c-3.462-.243-6.226-2.042-5.715-5.64-1.68 1.051-4.328 3.117-6.55 4.392.166.488 1.068.72.478 1.354l-3.622.033c-.131-2.313 1.508-4.803 3.347-5.939.074-3.84 2.888-5.855 3.326-8.661-3.049.274-7.876 2.25-9.954 4.42-.538.55-1.292 1.59-1.117 2.734.23 1.576 3.397 2.092 3.685 3.805.114.842-.417 2.424-1.803 2.739-.578-.975-.343-1.85.194-2.726-.94-1.544-3.12-1.824-3.44-4.051l-.001-.217c.49.02.102-.816.208-1.148 2.09-3.448 6.372-5.857 10.17-7.336 1.137-.47 2.363-.512 3.613-.957 1.274-.42 2.194-1.16 3.61-1.394 4.053-.583 8.572-.108 12.487-1.013 2.987-.68 3.338-4.031 4.462-6.165.24-.44.81-.855 1.13-1.373 1.05-1.614 1.664-2.928 4.058-3.223a3.51 3.51 0 0 1 1.13-1.59c.522.432.6.431 1.115-.01.848.291 1.102 1.624 2.294.878-.19.165-.507 1.285.014 1.361.19-.33.567-.498 1.113-.445.064 1.169.748 1.681 1.382 2.246.52.485-.268.685-.206 1.365 1.78 1.236 1.488 4.915.965 7.26-1.776-.34-.635 2.209-2.241 2.061.114.762-.07 1.254-.202 1.801-.487.36-1.166.528-1.351 1.155.235 2.012-.727 4.227-1.99 5.93 1.058 2.192 2.705 3.784 3.894 5.841"/></svg>
