<svg xmlns="http://www.w3.org/2000/svg" width="40pt" height="40pt" viewBox="0 0 40 40"><path fill="#000" fill-rule="evenodd" stroke-width="1.33333" d="M27.105 3.645a26.363 26.363 0 0 0-5.875.675c-5.602 1.278-11.032 4.272-14.25 9.155-2.326 3.726-3.37 8.187-3.289 12.558-.036 7.72 4.185 15.119 10.41 19.553 8.125 6.004 20.31 5.293 27.85-1.354 3.622-2.824 5.987-7.058 6.848-11.539.622-2.404.932-4.89.86-7.375a12.021 12.021 0 0 1-.022-.681c0-.038-.003-.082 0-.12l-.006-.06c-.007-.404-.019-.741-.078-.928-.686-6.578-4.75-12.532-10.137-16.248-3.592-2.52-7.95-3.64-12.31-3.636zm.92 2.22c.121-.008.243-.006.364 0 .474.154 1.073 1.513.43 1.78-.427 1.454-2.506-.59-1.676-1.276.18-.365.52-.48.882-.504zm.135.65c-1.804 1.054 1.483 1.237 0 0zm2.211.376c.177.365-.218.808-.142 1.216-.818 1.56.258 3.802 2.087 2.514 1.847 1.068.961-1.524 2.373-2.23 1.38-1.986 3.091.494 1.686 1.873-2.761 2.065 4.73.168 1.93-1.133-1.706-1.437.448-.687 1.084.133.81 1.297-1.706 1.817-2.653 2.302-1.373-.545-2.4 1.274-3.507.391-1.296-2.717-1.736 2.144-3.403.686-1.286-.242-1.446 2.929-2.594 3.886-1.29 2.014-4.262 3.345-6.369 1.768-1.91-1.597-.67-4.286.317-6.041-.99.168-1.642 2.731-2.86 3.531-1.297 1.924-4.9 2.222-5.873-.152-.745-2.143.672-4.442 2.055-5.85-.683 1.377-2.066 3.663-.41 5.041 2.045 1.367 4.744.082 5.838-1.91.744-.97.799-3.248 2.312-2.852 1.07-1.274 4.399-4.426 5.096-1.453-1.204 1.935-3.19 4.106-5.701 3.649-1.423 1.284-1.217 4.485 1.181 4.66 3.404.55 6.201-2.87 6.221-6.065.015-1.41.343-2.962 1.332-3.964zm-13.244.699c.404.288-.264.8-.273 1.139-1.02 1.84.483-.151 1.406.033 2.938.07.506 3.632-.862 4.51-.685 1.007-2.365.779-2.375-.612.043-1.83.91-3.685 2.104-5.07zm18.332.683c-.672.236-1.238.998-1.41 1.676.045 2.515 3.263-1.208 1.412-1.676h-.002zm-10.582.604c-.78-.157-2.828 1.168-2.236 1.564 1.184.947 4.868-.695 2.236-1.564zm-7.678 1.559c-.214.234-.837-.03-.941.35.03 3.087 3.752.107.941-.35zm21.987 1.293c.128-.01.263-.01.406 0h.002c.274-.063.445.226.539.437.342 1.915 1.569.185 2.424.818 1.628-1.204.549 1.334-.66.72-1.215.88-2.136.005-2.864-1.118-2.578.064.63.792.145 1.818-.799 1.976-3.199.979-4.76 1.803-1.817.623-1.033 3.16-1.453 4.627 3.833-.144 7.701-.53 11.412-1.525.467.071 1.935-.82 2.508-.895.053.123.11.244.16.367-.005.01-.006.017-.012.028-1.042 2.3-4.952 1.3-5.664 3.328-.856 1.916 1.21 2.236 2.197.81.491-1.613 1.193-.39.36.614-1.424.134.508 2.958-.799 1.378-2.35-1.992-2.604 2.043-.373 2.192 1.397.103 1.412-2.567 2.865-1.559.701-.5 1.66-.577 2.098-1.252.645 1.079-1.68 1.26-2.295 2.262-2.047-1.048-1.356 2.481-3.213 2.6-3.021-.274-.535-4.497-2.357-4.98-.942-1.197-1.488.36-2.33-.513.337-1.552-1.07-1.773-2.399-1.255.853.336-.322 1.207-.144 1.892-.424 2.267-3.133.142-1.22-.957.722.806.84.512.802.108-.274.116-.729-.447-.008-.108a2.435 2.435 0 0 0-.131-.512c-1.01 1.187.481-.805-.705-.293-1.412-.609-1.791 3.058-1.686.514-.796-1.07-3.503.1-4.972-.271-.943.762-1.784-.383-2.995.093-1.125 1.687 2.105 2.35 3.305 1.495-1.187 1.065-3.12 1.495-4.44 2.564-1.72 1.059-1.982 4.383.401 4.803 1.948.386 4.086-.539 5.408-1.975.69.032-1.701 2.158-2.467 2.686-1.692 1.238-4.848 1.917-5.892-.446-.659-2.672 1.425-5.202 3.683-6.347-.664.376-3.117-.98-1.367-2.229 2.37-1.398-.986-.602-2.037-.869-2.738-1.244-2.77 1.949-3.74 3.629-1.321 1.35-.231 4.464 1.654 2.59.527.374-1.08 2.52-2.1 2.515-2.586-.9-.52-4.133.073-5.853-.096-1.219 2.635-3.307.648-3.393-2.308-.704-5.287-1.659-5.898-4.316-.273 1.739-1.818 4.736-4.35 3.484-2.032 1.076-.386-1.32.475-1.584.88-.582 1.963.443 2.75-.205.61-1.702.703-3.618 1.197-5.38 1.008-2.86-.013 1.165.51 2.072.952 2.47 3.8 3.379 6.139 3.988 2.414.577 4.953.839 7.42.732 2.08-.196 5.275.774 6.732-.44.07-2.24.914-4.674 3.064-5.704 1.592-.62 2.022-2.849 3.954-2.988zm-6.79.933c.064.641-.305 1.29-.42 1.928-.458 1.821-1.033 3.88-2.44 5.146 1.266-2.221.874-5.27 2.86-7.074zm-8.582.225c.455.492 2.182.165 1.424 1.306.578 1.308-1.868 2.261-2.31.995-1.467-.947-.026-1.86.886-2.3v-.001zm6.123.17.237.248.281.302c.624 1.548-1.85 3.251-2.398 4.942-.334 1.097-3.022 2.086-3.336 1.336 2.093-.619 3.752-2.191 4.765-4.098-1.046-.792-.628-2.093.451-2.73zm-5.972.75c-2.663.846 1.744 1.786 0 0zm18.369 1.027c.164.872-1.2 2.42-2.236 2.193-1.283 1.514-2.527 3.462-4.873 2.649.32-1.038 3.207-.752 3.894-2.27.468-1.87 2.567-1.193 3.215-2.572zm-5.438 1.326c.166.07.445.719.463.31 2.462.543-.5 3.105-1.588 1.526-.408.972-2.747.757-1.898-.44.477-2.36 2.288.622 2.961-1.386.018-.018.039-.02.062-.01zm-19.101.951c.119-.012.25-.011.396.004.603.054.98 1.39.577 1.778-1.515 1.535-2.753-1.59-.973-1.782zm.101.866c-.936.733 1.124.614 0 0zm-5.648 1.81.065.002.04.254c-.394 1.699-.785 4.76-2.072 5.28.726-1.84.463-4.03 1.967-5.536zm32.541.772c2.19.913.07 2.016 1.824 3.086.078 1.974-.949 1.347-1.785.369.867-1.348-1.338-2.076-.039-3.453v-.002zm-3.664.957c-.637-.094-2.23 1.21-1.584 1.556 1.428 1.584 1.105-.614 1.584-1.556zm-26.799.058c.318.552-.776 1.334-.752 2.045-.67.988.864 2.124 1.596 1.244.99.03-1.606 3.598-2.57 1.723-.358-2.833-1.48 1.263-3.284.656-2.428.83-.499-.439.567-.976 1.973-1.03 3.294-2.856 4.443-4.692zm25.403.178c-.323 0-.637.14-.961.14-2.228.146.623.87.96-.14zm-23.752.4c.468.136.586.695.89 1.014.37 1.203-1.13 1.906-1.717.99-.9-.606-.328-2.182.827-2.004zm-9.268.133c.301.252.62.449.936.666.093.907.136 1.734-.768 2.11-1.753.18-2.03-2.72-.168-2.776zm23.875.465c.224 1.512-.6 3.319-.52 4.959-.578 2.29 1.852 4.117 3.752 2.477 2.67-1.375-1.152-.797-2.199-1.01-.122-1.268 1.809-3.01 3.22-3.362 1.444 1.492 1.936-1.092 3.384-.341 1.21-1.739.44.49-.295 1.021-1.243-.456-1.725 1.713-2.961.71-.623-.88-1.506-.16-2.02.427-2.016 1.315.571 1.057 1.678 1.103 2.31-.468.05 1.566-.463 2.286-1.015 1.91-4.528 2.64-4.62-.282-.166-2.678.033-5.495 1.044-7.988zm-14.934.182c-1.153 1.472 1.843.666 0 0zm13.606.076c.266.05.065.487.33.52-.573.826.067 2.537-.916 3.16-.319-.124.675-1.701-.557-2.204-.505-.592.558-1.288.998-1.472a.398.398 0 0 1 .145-.004zm-19.108.027c.366.16-.054.532-.084.719-.424 1.753-2.64 3.97-4.087 3.35 1.794-.907 3.334-2.198 4.171-4.069zm-3.675.018c-.172.257-.533.442-.418.804.296 1.135 1.666-.71.418-.804zm14.427.02.211.046c-.213 1.75.95 3.782-1.109 4.795-.738.867-1.186.714-1.475.174.399.621 1.45.013 1.987-.871 1.438-.943-.063-2.674.445-3.992-1.44.849-3.464 1.65-2.563 3.724-.064.516-.013.86.104 1.082-.385-.786-.458-2.298-.48-2.994.938-.684 1.798-1.513 2.88-1.963v-.002zm14.776.368c.41.178.755.534 1.136.774-.17 2.219-2.846.434-1.136-.774zm.006.891c-.52.155-.075.61 0 0zm-15.635.145c-.033.68.636 1.535-.053 2.068-1.24 2.283-1.647-1.96.053-2.068zm12.506.181c.853.056.107 1.096 1.289.899-.594.12-1.661 1.837-2.588 1.101-.916-2.06 2.288-.08 1.299-2zm-.696 1.332c-.757.494.842.616 0 0zm6.676 1.117c.518.007 1.111.287 1.291.801.388 1.67-1.382 5.58-3.252 3.477.422-1.438-.265-4.184 1.961-4.276v-.002zm7.317.303c.06.007.118.023.171.05.942.105 1.612.935 2.442 1.327-.049.228-.102.454-.154.682-.865.265-2.056.532-2.688 1.049-2.61 1.497-5.358 2.776-8.152 3.89-3.175 1.395-6.571 2.112-10.006 2.403-3.263.318-6.669-.103-9.582-1.676-1.512-.614-2.54-1.787-3.977-1.393-2.088.769-3.248 3.473-5.54 3.625-.05-.079-.104-.155-.153-.234 1.133-1.02 3.023-1.951 4.057-3.336.992-1.427 2.915-2.184 4.533-1.381 4.037 2.47 8.957 2.968 13.57 2.287 5.55-.659 10.712-2.886 15.803-5.062 2.606-.043-.625-2.517-1.531-1.315-1.272 1.078.296-1.02 1.207-.916zm-19.705.106c.653.621.081 1.355.798 1.964-.728.146-1.205 2.094-1.832.893-1.394-.107-1.03-.925-.857-1.693-.143-1.31 1.09-.785 1.89-1.164zm-.838.949a2.585 2.585 0 0 0-.38.223c-.78 1.692 2.056.773.38-.221v-.002zm-18.555.42a.457.457 0 0 1 .17.078c.895.01 1.546 1.119 1.107 1.879-.386 1.012-2.151.818-2.158-.278-.152-.653.148-1.511.881-1.68zm6.848.152c.538.493.777 1.24.504 1.84-.086.98-1.832.3-1.952-.25-.633-1.42.604-1.305 1.448-1.59zm24.351.022c-.124.001-.262.02-.414.052-.524.311-.59 1.19-.346 1.707 1.467 1.473 2.625-1.785.76-1.76zm-30.933.66-.348.17c-1.152 1.449 1.814.503.348-.17zm5.974.021c-1.274 1.77 1.704.155 0 0zm-1.79.25h.001l.201.063c1.734 1.381-.688 4.676-2.498 4.01-2.393-.469.997-.27 1.643-.885-1.645-.51-.876-2.542.652-3.188zm7.396 1.815h.002c.3.016.784.461.42.73-.587.484-1.122-.594-.422-.73zm24.38.547c.137-.023.246.166.174.285-.216 1.637-.004 5.96-2.613 4.957-.788 1.276-1.905-.465-2.727.295-1.377 1.178 1.448 1.264 1.391 2.367a8.103 8.103 0 0 1-2.924 4.07c-1.428 1.355-4.384 1.033-4.824-1.097-.465-2.535 1.208-4.822 2.678-6.706.316.152-1.83 2.885-1.701 4.348-.232 1.51 1.198 2.57 2.582 2.416 1.009-.024 3.471-1.031 2.6-1.994-2.535-.663-.712-3.96.988-4.36 1.308.991 2.2-.817 3.326-.08.281-1.28-.879-2.554-2.143-2.57-1.48-.206-1.771 2.312-.472.862.475.764-1.599 1.098-2.348.607-.645-1.156 1.556-.823 2.146-1.775.792.426 3.482-.909 2.547.478.41 2.241.369-1.65 1.32-2.103zm3.69.644c1.03.363-1.461 1.624 0 0zm-.574 1.393c.741 1.52-1.643.898 0 0zm-32.153.457c.12-.009.242-.002.364.02.749.033 1.488.185 2.068.687 1.285 1.556-.515.405-1.228-.06-2.232-.858-3.563 1.624-3.895 3.4-.581-.663.895-3.924 2.691-4.047zm31.371.988.002.002.276.053c.484 1.477-1.646.736-.278-.055zm-31.988.045c.252.53.191.699.98.598-.45.636-1.691 1.407-2.054 2.548-.912-.062.994-2.322 1.074-3.146zm5.215.517h.002c.382.127.35.69.453.989-.459 2.205 1.895-1.427 2.477.744.061 1.604-1.312.258-1.819.564-.32.767.153 1.699-.048 2.512.874 2.055-.792-.525-1.815.037-2.125-.258 1.26-.15.549-.879-.057-1.31.9-1.92-.098-3.107-1.383 1.872-.86-.714.3-.86zm-3.137.069.237.031c.193 1.368-1.392 2.97-1.84 4.383-.523-.988 1.04-3.31 1.603-4.414zm16.373.064c.474.856 1.136 1.055.336 2.055-.96.675-2.249-.144-1.898-1.457.45-.539 1.162.045 1.562-.598zm-9.07.598.092.041c.013 2.22-.627 4.525-2.014 6.307-.75 1.34-2.396 2.15-3.885 1.994a22.444 22.444 0 0 1-2.21-1.377c-.955-2.023.536-4.232 1.748-5.828.302.496-1.93 2.993-.618 4.302 1.263 1.51 4.064 1.426 5.274-.087.773-1.747.196-3.863 1.613-5.352zm8.928.066c-2.24.567.954 1.671 0 0zm12.96.084c.547 1.512-1.89.507 0 0zm-16.613.145c.481.481 1.493.776 1.452 1.572-.719 2.415-2.62-.868-3.393 1.21-1.541.26-1.874-1.482-.594-2.36.935.54 2.015 1.327 2.535-.422zm-4.183.14c.496.982-.16 2.126-.143 3.182-.561 1.219.208 3.318 1.819 2.338.461-1.732 2.14-.363 2.64-1.883 1.407.876 1.498-2.21 2.627-.623.894-.716.59.126-.105.653-1.138.02-1.581 1.213-2.844 1-.497 1.26-1.675.074-2.049 1.248-.17 2.04-3.175 2.52-3.1.146.311-2.017.023-4.277 1.155-6.06zm-3.098.473c-1.08.675 1.235.508 0 0zm.53.426-.19.201c-1.208-.196-.2.636.19-.201zm22.355.049c1.436.373-1.2 1.15 0 0zm-34.313.023c.46.465.599.774.586.957-.22-.278-.428-.564-.636-.851.017-.036.029-.069.05-.106zm32.776.22c1.775-.043.761 3.075-.428 1.599-.224.864-1.643.803-1.746-.192.19-1.94 1.74.15 2.174-1.406zm-29.182.124c1.128 1.328-1.452.885 0 0zm22.649.049c0 .114.38-.007.162.263-.382.854.7 1.702-.615 2.157-.102-.407-1.734-.402-.942-1.172-.993-1.742.675-.542 1.395-1.248zM10.707 40.08h.022l.066.004c.965.362.452.618.055.574-.099-.11-.19-.225-.287-.336a.63.63 0 0 1 .144-.242zm1.164.998c1.05.396.53.71.078.72-.126-.122-.246-.25-.369-.376.05-.095.137-.207.291-.344zm29.588.113c.847.432-1.29.672 0 0zm-.947.541c1.338.65-1.566 1.187 0 0zm-27.785.538c.524.208.492.406.31.517-.144-.124-.284-.252-.426-.379.041-.047.054-.083.116-.138zm26.933.455.14.084.013.043c-.015.94-1.286.089-.153-.127zm-25.785.398h.006c.403.204.283.348.074.408-.107-.083-.216-.163-.322-.248.061-.048.123-.097.242-.16zm24.607.25c1.4.932-1.757.8 0 0zm-.914.717c.358.02.295.423.077.57-.56.443-.718-.651-.077-.57zm-8.675.084c1.832.866-1.503 1.702 0 0zm7.627.445c1.496.727-1.535 1.167 0 0zm-1.737.535c1.743 1.143-2.002.83 0 0zm-15.385.285.211.02c.748 1.027-1.355.4-.21-.02zm13.74.063c1.717.89-2.22.61 0 0zm-12.54.139h.002c.428-.03.87.418.464.787-.592.731-1.599-.719-.466-.787zm10.904.004c.133-.008.278-.002.38.101.118 1.597-1.788.15-.38-.101zm-1.768.029a.76.76 0 0 1 .213.021c1.788 1.039-1.533 1.463-.213-.021zm-4.851.445c1.561.856-1.623 1.033 0 0zm1.683 0c.546-.064.613.782.196.963-.826.308-1.004-1.026-.196-.963zm-4.543.037c.704 1.384-1.669.088 0 0zm.92.106c1.906.104-1.354 1.29 0 0zm5.29.01.152.027c.961.872-1.78.736-.153-.028z" display="inline" transform="scale(.75)"/></svg>
