<svg xmlns="http://www.w3.org/2000/svg" viewBox="0 0 50 50"><path fill="#8d198f" d="M47.327 25.086c0 12.372-10.028 22.403-22.402 22.403-12.372 0-22.4-10.031-22.4-22.403 0-12.372 10.028-22.401 22.4-22.401 12.374 0 22.402 10.029 22.402 22.4"/><path fill="#8d198f" d="M39.503 6.829c.76.778 1.509 1.569 2.288 2.326.254.25.574.447.893.615.485.257.825.603.945 1.157.11.508.378.874.896 1.086a2.04 2.04 0 0 1 1.01.922c.245.432.344.88.27 1.343-.077.472-.05.928.01 1.39.025.18.004.362.012.543.02.455.137.864.54 1.142.224.153.265.366.184.616a1.692 1.692 0 0 0-.076.301c-.052.296-.02.585.224.784.633.516.84 1.208.876 1.985.014.363.113.71.182 1.063.068.343-.001.723-.06 1.076-.053.31-.105.599.02.91.132.333.066.658-.148.955-.12.167-.19.37-.312.534-.102.138-.253.238-.376.362-.121.123-.072.371-.297.415-.14.028-.281-.196-.333-.555-.028-.178-.026-.362-.032-.544a28.784 28.784 0 0 0-.416-3.702c-.151-.866-.307-1.731-.455-2.596-.13-.754-.396-1.438-.917-2.027-.271-.305-.443-.699-.682-1.036a17.408 17.408 0 0 0-.942-1.233c-.394-.458-.727-.946-.962-1.498-.358-.841-.916-1.564-1.393-2.332a.962.962 0 0 0-.153-.176L38.07 8.502c-.131-.125-.314-.225-.387-.379-.323-.662-1.013-.933-1.49-1.425a.487.487 0 0 0-.265-.155c-.69-.088-1.092-.661-1.654-.964-.111-.058-.196-.222-.3-.228-.51-.025-.876-.436-1.38-.482-.194-.02-.386-.151-.558-.262-.341-.22-.71-.297-1.112-.286-.23.006-.476.034-.693-.027-1.208-.34-2.463-.308-3.693-.468-1.894-.248-3.771-.076-5.63.35-.657.151-1.32.273-1.981.403-.176.035-.359.083-.536.075-.49-.024-.91.15-1.324.384a3.163 3.163 0 0 1-.633.292c-.68.208-1.266.59-1.863.952a1.694 1.694 0 0 0-.37.28c-.473.495-1.073.813-1.631 1.185-.495.33-.994.638-1.414 1.076-.393.408-.873.734-1.286 1.124-.394.375-.734.803-1.126 1.178-.664.633-1.161 1.39-1.645 2.153a10.601 10.601 0 0 0-.901 1.715c-.227.576-.556 1.109-.827 1.669-.087.181-.132.384-.188.581-.072.248-.124.503-.208.747-.201.587-.51 1.132-.64 1.747-.099.46-.479.642-.881.792-.3.109-.363.177-.274.438.112.324.043.515-.214.738-.12.105-.11.384-.116.585-.007.212.004.42-.163.577-.05.047-.135.094-.196.084a.261.261 0 0 1-.173-.133c-.135-.295-.123-.607-.054-.915.074-.328.152-.658.263-.976a1.03 1.03 0 0 0-.077-.898c-.275-.48-.282-.974-.136-1.495.137-.501.29-.987.565-1.437.268-.442.476-.92.713-1.38.122-.235.268-.432.542-.527.302-.103.428-.355.445-.667.005-.104.023-.206.03-.309.023-.35.2-.599.533-.688.494-.132.78-.419.948-.913.102-.3.377-.542.578-.807.159-.21.288-.424.339-.69.028-.142.103-.338.213-.389.348-.162.4-.472.422-.774.024-.336.186-.484.476-.626.712-.344 1.317-.808 1.46-1.665.08-.465.337-.679.825-.775.495-.098.961-.356 1.428-.574.125-.059.225-.21.299-.342.1-.178.169-.377.244-.57.088-.226.22-.408.444-.518.628-.306 1.253-.622 1.885-.921.539-.253 1.087-.485 1.628-.73.66-.3 1.295-.651 2.055-.655.22 0 .44-.138.658-.211.418-.137.828-.3 1.254-.408.476-.12.96-.224 1.449-.275.436-.045.877.003 1.316-.008.57-.012 1.139-.085 1.703-.048.789.052 1.604.002 2.322.448.188.116.398.098.595-.016.113-.064.23-.118.343-.184.52-.306.988-.193 1.438.16.202.159.412.308.636.432.327.18.684.259 1.054.162.624-.164 1.178.006 1.706.326.266.162.53.324.784.502.392.273.822.446 1.287.522.547.088 1.064.226 1.463.654a.84.84 0 0 0 .394.238c.7.166 1.222.634 1.77 1.042.35.258.638.6.956.904l-.012.012M7.613 40.24c-.673-.89-1.164-1.463-1.566-2.091a19.569 19.569 0 0 1-1.154-2.11c-.225-.471-.097-.758.338-1.06.105-.076.21-.046.256.06.092.21.193.426.233.65.104.599.515.95.995 1.212.518.287 1.085.485 1.609.765a6.324 6.324 0 0 1 1.76 1.382 7.02 7.02 0 0 0 1.145 1.04c.418.304.807.646 1.19.994.909.823 1.945 1.456 2.97 2.114.86.552 1.779.933 2.74 1.264 1.208.415 2.462.614 3.698.898.993.228 1.992.33 3.008.324.362-.004.724.025 1.085.036.18.005.365.04.519-.103a.273.273 0 0 1 .136-.06c1.073-.067 1.502-.163 2.28-.545a6.955 6.955 0 0 1 1.609-.558c.681-.143 1.352-.343 2.03-.511.402-.1.815-.163 1.209-.286.84-.265 1.649-.603 2.396-1.083.808-.52 1.66-.964 2.452-1.504a9.904 9.904 0 0 0 1.537-1.306c.701-.728 1.33-1.524 2.012-2.27.496-.544.827-1.194 1.193-1.818.468-.804.878-1.644 1.31-2.472.07-.137.13-.282.18-.43l.96-2.872c.089-.271.169-.546.264-.815.132-.367.142-.368.545-.24.072.023.148.033.223.053.366.09.549.304.445.653-.137.46-.136.918-.147 1.384-.006.2-.06.42-.157.594-.17.304-.276.62-.27.961.009.416-.147.764-.395 1.07-.272.33-.422.694-.506 1.115-.128.64-.465 1.203-.781 1.767-.203.361-.395.727-.59 1.093-.073.136-.123.29-.217.411-.417.537-.708 1.143-1 1.752a1.1 1.1 0 0 1-.405.45 3.83 3.83 0 0 0-.992.862 1.23 1.23 0 0 1-.29.257 2.19 2.19 0 0 0-.763.864c-.387.782-1.07 1.187-1.855 1.432-.352.111-.684.22-.959.48a1.08 1.08 0 0 1-.697.306c-.427.02-.719.258-.939.61-.31.492-.706.88-1.264 1.106-.233.095-.418.301-.628.456-.95.71-1.972 1.19-3.193 1.272a84.71 84.71 0 0 0-5.485.528c-1.078.141-2.115.015-3.17-.108-2.077-.239-4.042-.868-5.968-1.656a18.21 18.21 0 0 1-2.946-1.53c-.478-.306-.998-.54-1.46-.88-.848-.634-1.791-1.157-2.516-1.94-.72-.776-1.658-1.34-2.014-1.968"/><path fill="#fff" d="M24.926 4.117c-11.583 0-20.971 9.388-20.971 20.97 0 11.58 9.388 20.969 20.97 20.969 11.582 0 20.97-9.39 20.97-20.97 0-11.58-9.388-20.969-20.97-20.969m0 1.333c10.827 0 19.637 8.808 19.637 19.636s-8.81 19.636-19.636 19.636c-10.828 0-19.638-8.808-19.638-19.636S14.098 5.45 24.926 5.45"/><path fill="#fff" d="M23.386 35.937h-8.097v-2.04h8.097zm11.057 0h-8.096v-2.04h8.096zm-8.545-1.02a1.02 1.02 0 1 1-2.041-.002 1.02 1.02 0 0 1 2.041.002m-4.491-17.02c0 1.421 1.279 6.464 1.601 6.464 0 0 .206-2.895.206-6.464z"/><path fill="#fff" d="M29.535 15.66c-.596 4.107-2.601 11.671-3.172 11.671 0 0-.492-4.985-.492-11.837-.493-.039-.496-.064-.993-.064-.498 0-.5.025-.992.064 0 6.852-.492 11.837-.492 11.837-.57 0-2.578-7.564-3.172-11.672-5.364 1.386-9.519 5.011-8.63 9.123.472 2.188 3.696 8.156 3.696 8.156h19.18s3.223-5.968 3.696-8.156c.888-4.112-3.266-7.737-8.629-9.123m-4.657-3.539.555 1.013 1.013.555-1.013.554-.555 1.015-.554-1.015-1.014-.554 1.014-.555z"/><path fill="#fff" d="M28.342 17.897c0 1.421-1.278 6.464-1.601 6.464 0 0-.207-2.895-.207-6.464z"/></svg>
