<svg xmlns="http://www.w3.org/2000/svg" viewBox="0 0 50 50"><path fill="#3871c1" d="M47.205 25.196c0 12.372-10.028 22.403-22.402 22.403-12.372 0-22.401-10.031-22.401-22.403 0-12.372 10.03-22.401 22.401-22.401 12.374 0 22.402 10.029 22.402 22.4"/><path fill="#fff" d="M25.703 14.816c-9.934 0-17.99 10.38-17.99 10.38s8.056 10.38 17.99 10.38c9.938 0 16.19-10.38 16.19-10.38s-6.252-10.38-16.19-10.38m.376 3.15c6.428 0 12.884 4.566 15.398 7.23-2.515 2.668-8.78 7.889-15.207 7.889-6.428 0-15.104-5.459-17.616-8.125 2.515-2.667 10.248-6.956 16.675-6.956z"/><path fill="#fff" d="M25.54 28.054a2.52 2.52 0 1 1 0-5.038 2.52 2.52 0 0 1 0 5.038m0-8.043a5.514 5.514 0 1 0-.002 11.029 5.514 5.514 0 0 0 .001-11.029"/><path fill="#fff" d="M25.54 31.786a6.262 6.262 0 0 1 0-12.522 6.261 6.261 0 0 1 0 12.523m0-13.88a7.617 7.617 0 0 0-7.618 7.618 7.618 7.618 0 1 0 15.237 0 7.62 7.62 0 0 0-7.62-7.619"/><path fill="#3871c1" d="M20.915 2.278c1.086-.057 2.174-.099 3.258-.184.355-.028.715-.139 1.051-.267.515-.194.997-.221 1.493.055.454.252.907.292 1.407.043a2.046 2.046 0 0 1 1.36-.154c.487.103.887.324 1.188.686.303.369.663.649 1.052.909.15.1.273.236.413.35.356.285.74.467 1.215.346.264-.067.45.044.584.27.052.089.11.177.176.255.19.235.428.4.739.35.804-.136 1.462.164 2.068.65.282.228.608.383.92.564.301.176.541.478.768.756.198.244.381.472.697.586.337.118.537.384.62.74.047.2.155.385.197.586.035.168.012.348.024.522.011.172.231.298.115.497-.07.124-.335.083-.637-.115-.152-.097-.29-.221-.43-.334a28.997 28.997 0 0 0-3.057-2.131c-.75-.459-1.503-.912-2.25-1.37-.653-.4-1.343-.653-2.129-.649-.408.002-.816-.13-1.228-.17a16.797 16.797 0 0 0-1.549-.107c-.603-.005-1.19-.077-1.759-.265-.868-.287-1.778-.344-2.672-.492a.987.987 0 0 0-.234 0c-1.03.082-2.059.168-3.087.253-.181.015-.376.087-.541.041-.71-.194-1.368.146-2.054.18a.482.482 0 0 0-.289.095c-.523.461-1.219.385-1.817.608-.118.044-.298.001-.37.075-.354.366-.905.372-1.273.718-.141.132-.367.19-.563.247-.392.112-.692.339-.949.645-.148.179-.29.382-.479.506-1.052.684-1.856 1.646-2.788 2.465-1.436 1.261-2.545 2.785-3.45 4.463-.32.592-.667 1.17-1.006 1.753-.089.156-.173.325-.296.452-.34.353-.489.785-.585 1.25-.047.226-.103.46-.199.669-.293.646-.39 1.34-.513 2.026a1.7 1.7 0 0 0-.035.464c.062.682-.096 1.343-.185 2.007-.079.59-.176 1.168-.124 1.772.048.565-.024 1.14-.003 1.71.022.54.12 1.08.142 1.622.037.916.278 1.79.533 2.657.183.618.397 1.226.695 1.808.281.55.465 1.15.708 1.723.078.184.201.352.312.524.138.219.296.424.424.65.308.538.514 1.129.89 1.633.28.377.168.784.014 1.185-.115.296-.106.39.15.493.316.13.414.31.412.65 0 .158.216.334.363.473.155.144.317.273.327.503.002.068-.019.162-.066.202-.05.043-.15.062-.216.043-.309-.093-.537-.308-.722-.564a8.86 8.86 0 0 1-.56-.841 1.036 1.036 0 0 0-.726-.535c-.542-.11-.917-.43-1.213-.884-.287-.433-.55-.868-.707-1.372-.156-.493-.377-.965-.566-1.448-.096-.245-.148-.487-.039-.753.121-.295.016-.556-.208-.775-.073-.072-.139-.153-.212-.227-.248-.25-.319-.544-.165-.854.226-.46.198-.862-.062-1.315-.157-.275-.157-.641-.224-.968-.052-.256-.129-.495-.294-.71-.09-.113-.187-.3-.152-.415.106-.37-.09-.612-.304-.828-.238-.24-.242-.46-.156-.771.21-.761.262-1.523-.287-2.196-.299-.367-.29-.701-.039-1.13.252-.437.367-.96.51-1.451.038-.135-.008-.31-.059-.451-.068-.195-.172-.377-.268-.56-.112-.216-.161-.436-.096-.676.184-.675.359-1.352.552-2.024.165-.572.35-1.136.525-1.705.211-.694.366-1.402.863-1.976.145-.167.188-.422.276-.635.172-.404.321-.82.52-1.21.224-.438.467-.871.75-1.271.254-.356.58-.66.863-.995.366-.435.687-.912 1.087-1.31.559-.56 1.06-1.206 1.87-1.451.21-.064.335-.234.38-.456.025-.127.062-.252.086-.38.113-.594.508-.87 1.07-.975.253-.047.505-.107.746-.193.35-.127.645-.343.815-.686.288-.576.782-.881 1.37-1.065.296-.095.595-.187.896-.26a3.108 3.108 0 0 0 1.242-.621c.428-.354.87-.651 1.454-.668a.827.827 0 0 0 .44-.14c.587-.418 1.283-.5 1.951-.643.425-.092.872-.084 1.31-.121v.017m4.069 46.008c-1.112-.083-1.865-.091-2.604-.203a19.882 19.882 0 0 1-2.346-.525c-.504-.142-.634-.427-.576-.955.014-.127.105-.188.214-.153.219.07.448.138.644.254.519.319 1.052.24 1.567.054.557-.203 1.08-.496 1.636-.704a6.291 6.291 0 0 1 2.2-.411c.521 0 1.027-.063 1.536-.176.504-.113 1.02-.18 1.535-.239 1.217-.138 2.376-.5 3.546-.836.982-.282 1.875-.721 2.758-1.226 1.109-.634 2.085-1.444 3.114-2.186a12.982 12.982 0 0 0 2.228-2.046c.238-.275.496-.527.743-.791.124-.132.27-.25.267-.457a.25.25 0 0 1 .044-.143c.656-.852.866-1.236 1.093-2.073.152-.552.36-1.075.643-1.578.342-.606.634-1.242.956-1.862.189-.368.416-.72.582-1.098.358-.806.635-1.636.767-2.516.144-.948.372-1.882.487-2.833.082-.665.088-1.35.033-2.017-.085-1.007-.267-2.004-.377-3.01-.083-.732-.352-1.41-.58-2.096-.296-.882-.656-1.745-.994-2.614a3.272 3.272 0 0 0-.202-.42 838.745 838.745 0 0 0-1.528-2.615c-.143-.248-.3-.488-.438-.737-.19-.342-.182-.35.18-.568.064-.04.123-.09.186-.134.312-.213.593-.212.785.098.255.406.599.706.944 1.024.147.136.275.32.341.509.118.328.284.617.546.837.317.267.477.614.542 1.003.07.421.243.775.504 1.116.398.519.598 1.143.814 1.753.137.39.285.776.43 1.164.055.146.139.284.167.435.128.668.392 1.285.656 1.905.079.18.107.41.072.603a3.81 3.81 0 0 0-.007 1.313c.022.127.02.262.003.388-.053.396-.005.779.144 1.144.333.806.185 1.587-.147 2.339-.15.337-.286.659-.273 1.036.007.26-.055.51-.23.727-.266.333-.278.71-.16 1.106.166.559.194 1.112-.002 1.68-.083.238-.052.514-.072.772-.093 1.184-.408 2.268-1.152 3.24a84.776 84.776 0 0 0-3.223 4.472c-.602.902-1.382 1.598-2.17 2.31-1.551 1.404-3.32 2.465-5.183 3.392a18.2 18.2 0 0 1-3.093 1.205c-.546.156-1.064.393-1.626.513-1.036.222-2.05.586-3.117.614-1.057.028-2.101.36-2.807.216"/><path fill="#fff" d="M24.803 4.227c-11.582 0-20.97 9.388-20.97 20.97 0 11.58 9.388 20.969 20.97 20.969 11.582 0 20.97-9.39 20.97-20.97 0-11.58-9.388-20.969-20.97-20.969m0 1.333c10.827 0 19.636 8.808 19.636 19.636S35.63 44.832 24.803 44.832c-10.828 0-19.637-8.808-19.637-19.636S13.976 5.56 24.803 5.56"/></svg>
