<svg xmlns="http://www.w3.org/2000/svg" viewBox="0 0 50 50"><path fill="#cd700f" d="M47.632 25.546c0 12.371-10.028 22.402-22.4 22.402-12.373 0-22.403-10.03-22.403-22.403 0-12.372 10.03-22.4 22.402-22.4 12.373 0 22.401 10.03 22.401 22.4"/><path fill="#cd700f" d="M23.5 1.681c.418 0 .837-.02 1.254.004 1.047.057 2.093.117 3.136.21.415.036.827.14 1.23.248.583.158 1.18.235 1.771.34.587.103 1.135.414 1.72.54.596.13 1.167.295 1.7.594.203.113.406.23.606.35.156.095.292.242.46.295.537.17.981.5 1.45.785.18.11.347.244.536.33.852.38 1.563.945 2.203 1.618.195.206.464.34.7.507.595.433 1.096.972 1.624 1.481a.98.98 0 0 1 .155.18c.372.61.904 1.084 1.344 1.638.113.142.224.29.316.446.41.696.822 1.39 1.21 2.098.404.734.84 1.46 1.158 2.234.396.967.704 1.972 1.01 2.974.135.45.18.928.02 1.394-.03.09-.217.138-.265.063-.167-.263-.399-.512-.47-.8-.169-.668-.55-1.243-.757-1.892-.12-.372-.324-.716-.47-1.08-.232-.585-.483-1.153-.883-1.656-.34-.43-.584-.932-.9-1.383a69.535 69.535 0 0 0-1.403-1.896c-.094-.122-.232-.21-.349-.314-.119-.104-.257-.192-.35-.316-.355-.49-.79-.89-1.247-1.29-.535-.466-1.067-.928-1.654-1.325-.152-.103-.314-.2-.44-.33-.586-.589-1.326-.925-2.054-1.286-.47-.233-.916-.51-1.378-.76-.324-.175-.654-.33-1.032-.365-.153-.015-.306-.07-.454-.122a22.673 22.673 0 0 0-4.278-1.028c-1.309-.186-2.614-.137-3.924-.146-1.005-.007-1.972.208-2.95.38-.775.137-1.554.252-2.336.34-.448.053-.879.132-1.295.31-.24.102-.497.167-.747.25-.149.048-.308.081-.446.152-.98.498-1.967.986-2.93 1.517-.385.212-.717.523-1.072.79-.105.08-.193.187-.308.243-1.082.527-1.876 1.424-2.788 2.167-.35.285-.429.64-.324 1.056.026.101.074.197.106.297.104.334.016.61-.23.86s-.477.44-.882.395c-.56-.06-.988.207-1.334.67-.924 1.242-1.748 2.538-2.316 3.987-.152.39-.334.772-.464 1.168-.096.296-.109.618-.194.916-.295 1.036-.45 2.1-.644 3.154-.186 1.01-.136 2.034-.21 3.05-.026.335.052.68.086 1.018.025.26.07.522.081.784.033.87.197 1.716.41 2.558.162.634.235 1.292.431 1.915.266.843.504 1.704 1.016 2.447.06.086.124.173.163.268.216.533.42 1.07.643 1.6.058.138.158.264.254.384.34.424.734.81.9 1.354a.651.651 0 0 0 .224.315c.526.368.812.95 1.266 1.383.11.105.186.246.278.37.155.208.28.45.47.62.674.604 1.298 1.266 2.033 1.803.328.241.627.521.984.73.36.21.684.478 1.024.72a.544.544 0 0 1 .12.105c.101.133.341.19.261.43-.049.146-.294.13-.51-.108-.203-.224-.475-.22-.71-.274-.173-.04-.37-.04-.509-.146-.472-.364-1.02-.605-1.495-.96a1.837 1.837 0 0 1-.417-.466c-.1-.158-.159-.31-.395-.322-.094-.004-.206-.144-.265-.248-.097-.17-.199-.305-.41-.32-.049-.005-.13-.03-.138-.058-.095-.423-.475-.514-.783-.692a.831.831 0 0 1-.222-.22c-.97-1.208-1.942-2.416-2.69-3.778-.758-1.378-1.469-2.784-1.92-4.3-.293-.978-.614-1.95-.829-2.946-.345-1.595-.448-3.218-.405-4.852.03-1.184.204-2.35.326-3.524.015-.13.038-.262.074-.387.381-1.31.725-2.63 1.161-3.92a18.33 18.33 0 0 1 1.36-3.088c.228-.41.52-.784.776-1.18.156-.24.3-.49.45-.736.055-.09.091-.207.17-.263.477-.34.725-.892 1.164-1.265.545-.465.968-1.028 1.317-1.647.254-.445.578-.798 1.055-1.012.213-.096.405-.245.592-.39.121-.094.248-.207.317-.34.502-.964 1.334-1.506 2.322-1.862a3.7 3.7 0 0 0 .568-.264c.344-.192.682-.362 1.097-.388.483-.03.823-.377 1.08-.732.448-.62 1.081-.88 1.767-1.09.3-.09.586-.223.888-.308.705-.198 1.406-.43 2.126-.55.722-.12 1.464-.12 2.198-.169.102-.007.21.013.314.02zm2.584 46.645c-.496-.04-.99-.082-1.484-.125-.34-.028-.683-.093-1.019-.073a4.48 4.48 0 0 1-1.245-.127c-1.097-.25-2.224-.383-3.287-.775a30.883 30.883 0 0 1-1.524-.62c-.11-.048-.206-.149-.289-.245-.09-.1-.003-.307.125-.3.34.013.684.004 1.01.076.485.108.95.307 1.436.415a34.76 34.76 0 0 0 2.312.441 14.6 14.6 0 0 0 1.877.184c.89.016 1.79.041 2.67-.07 1.35-.17 2.685-.455 4.026-.687.733-.126 1.376-.503 2.077-.719.326-.1.638-.243.964-.337.738-.21 1.403-.578 2.071-.934 1.253-.669 2.305-1.636 3.475-2.43 1.441-1.376 2.93-2.712 3.962-4.45.456-.766.85-1.569 1.296-2.34.582-1.005.995-2.074 1.328-3.182.051-.172.112-.402.244-.478.358-.208.438-.476.358-.853-.07-.33.165-.592.254-.887.012-.042.183-.062.274-.045.046.008.121.144.102.177-.16.292-.096.614-.14.92-.049.32-.037.628.218.878.148.144.145.336.106.517a1.75 1.75 0 0 1-.152.444 17.795 17.795 0 0 0-1.033 2.541c-.079.24-.217.512-.415.648a1.394 1.394 0 0 0-.564.823c-.194.767-.68 1.36-1.14 1.955-.64.83-1.322 1.628-2.018 2.412-.748.85-1.668 1.514-2.526 2.245-.738.63-1.488 1.247-2.336 1.728a3.56 3.56 0 0 1-.714.307c-.372.113-.724.301-1.066.493-.478.27-.933.596-1.466.745-.608.171-1.175.443-1.766.647-.989.341-2.017.543-3.04.757-.673.14-1.35.136-2.02.254-.304.053-.625.01-.937.01l-.004.06"/><path fill="#fff" d="M25.231 4.576c-11.583 0-20.97 9.388-20.97 20.97 0 11.58 9.387 20.97 20.97 20.97 11.581 0 20.97-9.39 20.97-20.97 0-11.582-9.389-20.97-20.97-20.97m0 1.334c10.827 0 19.636 8.808 19.636 19.636s-8.81 19.636-19.636 19.636c-10.828 0-19.637-8.808-19.637-19.636S14.404 5.91 25.231 5.91"/><path fill="#fff" d="M32.174 37.243c-.679 2.204-.237.713-.813 2.956h1.005c.575-2.09.11-.54.763-2.664l-.48-.188zm5.304-4.007c-.353.008-.692.03-1.017.06l-2.94 1.523-.58 2.16c1.32.652 3.204-.527 4.537-3.743m-6.81-1.917c-.436 3.333.52 5.277 1.908 5.493l.585-2.185-1.86-2.9a15.317 15.317 0 0 0-.633-.408m7.377-1.305a14.66 14.66 0 0 0-1.345.354l-2.51 2.034-.548 2.041 3.03-1.565c.508-.77.98-1.736 1.373-2.864m-6.295-1.75c-.233 1.226-.302 2.34-.234 3.287l1.746 2.725.548-2.04-1.198-3.124c-.263-.282-.55-.566-.862-.848m3.844-2.08c-1.24 1.243-2.074 2.46-2.433 3.51l.88 2.293 1.828-1.483c.252-1.106.184-2.612-.275-4.32m-14.036 5.12c-.677 2.204-1.366 6.656-1.612 8.895h1.006c.24-2.123.91-6.48 1.56-8.603l-.476-.188zm5.307-4.006c-.355.008-.693.03-1.019.06l-2.94 1.521-.58 2.16c1.32.653 3.204-.525 4.54-3.74m-11.653-.815c-.464 3.987-.013 9.854 1.072 13.715h1.04c-1.117-3.783-1.585-9.596-1.12-13.599l-.572-.048zm4.84-1.104c-.436 3.334.52 5.276 1.908 5.492l.587-2.185-1.862-2.899a14.471 14.471 0 0 0-.633-.408m9.953-.809c-1.838 4.145-3.728 10.605-3.92 15.628h1.001c.19-4.853 2.03-11.16 3.834-15.223zm-2.576-.497c-.476.102-.924.222-1.345.356l-2.51 2.033-.547 2.041 3.03-1.565c.507-.772.98-1.737 1.372-2.864zm7.735-2.224-3.239.705-1.117 1.937c1.105.974 3.23.323 5.35-2.438a14.21 14.21 0 0 0-.994-.204m-14.03.474c-.233 1.226-.302 2.34-.234 3.287l1.748 2.727.547-2.042-1.2-3.122H22a14.956 14.956 0 0 0-.864-.85m-1.447-.533a14.09 14.09 0 0 0-.988.244l-2.619 2.028-.177 2.23c1.417.402 3.056-1.098 3.784-4.502m-6.932-.595c.175 3.356 1.47 5.095 2.873 5.056l.18-2.256-2.357-2.512a15.673 15.673 0 0 0-.696-.288m12.224-.95c-1.243 1.242-2.076 2.458-2.433 3.51l.877 2.292 1.83-1.484c.251-1.105.183-2.61-.274-4.318m11.863-1.238c-.244 0-.48.006-.71.015l-2.946 1.313-1.058 1.832 3.332-.729c.69-.613 1.395-1.423 2.067-2.41-.233-.01-.463-.02-.685-.02m-6.767-.58c-1.285 3.105-.865 5.23.42 5.8l1.13-1.958-1.046-3.284a14.553 14.553 0 0 0-.504-.559M19.66 17.89c-.45.186-.87.385-1.262.593l-2.097 2.457-.232 2.786 2.696-2.09c.36-.85.713-2.565.895-3.746m-6.292-.528c-.007 1.248.028 2.997.266 3.917l2.212 2.36.268-2.747-1.744-2.852.002-.002c-.312-.23-.646-.455-1.004-.676m18.633-1.554c-.543 1.126-.899 2.184-1.077 3.118l.982 3.082 1.058-1.83-.348-3.326c-.182-.34-.386-.69-.615-1.044m4.224-1.048c-1.52.88-2.639 1.838-3.256 2.76l.253 2.443 2.15-.96c.53-1.004.853-2.473.853-4.243m-19.488-.777c-.997 1.45-1.593 3.48-1.753 4.576l1.28 2.093 1.53-1.789c.046-1.133-.296-3.283-1.057-4.88"/></svg>
