<svg xmlns="http://www.w3.org/2000/svg" viewBox="0 0 50 50"><path fill="#bf1b2c" d="M47.48 24.66c0 12.372-10.027 22.403-22.4 22.403-12.372 0-22.402-10.03-22.402-22.403 0-12.372 10.03-22.4 22.402-22.4 12.373 0 22.4 10.028 22.4 22.4"/><path fill="#bf1b2c" d="M2.14 21.627c-.024 1.088-.03 2.176-.082 3.263-.018.356-.116.719-.234 1.059-.178.52-.19 1.004.1 1.49.267.446.322.896.087 1.406-.193.42-.23.88-.11 1.364.117.482.351.876.722 1.165.377.292.668.643.94 1.023.105.148.245.266.363.402.297.347.49.726.384 1.204-.059.266.058.448.288.575.09.05.18.105.261.168.24.181.413.416.37.727-.11.81.211 1.458.717 2.048.236.276.401.597.592.9.184.298.493.529.778.746.251.19.484.367.607.68.13.334.401.523.761.596.2.04.39.14.591.179.17.03.348 0 .523.007.172.005.305.22.5.1.121-.076.072-.336-.135-.635-.103-.148-.23-.281-.348-.417a28.696 28.696 0 0 1-2.225-2.991c-.48-.735-.958-1.473-1.439-2.207-.42-.638-.693-1.321-.715-2.106-.01-.408-.153-.812-.209-1.223a17.221 17.221 0 0 1-.153-1.545 5.723 5.723 0 0 0-.32-1.75c-.314-.86-.399-1.768-.574-2.656a1.043 1.043 0 0 1-.009-.233c.052-1.032.105-2.063.159-3.093.009-.182.074-.38.024-.543-.218-.704.104-1.372.116-2.059a.49.49 0 0 1 .086-.292c.444-.536.347-1.23.551-1.833.04-.12-.008-.299.064-.373.355-.367.343-.915.679-1.294.128-.146.178-.373.229-.572.1-.393.316-.701.616-.968.173-.153.37-.301.488-.494.652-1.072 1.59-1.906 2.379-2.863 1.216-1.473 2.705-2.63 4.353-3.588.583-.337 1.15-.701 1.721-1.059.154-.094.32-.182.443-.31.343-.352.77-.512 1.23-.623.226-.055.457-.117.663-.22.639-.312 1.327-.432 2.01-.576.152-.032.309-.059.462-.05.683.042 1.339-.137 2.002-.246.586-.097 1.161-.212 1.766-.179.567.03 1.139-.06 1.708-.056.543.004 1.084.086 1.627.09.917.01 1.797.224 2.672.452.623.162 1.237.358 1.828.637.559.265 1.164.43 1.744.655.187.073.359.19.535.296.222.132.433.282.661.404.548.29 1.145.478 1.66.838.385.27.79.144 1.185-.022.294-.123.386-.118.499.133.141.313.321.405.661.393.159-.005.342.207.483.348.15.15.284.31.513.31.07 0 .163-.023.202-.071a.263.263 0 0 0 .036-.216c-.103-.307-.324-.528-.586-.705a8.77 8.77 0 0 0-.858-.534 1.034 1.034 0 0 1-.558-.71c-.126-.538-.458-.902-.92-1.184-.442-.272-.886-.523-1.394-.664-.498-.14-.978-.347-1.466-.522-.248-.088-.489-.132-.752-.014-.292.13-.556.033-.781-.184-.076-.071-.159-.135-.233-.206-.258-.24-.555-.301-.86-.137-.452.24-.855.225-1.316-.021-.28-.15-.646-.138-.974-.194-.258-.045-.498-.113-.72-.273-.114-.085-.304-.177-.42-.14-.365.12-.614-.07-.837-.277-.245-.228-.467-.226-.775-.132-.753.234-1.514.309-2.204-.22-.376-.286-.709-.266-1.13-.003-.43.267-.947.397-1.435.556-.133.043-.31 0-.452-.045-.196-.063-.383-.16-.57-.251-.217-.104-.438-.148-.677-.075-.669.204-1.34.4-2.006.615-.566.183-1.124.387-1.688.577-.686.232-1.39.41-1.947.923-.163.15-.416.201-.627.297-.4.184-.81.347-1.193.558-.43.237-.857.493-1.248.789-.348.264-.64.6-.967.893-.424.379-.89.715-1.277 1.127-.54.576-1.17 1.096-1.39 1.913-.058.212-.225.343-.446.394-.127.029-.25.07-.376.1-.59.13-.853.533-.941 1.098a4.783 4.783 0 0 1-.171.75c-.115.357-.323.657-.66.838-.567.306-.856.81-1.023 1.403-.084.299-.166.6-.232.903a3.088 3.088 0 0 1-.582 1.26c-.339.438-.623.89-.622 1.476a.838.838 0 0 1-.126.444c-.399.598-.459 1.296-.582 1.968-.078.428-.057.876-.081 1.313a.082.082 0 0 0 .017.001m46.112 2.639c-.115-1.11-.147-1.863-.283-2.597a19.822 19.822 0 0 0-.597-2.33c-.156-.498-.447-.62-.974-.545-.125.019-.182.11-.145.219.077.217.15.445.276.636.332.508.27 1.044.1 1.564-.184.564-.461 1.096-.652 1.658a6.254 6.254 0 0 0-.344 2.21c.017.522-.03 1.03-.128 1.542a14.159 14.159 0 0 0-.19 1.54c-.1 1.22-.426 2.39-.726 3.57-.252.992-.663 1.897-1.14 2.796-.6 1.129-1.379 2.129-2.087 3.18-.57.846-1.23 1.602-1.977 2.292-.267.244-.512.512-.77.768-.126.128-.238.277-.446.278a.247.247 0 0 0-.14.05c-.833.682-1.21.905-2.04 1.157a6.875 6.875 0 0 0-1.556.69c-.597.362-1.223.674-1.832 1.015-.363.2-.708.438-1.08.615-.795.383-1.616.685-2.49.844-.943.173-1.871.43-2.818.576a9.98 9.98 0 0 1-2.015.095c-1.008-.054-2.012-.204-3.02-.284-.733-.06-1.42-.308-2.112-.514-.892-.27-1.765-.602-2.645-.912a2.952 2.952 0 0 1-.424-.192c-.89-.478-1.776-.96-2.663-1.444-.25-.134-.497-.282-.749-.413-.348-.179-.357-.172-.563.196-.037.065-.086.127-.128.19-.204.318-.193.598.122.783.416.24.726.576 1.053.91.141.142.33.266.519.326.332.108.626.264.854.52.278.308.628.456 1.02.51.423.057.782.22 1.13.47.53.382 1.161.56 1.778.758.394.126.784.26 1.176.396.148.049.29.128.44.152.671.106 1.298.352 1.926.597a1.1 1.1 0 0 0 .604.052 3.816 3.816 0 0 1 1.313-.047c.127.018.26.012.388-.01.393-.064.777-.03 1.147.109.816.308 1.59.137 2.333-.22.333-.159.65-.305 1.027-.305.261 0 .508-.07.72-.252.325-.278.701-.3 1.101-.195.564.15 1.117.161 1.679-.053.234-.09.512-.068.77-.095 1.179-.13 2.254-.48 3.202-1.253a83.658 83.658 0 0 1 4.369-3.36c.883-.631 1.555-1.432 2.241-2.24 1.355-1.594 2.362-3.396 3.231-5.286.465-1.012.832-2.05 1.108-3.13.139-.55.36-1.076.464-1.64.188-1.043.52-2.068.515-3.135-.006-1.059.297-2.112.128-2.812"/><path fill="#fff" d="M33.088 34.063c-1.304-.87-2.564-1.804-3.843-2.708-.375-.266-.736-.55-1.095-.836-.258-.206-.522-.404-.78-.61-.43-.348-.878-.674-1.289-1.046-.292-.266-.605-.507-.904-.764a37.66 37.66 0 0 1-1.035-.923c-.273-.252-.554-.493-.832-.74-.218-.196-.409-.417-.61-.63-.512-.538-1.043-1.06-1.53-1.622-.637-.733-1.238-1.499-1.857-2.248-.365-.445-.647-.947-.964-1.424-.417-.63-.83-1.263-1.236-1.9-.175-.272-.308-.567-.455-.855-.325-.64-.645-1.284-.986-1.916-.272-.502-.404-1.053-.576-1.59a40.86 40.86 0 0 1-.242-.784.418.418 0 0 1-.021-.146c.005-.193.01-.388.03-.58.018-.165.131-.297.197-.445.022-.05.026-.144.094-.141.06.002.072.09.1.142.304.583.596 1.172.912 1.748.468.854.964 1.691 1.427 2.546.663 1.22 1.441 2.366 2.165 3.55.371.603.808 1.155 1.246 1.71.38.478.74.974 1.14 1.436.542.63 1.112 1.236 1.673 1.848.332.36.708.674 1.064 1.01.288.268.573.54.867.803.244.221.497.432.745.65.25.22.497.443.748.663.099.088.204.171.308.254.375.296.753.586 1.124.888.304.246.61.49.915.733.609.488 1.258.921 1.897 1.368.353.248.72.477 1.083.715.485.314.968.63 1.434.972.103.073.187.074.291.013.104-.06.213-.108.285-.217.048-.07.064-.107-.033-.136a2.148 2.148 0 0 1-.405-.178.6.6 0 0 1-.123-.082c-.068-.064-.095-.13-.041-.23.08-.157.197-.288.274-.446.042-.087.254-.083.32.01.1.14.206.275.339.383.047.037.055.095.072.15.1.325.044.645-.007.967-.017.106-.041.21-.038.316.004.266.182.39.394.472.166.066.68.351.854.394.1.025.154.082.192.173.036.093.045.237.134.259.072.02.174-.072.263-.115.319-.15.648-.159.947.024a.76.76 0 0 1 .325.488c.124.536-.052.97-.415 1.357-.14.148-.31.248-.494.314-.5.176-1.028-.03-1.155-.628a1.128 1.128 0 0 1-.01-.53c.023-.085-.005-.124-.091-.113-.315.041-.846-.37-.999-.617a.972.972 0 0 0-.372-.359c-.144-.076-.277-.047-.401.01a4.768 4.768 0 0 0-.596.314c-.199.13-.436.177-.654.159-.206-.018-.412-.127-.602-.227-.124-.067-.12-.193-.039-.313.09-.136.2-.258.304-.383.064-.079.188-.07.292.025.116.108.241.207.343.331.074.093.093.083.164-.015.085-.117.082-.256.109-.389.01-.056-.024-.084-.061-.112a12.9 12.9 0 0 1-.28-.197"/><path fill="#fff" d="M17.075 34.063c1.304-.87 2.564-1.804 3.842-2.708.375-.266.736-.55 1.096-.836.259-.206.522-.404.779-.61.432-.348.879-.674 1.29-1.046.291-.266.605-.507.903-.764.35-.302.696-.608 1.035-.923.273-.252.556-.493.832-.74.219-.196.41-.417.61-.63.513-.538 1.043-1.06 1.53-1.622.637-.733 1.239-1.499 1.857-2.248.366-.445.647-.947.964-1.424.418-.63.83-1.263 1.236-1.9.175-.272.31-.567.455-.855.325-.64.647-1.284.988-1.916.272-.502.403-1.053.575-1.59.084-.262.162-.522.242-.784a.49.49 0 0 0 .02-.146c-.005-.193-.01-.388-.03-.58-.018-.165-.131-.297-.196-.445-.023-.05-.026-.144-.095-.141-.06.002-.072.09-.099.142-.305.583-.597 1.172-.914 1.748-.467.854-.962 1.691-1.427 2.546-.661 1.22-1.44 2.366-2.164 3.55-.37.603-.807 1.155-1.245 1.71-.38.478-.74.974-1.14 1.436-.542.63-1.112 1.236-1.674 1.848-.332.36-.708.674-1.064 1.01-.286.268-.573.54-.866.803-.244.221-.498.432-.746.65-.25.22-.497.443-.748.663a8.3 8.3 0 0 1-.308.254c-.374.296-.753.586-1.124.888-.304.246-.61.49-.914.733-.61.488-1.26.921-1.896 1.368-.355.248-.722.477-1.084.715-.484.314-.967.63-1.435.972-.101.073-.187.074-.29.013-.105-.06-.214-.108-.287-.217-.047-.07-.063-.107.034-.136a2.11 2.11 0 0 0 .406-.178.565.565 0 0 0 .122-.082c.068-.064.095-.13.042-.23-.08-.157-.198-.288-.275-.446-.043-.087-.253-.083-.32.01-.1.14-.204.275-.339.383-.046.037-.056.095-.072.15-.1.325-.045.645.007.967.017.106.041.21.04.316-.004.266-.184.39-.396.472-.165.066-.681.351-.855.394a.26.26 0 0 0-.19.173c-.036.093-.046.237-.135.259-.073.02-.173-.072-.261-.115-.32-.15-.65-.159-.948.024a.76.76 0 0 0-.326.488c-.122.536.052.97.415 1.357.14.148.312.248.495.314.5.176 1.028-.03 1.154-.628a1.13 1.13 0 0 0 .01-.53c-.023-.085.005-.124.092-.113.314.041.845-.37.998-.617a.972.972 0 0 1 .372-.359c.144-.076.278-.047.403.01.203.095.407.191.595.314.198.13.436.177.653.159.207-.018.413-.127.604-.227.123-.067.119-.193.039-.313-.092-.136-.202-.258-.306-.383-.064-.079-.188-.07-.29.025-.118.108-.243.207-.344.331-.076.093-.094.083-.163-.015-.087-.117-.084-.256-.11-.389-.01-.056.022-.084.062-.112l.279-.197"/><path fill="#fff" d="M25.08 3.692c-11.583 0-20.97 9.388-20.97 20.969 0 11.58 9.387 20.97 20.97 20.97 11.581 0 20.97-9.39 20.97-20.97 0-11.581-9.389-20.97-20.97-20.97m0 1.334c10.826 0 19.636 8.808 19.636 19.636s-8.81 19.636-19.636 19.636c-10.828 0-19.638-8.808-19.638-19.636S14.252 5.025 25.08 5.025"/></svg>
