<svg width="35" height="45" xmlns="http://www.w3.org/2000/svg">
<defs>
<clipPath clipPathUnits="userSpaceOnUse" id="c">
<path d="M330.1 485.1h22.6v-31.7H330z"/>
</clipPath>
<clipPath clipPathUnits="userSpaceOnUse" id="d">
<path d="M330.1 453.4h22.6V485H330z"/>
</clipPath>
</defs>
<path fill="#5fc89e" d="m257.2 476 6.5 7 14.6-.6-.4-23.4-6.7-6.9-14.6.4" transform="matrix(1.33333 0 0 -1.33333 -339 645.8)"/>
<g clip-path="url(#c)" transform="matrix(1.33333 0 0 -1.33333 -437.7 648.2)">
<g clip-path="url(#d)">
<path d="M0 0c-.2 0-.3-1.3-.4-3.5v-4l.1-2.4v-8.8l.1-3.5.2-3.5V-30c0-.3-.1-.2-.1-.2l-1.5-.1-3.7-.2h-10.8v9.1l-.1 3.3v6l-.1 2.9-.1 2.6v2.2l-.1 2.2v.8l1 .2c1 0 1.6.3 2 .3l2.9.1H-3.1C-2-.6-.5-.8 0-.8.7-.5.3.6.2.7L-.9.7h-3L-5.6.4h-5l-3-.2h-2.1l-1.9-.1v-2.5l.1-2.1v-1.2l.1-1.2.2-2.6v-1.2a1606.1 1606.1 0 0 0 .2-7.5v-3.2l.1-3.3.2-6.7 7.3.2h4l3.9.2 1.6-.2.8-.2-.1 1.7v3.8l-.2 3.6v16.9L.3-3.5C.4-1.2.2 0 0 0" fill="#231f20" transform="matrix(.85742 0 0 -.74624 345.3 454)"/>
<path d="M0 0c-.2 0-.6 1.6-.6-.4v-7A1563 1563 0 0 0-.6-15v-2.8a2915.2 2915.2 0 0 0 .1-3V-24l.2-3.3V-29.6l-.2.2-.1.2c-.8.8-1.5 1.7-2.2 2.7l-4 5h-.1v2.6l-.2 3.1-.1 6v8l-.1 1.2V.7l-.3 3.8.1 2.6v.8a13.3 13.3 0 0 0 .5-.5l.7-.7.4-.4.3-.5.8-.8C-3.7 3.9-1.2.3-.5-.5c.3.2.4-.2.5 0 .2 0 .2.5 0 .9l-4 5.3-.7.9-.4.5-.4.5-2 2.3s-1.3.2-1.1 0V4.6l.1-2.1.2-2.1.1-2.2v-2.5l.1-1.3v-4.1l.3-6c0-1-.2-2.1-.1-3v-3l.5-.4c1.4-1.6 2.7-3 4-4.7l2.3-2.7.5-.6.2-.3.2-.2.7-1v2.4l-.1 1.8v8.1l-.1 1.5a8794 8794 0 0 1 0 5.7L0-9.8v8.4C.2.6.3 0 0 0" fill="#231f20" transform="matrix(.85742 0 0 -.74624 352.3 460.8)"/>
<path d="M0 0c0-.2-.2-.5 1.1-.5l2.2.2h1.3A548.2 548.2 0 0 1 8-.4l1.8.1h2l1 .1H16l1 .1h.2l.3-.4a19.1 19.1 0 0 0 2-2.8l.8-1L22-6c.8-1 2.1-2.7 2-2.4h-.4l-2.2-.2-4-.2h-6.5l-1-.1H8.3l-.3.3C7.5-8 7-7.7 6.7-7L5.7-6 4.4-4.7l-.2.3-.3.3-.6.6C2.7-2.8 1.6-.8 1-.2c-1 1-1 .8-1 .7v-.9c.4-.6 1.9-3 2.6-3.8L3-5l.3-.3.3-.4L5-6.9l.8-.9L7-9.3l.6-.8h2.6l1.5.2h1.7l1 .1h2.8l4 .3 2.2.1 2 .1v.3c-1 1.2-1.7 2.5-2.6 3.6l-1.8 2-.3.5-.3.4-.2.6c-.2.2-.4 0-.7.4l-.6.8-.8.8-.6 1-1.4-.2h-3.3L11.8.7H6L4.7.6H0V0" fill="#231f20" transform="matrix(.85742 0 0 -.74624 330.9 477.6)"/>
</g>
</g>
</svg>

