<svg width="40" height="90" xmlns="http://www.w3.org/2000/svg">
<path d="m427 42.3-1.6 16h2.3v4H425l-1.6 16.2h2.1v3.9h-1.9a37 37 0 0 1 1.3 7.4v.3c0 5.4-9.8 10.9-9.8 10.9s-9.8-5.5-9.8-10.8v-.4c0-2.7.7-5.7 1.2-7.4h-1.8v-4h2l-1.6-16.1h-2.7v-4h2.4l-1.6-16H401v-7.1h28.2v7z" fill="#d3d2d2" transform="matrix(1.33333 0 0 -1.33333 -533.4 135.8)"/>
<path d="M423.6 56h-.1l-2-2-1.9 2H416v-3.5l1.9-2-3-3-3.2 3 2 2V56h-3.5l-2-2-2 2h-1.8l-.5-4.8.8-.7-1-.9-.2-2.5 2.3 2.3.4-.4V46h-2.8l-.1-1.6h4.5v5.4l-.8.8 1.2 1.2 1.2-1.2-.8-.8v-5.4h5.4l.8.8.8-.8H421.1v5.4l-.8.8 1.3 1.2 1.2-1.2-.9-.8v-5.4H426.8l-.2 1.6h-3V49l.3.3 2.7-2.6-.3 2.6-.4.4-.8.8 1 1-.5 4.5zm-.9-3.1 1.5 1.5h1.1v-1.3l-1.4-1.4zm-5 .2v1.3h1.2l1.5-1.5-1.2-1.2zm-8.3-.2 1.5 1.5h1.2v-1.3l-1.4-1.4zm-5 .2v1.3h1.2l1.5-1.5-1.2-1.2zm6-4.1.3.4.7-.8 2.4-2.3-.4-.4h-3zm5.7-2.7 3 3 .4-.3V46h-3zM423.6 76.6h-.1l-2-1.9-1.9 1.9H416v-3.5l1.9-2-3-3-3.2 3 2 2v3.5h-3.5l-2-2-1.8 1.8-.2-2 .8-.9-1-1-.2-2.5.4-.3v-3.2h-.7l-.2-1.6h2.5v5.4l-.8.8 1.2 1.3 1.2-1.3-.8-.8v-5.4h5.4l.8.8.8-.8H421.1v5.4l-.8.8 1.3 1.3 1.2-1.3-.9-.8v-5.4h2.9l-.2 1.6h-1v3.1l.3.4.4-.4-.3 2.8-1.3 1.1 1 1.1-.1 2zm-5.9-2.8V75h1.2l1.5-1.5-1.2-1.2zm-8.3-.3L411 75h1.2v-1.3l-1.4-1.4zm1-3.9.3.4.7-.8 2.4-2.3-.4-.4h-3zM416 67l3 3 .4-.2v-3.2h-3z" fill="#918f90" transform="matrix(1.33333 0 0 -1.33333 -533.4 135.8)"/>
<path d="M401.5 35.7h27.2v6h-2.2L425 59h2.3v2.9h-2.6L422.9 79h2.1v2.9h-2l.2.6a37 37 0 0 1 1.2 7.3V90.1c0 4.6-7.8 9.4-9.3 10.3-1.5-.9-9.3-5.7-9.3-10.2v-.4c0-2.6.6-5.4 1.1-7.3l.2-.6h-2v-3h2.2l-1.7-17.1H403v-3h2.3l-1.7-17h-2.1zm28.2-1h-29.2v8h2.2l1.5 15.2H402v4.9h2.7l1.5 15.2h-2v4.9h1.6a29 29 0 0 0-1 7.2c0 5.7 9.6 11.1 10 11.3l.3.2.2-.2c.4-.2 10-5.6 10-11.2v-.4c0-2-.5-4.7-1-7h1.7V78h-2l1.5-15.2h2.7v-5H426l1.5-15h2.2z" fill="#231f20" transform="matrix(1.33333 0 0 -1.33333 -533.4 135.8)"/>
</svg>
