<svg width="50" height="30" xmlns="http://www.w3.org/2000/svg">
<path fill="#5fc89e" d="m.6 732.1 27 4.2 9-5 .3-12.5-27.1-3.6-9.2 4.3" transform="matrix(1.33333 0 0 -1.33333 0 982.7)"/>
<path d="M0 0c-.5.6-1.4.3-1.9.7-.7.6-.4 1.8-.8 2.8-.3.7-.7.8-1.3 1.3a21 21 0 0 0-3.5.3 10 10 0 0 0 .9 5.5c.4.4 1.4.2 1.4 1l-1.6.2C-8.2 10.4-8 7.2-9 5.5c-.3.7-.1 1.5-.4 2.4-.2.9-.8 1.6-.6 2.5.2.8 1 .6 1.2 1.6-.9 0-1.6 0-2-.4-.4-2.3.7-3.8.4-6.2-1.7.1-2.8-.5-4-.8.4 1-.4 2.4-.5 3.4-.1 1.4.6 2.8 1.6 3.5.4.2 1 .1.9 1-2.1 0-2.4-2-3.6-3 0-.9.2-1.4 0-2.3-.5.8-1.5 2.7-1 4.3.3.8 1.1.9 1.2 1.7h-1.5l-.5-.5c.1-1.4-.4-2.5-.2-3.8.1-.8.6-1.6.7-2.5 0-1.2-.4-2.5-.2-3.7 0-.6.9-1.7 1.4-2.1.6-.6 2.8-2 3.9-2.3h.8c.7.1 1 .7 1.7 1.1l1 .4c1.4.9 2.1 3 3.7 3C-4 2.7-3.8 1.4-3.9 0c-.2-.2.2-.3.2-.6s-.3-.4-.1-.7C-2.3-1.2-.1-1.5 0 0" fill="#231f20" transform="matrix(1.14323 0 0 .995 42.7 14.5)"/>
<path d="M0 0c0 .2-1.2.5-3.3 1l-1.8.3-2 .4-2.5.4-2.8.5-2.8.4-3.1.5-1.7.2-1.6.3-3.5.6-3.6.6-1.2.2a466.6 466.6 0 0 1 .2 3.2v2l.2 3.9.2 6.6 2.2-.3 3.4-.5 6.4-1a2732.9 2732.9 0 0 1 6-1.1l2.7-.5 1.3-.2 1.4-.2 4.1-.5a28 28 0 0 0 1.8-.4V3.5C0 1.1-.6-.3.4-.4A121.2 121.2 0 0 1 1 9.2v8.1l-2.5.5-2.3.4-2.4.2-2.3.3-2.8.4a9645.3 9645.3 0 0 1-2.7.5l-3.1.5-6.5 1-3.3.5-4 .5.1-.1c0-2.3.6-5 .5-7.3V9l-.2-1.8-.1-2V5l1.5-.3a3329.4 3329.4 0 0 0 7-1.2l1.8-.3 1.6-.3 3.2-.6 3-.5 2.6-.4 2.3-.4 2.2-.4 1.9-.3C-1.3 0 0-.2 0 0" fill="#231f20" transform="matrix(1.14323 0 0 .995 48.3 7.4)"/>
<path d="M0 0c0 .2 2.2.3.3.7l-5 1-1.9.5c-.7 0-1.4.2-2.2.4l-2.5.4c-.9 0-1.7.2-2.6.3l-2.8.5-1.5.2-1.5.3-3.2.6-3.3.4-1.6.3h-.4l-.1.1h-.1l.1.1.3.2a3082.5 3082.5 0 0 0 8.7 4.6v.1l2.6-.4 3-.4 6-1 2.6-.5 1.4-.2 1.4-.3 2.5-.3 1.2-.2 1.2-.2 3.8-.5 2.5-.5.8-.1V6a498.7 498.7 0 0 0-1.8-1.2l-.5-.3-1-.6-3.7-2C1 .7-.3 0 0-.1h1C2 .2 5.7 2.2 7 3l1 .6.6.3.3.2c1.3.7 1.8 1.1 2.9 2.2l.1.4-1.5.4a1045.4 1045.4 0 0 0-5.7 1l-2.1.2-2.2.3-2.5.3-1.2.2-1.3.2-2.8.5-6 .9-3 .4-2.9 1-.1-.7-5.6-3.1-3.1-1.7-.7-.4-.3-.2-.3-.1-.7-.4.6-.3c.5 0 1 0 1.4-.2a41.8 41.8 0 0 1 5-.8l3.2-.6 1.5-.2L-17 3l2.9-.5 2.7-.5c1 0 1.7-.2 2.4-.3l2.1-.4 2-.4c.6 0 1.1-.3 1.7-.4C-1.2.4 0-.2 0 0" fill="#231f20" transform="matrix(1.14323 0 0 .995 35.5 .8)"/>
<path d="M0 0c-.2 0-.3-.8-.4-2.1l-.1-1.2v-1.3a1195.3 1195.3 0 0 1-.2-3.2v-5.8L-1-16V-16.8l-.4-.3a19.6 19.6 0 0 0-2-1l-1.2-.5-1-.6-2.2-1.2-1.9-1-.9-.5h-.1v-.1.6a1579.1 1579.1 0 0 1 0 6.2l.1 1.9v2l.1 1.6V-8l-.1 1.7.4.2 2 1a1290.4 1290.4 0 0 1 2.8 1.8h.2l.4.3.7.4c.8.6 3 1.4 3.7 1.8 1.3.8.4.7.3.8 0 .1-.8.3-2.2-.4l-2.4-1.3-.7-.4-.4-.2-.4-.3-1.5-1-1-.6-1.9-.9-1-.6v-3.9l.1-1.8V-13l-.1-2v-8.2l1.3-.2c1.2.8 1 1 2.3 1.7l2.2 1.2.5.3.4.4.5.1 1 .5.8.6 1.4.7 1.3.7v1.6l.1 2.1v1.1l.1 1a772.7 772.7 0 0 0 .2 5.6V-2.8L.7-1C.7.3.2 0 0 0" fill="#231f20" transform="matrix(1.14323 0 0 .995 13.6 29.3)"/>
</svg>

