<svg xmlns="http://www.w3.org/2000/svg" viewBox="0 0 120 120"><path d="M60.002 7.83C31.203 7.83 7.83 31.202 7.83 60c0 28.798 23.373 52.17 52.172 52.17 28.798 0 52.168-23.372 52.168-52.17 0-28.798-23.37-52.17-52.168-52.17zm0 2.27c1.427 0 2.834.074 4.23.191l-4.218 8.635-4.305-8.631a50.5 50.5 0 0 1 4.293-.195zm6.627.45a49.634 49.634 0 0 1 23.332 9.536l-3.531 10.56c-6.536-6.02-15.125-9.841-24.594-10.285l4.793-9.81zm-13.322.009 4.888 9.8c-9.473.428-18.07 4.233-24.615 10.243l-3.598-10.47a49.64 49.64 0 0 1 23.325-9.573zM91.854 21.58a50.16 50.16 0 0 1 6.162 6.102l-9.27 3.187 3.108-9.289zm-63.756.045 3.152 9.176-9.277-3.104a50.16 50.16 0 0 1 6.125-6.072zm31.65.963a1.134 1.134 0 0 0 .54.002c20.192.164 36.49 16.554 36.49 36.787 0 20.334-16.462 36.795-36.796 36.795-20.335 0-36.796-16.461-36.796-36.795 0-20.256 16.336-36.663 36.562-36.79zm39.79 6.97a49.64 49.64 0 0 1 9.833 23.174L99.008 57.9a38.903 38.903 0 0 0-10.049-24.707l10.578-3.634zm-79.089.022 10.612 3.549a38.905 38.905 0 0 0-10.104 24.687l-10.33-5.046a49.636 49.636 0 0 1 9.822-23.19zm17.31 8.18v44.484h44.489V37.76H37.76zm22.243 16.308A5.916 5.916 0 0 1 65.937 60a5.918 5.918 0 0 1-5.933 5.936 5.918 5.918 0 0 1-5.936-5.934 5.916 5.916 0 0 1 5.934-5.934zm49.66 1.055c.156 1.605.24 3.23.24 4.877 0 1.374-.07 2.73-.18 4.076l-9.1-4.445 9.04-4.508zm-99.324.031 8.97 4.381-9.033 4.504A50.5 50.5 0 0 1 10.1 60c0-1.636.084-3.25.238-4.846zm10.627 6.09c.447 9.483 4.283 18.082 10.322 24.62l-11.207 3.85-.37-.273a49.623 49.623 0 0 1-9.183-22.992l10.438-5.205zm78.03.117 10.476 5.116a49.617 49.617 0 0 1-8.99 22.699l-.686.515-11.2-3.744c6.06-6.521 9.924-15.108 10.4-24.586zm-65.382 26.82c6.564 6.013 15.184 9.81 24.68 10.215l-5.223 10.696-1.08.162a49.634 49.634 0 0 1-21.525-9.031l-.61-.81 3.758-11.231zm52.639.096 3.844 11.19-.559.756a49.633 49.633 0 0 1-21.367 9.002l-1.332-.188L61.533 98.4a38.908 38.908 0 0 0 24.719-10.123zm-55.068.02-3.309 9.885a50.161 50.161 0 0 1-6.457-6.528l9.766-3.357zm57.496.068 9.888 3.309a50.163 50.163 0 0 1-6.498 6.556l-3.39-9.865zM59.916 100.24l4.707 9.44a50.51 50.51 0 0 1-4.621.22c-1.584 0-3.147-.082-4.693-.226l4.607-9.434z"/></svg>
