<svg xmlns="http://www.w3.org/2000/svg" viewBox="0 0 120 120"><path d="M60 7.83C31.201 7.83 7.83 31.2 7.83 60S31.202 112.17 60 112.17c28.798 0 52.17-23.37 52.17-52.17S88.798 7.83 60 7.83zm0 2.27c3.252 0 6.428.32 9.506.914 4.274 2.993 7.072 7.942 7.072 13.566 0 .345-.03.682-.05 1.022l-.01.128A16.605 16.605 0 0 1 76 28.857c-.001.004 0 .008-.002.012l-.002.008c-.13.49-.285.973-.459 1.445l-.023.063a16.474 16.474 0 0 1-1.295 2.691c-.022.037-.044.075-.067.111-.236.39-.489.768-.756 1.135-.044.062-.09.123-.136.184-.254.34-.52.671-.8.99-.069.08-.14.156-.212.234a16.64 16.64 0 0 1-.83.856c-.095.09-.194.176-.291.264-.049.044-.101.085-.15.129.718.343 1.416.718 2.095 1.125a18.786 18.786 0 0 0 5.489-10.381 36.83 36.83 0 0 1 13.466 13.756 18.779 18.779 0 0 0-10.13 5.449c.405.677.782 1.373 1.124 2.09l.016-.02a16.652 16.652 0 0 1 2.623-2.38c.299-.219.603-.428.916-.626.11-.07.222-.136.334-.203.33-.197.666-.388 1.01-.562.11-.057.224-.107.336-.16.358-.172.72-.337 1.092-.483.096-.038.195-.07.293-.105.39-.146.785-.283 1.19-.399.087-.025.177-.045.265-.068.426-.115.856-.218 1.295-.3.037-.006.075-.01.113-.017a16.63 16.63 0 0 1 1.476-.199l.024-.002c.469-.04.94-.07 1.42-.07 5.62 0 10.566 2.794 13.56 7.062A50.18 50.18 0 0 1 109.9 60a50.16 50.16 0 0 1-.916 9.518c-2.994 4.267-7.94 7.058-13.56 7.058-.52 0-1.032-.03-1.54-.076l-.468-.057a16.513 16.513 0 0 1-7.018-2.543 16.613 16.613 0 0 1-1.087-.777c-.05-.037-.1-.071-.149-.11a16.675 16.675 0 0 1-.916-.784c-.079-.073-.16-.142-.238-.215a16.633 16.633 0 0 1-.787-.809 35.371 35.371 0 0 1-.2-.219 25.44 25.44 0 0 1-1.123 2.09 18.784 18.784 0 0 0 9.498 5.324 36.865 36.865 0 0 1-13.052 12.778 18.798 18.798 0 0 0-5.27-9.28 25.43 25.43 0 0 1-2.092 1.123l.164.15c.277.253.55.51.81.78l.126.139a16.544 16.544 0 0 1 4.324 9.076l.092.69c.048.516.08 1.038.08 1.568 0 5.623-2.797 10.568-7.068 13.56-3.08.594-6.256.916-9.51.916a50.1 50.1 0 0 1-9.52-.916c-4.267-2.993-7.058-7.939-7.058-13.56 0-.527.03-1.047.078-1.56l.094-.698a16.555 16.555 0 0 1 4.414-9.178l.006-.008c.289-.303.595-.59.906-.87l.096-.089a25.428 25.428 0 0 1-2.094-1.123 18.794 18.794 0 0 0-5.268 9.276 36.87 36.87 0 0 1-13.043-12.776 18.78 18.78 0 0 0 9.49-5.322 25.444 25.444 0 0 1-1.124-2.092l-.217.239c-.245.264-.493.525-.754.773-.09.086-.185.168-.277.252-.288.261-.58.517-.885.758-.055.043-.111.083-.166.125a16.524 16.524 0 0 1-8.088 3.31l-.48.059c-.507.046-1.019.076-1.538.076-5.618 0-10.562-2.79-13.556-7.055A50.175 50.175 0 0 1 10.098 60c0-3.257.32-6.437.916-9.52 2.994-4.266 7.94-7.056 13.558-7.056.475 0 .942.031 1.407.07l.03.002c.513.044 1.017.114 1.514.203l.055.008c.005 0 .01.003.014.004.453.083.898.19 1.338.309.073.02.149.035.222.056.405.116.8.252 1.192.397.102.038.205.073.306.113.377.148.745.314 1.108.488.102.05.206.096.306.147.345.174.68.365 1.01.562.12.071.239.141.356.215.3.19.592.391.879.6.14.101.28.202.416.308a16.666 16.666 0 0 1 1.18 1.008c.235.22.465.446.687.68.131.138.258.28.385.424.342-.717.719-1.414 1.125-2.092a18.789 18.789 0 0 0-10.133-5.447 36.825 36.825 0 0 1 13.467-13.76 18.781 18.781 0 0 0 5.488 10.385 25.426 25.426 0 0 1 2.096-1.125c-.06-.054-.123-.103-.182-.157-.08-.073-.163-.145-.242-.22a16.605 16.605 0 0 1-.9-.93c-.043-.047-.088-.093-.13-.14-.306-.35-.598-.711-.875-1.085l-.062-.086a16.593 16.593 0 0 1-.79-1.181l-.062-.102a16.544 16.544 0 0 1-.685-1.273l-.028-.059A16.536 16.536 0 0 1 44 28.866a16.633 16.633 0 0 1-.52-3.141l-.007-.11c-.022-.344-.051-.685-.051-1.035 0-5.623 2.795-10.571 7.066-13.564A50.184 50.184 0 0 1 60 10.1zm14.088 2.027c16.231 4.764 29.013 17.545 33.781 33.775-3.321-2.942-7.669-4.748-12.445-4.748-.296 0-.585.032-.877.045a39.212 39.212 0 0 0-15.73-16.039c.005-.194.029-.384.029-.58 0-4.781-1.81-9.131-4.758-12.453zm-28.184.002c-2.944 3.322-4.752 7.67-4.752 12.451 0 .194.024.382.03.574A39.21 39.21 0 0 0 25.443 41.2c-.29-.013-.577-.045-.87-.045-4.779 0-9.125 1.807-12.446 4.75 4.767-16.229 17.548-29.009 33.777-33.775zm14.092 25.486c-12.349 0-22.385 10.037-22.385 22.387 0 12.353 10.036 22.385 22.385 22.385 12.35 0 22.39-10.032 22.39-22.385 0-12.35-10.04-22.387-22.39-22.387zM60 53.84a6.144 6.144 0 0 1 6.16 6.162h1.133l-1.133.02a6.145 6.145 0 0 1-6.16 6.28v.003a6.146 6.146 0 0 1-6.162-6.282l.002-.011v-.01A6.144 6.144 0 0 1 60 53.84zM12.129 74.098c3.32 2.941 7.666 4.748 12.443 4.748.518 0 1.026-.037 1.533-.078a39.248 39.248 0 0 0 15.137 14.865c-.056.59-.09 1.187-.09 1.79 0 4.779 1.807 9.125 4.748 12.446-16.226-4.767-29.004-17.545-33.771-33.771zm95.74.002c-4.768 16.228-17.548 29.006-33.777 33.771 2.944-3.321 4.754-7.668 4.754-12.447 0-.604-.034-1.201-.09-1.791A39.242 39.242 0 0 0 93.9 78.768c.504.04 1.01.078 1.524.078 4.777 0 9.124-1.805 12.445-4.746z"/></svg>
