<svg xmlns="http://www.w3.org/2000/svg" viewBox="0 0 120 120"><path d="M60 7.83C31.202 7.83 7.83 31.2 7.83 60S31.202 112.17 60 112.17c28.798 0 52.17-23.37 52.17-52.17S88.798 7.83 60 7.83zm0 2.27a49.675 49.675 0 0 1 25.266 6.867l-5.37 2.795-11.71-6.219a1.134 1.134 0 0 0-.516-.13 1.134 1.134 0 0 0-1.133 1.32l2.188 13.074-4.88 4.716L64.9 34.66l5.83-5.639a1.134 1.134 0 0 0 .33-1.001l-1.906-11.397 10.205 5.42a1.134 1.134 0 0 0 1.055.006l7.086-3.692a49.965 49.965 0 0 1 2.557 1.805l-1.393 7.934a1.134 1.134 0 0 0 .324 1.004l8.239 8.097-11.44 1.614a1.134 1.134 0 0 0-.853.617l-3.641 7.297 2.365.341 3.037-6.093 13.125-1.85a1.134 1.134 0 0 0 .637-1.932L91 27.901l1.076-6.124C102.971 30.93 109.9 44.647 109.9 60c0 3.8-.438 7.495-1.242 11.05l-5.457-5.364 2.295-13.057a1.134 1.134 0 0 0-1.107-1.332 1.134 1.134 0 0 0-.534.129l-11.761 6.123-5.807-3.082-1.703 1.662 6.975 3.703a1.134 1.134 0 0 0 1.054.006l10.25-5.336-2 11.379a1.134 1.134 0 0 0 .323 1.006l6.826 6.709a49.54 49.54 0 0 1-.492 1.658L97.988 76.6a1.134 1.134 0 0 0-.857.617l-5.156 10.342-5.07-10.383a1.134 1.134 0 0 0-.852-.623l-7.871-1.176.404 2.353 6.539.977 5.818 11.914a1.134 1.134 0 0 0 2.034.008l5.92-11.865 7.779-1.1c-6.792 17.954-23.631 30.95-43.672 32.139l3.863-7.836 13.121-1.903a1.134 1.134 0 0 0 .627-1.935l-9.49-9.25 1.094-6.383-2.112-1.111-1.32 7.697a1.134 1.134 0 0 0 .326 1.002l8.274 8.066-11.437 1.66a1.134 1.134 0 0 0-.853.623l-4.668 9.457c-.144 0-.286.011-.43.011-.155 0-.307-.01-.46-.011l-4.669-9.461a1.134 1.134 0 0 0-.855-.62L42.582 98.15l8.273-8.066a1.134 1.134 0 0 0 .329-1.002l-1.323-7.697-2.109 1.11 1.092 6.382-9.492 9.252a1.134 1.134 0 0 0 .63 1.935l13.118 1.903 3.867 7.834c-20.026-1.2-36.85-14.19-43.64-32.131l7.743 1.094 5.92 11.865a1.134 1.134 0 0 0 1.04.627 1.134 1.134 0 0 0 .993-.635l5.817-11.914 6.545-.977.402-2.353-7.873 1.176a1.134 1.134 0 0 0-.852.623l-5.07 10.383-5.158-10.342a1.134 1.134 0 0 0-.854-.617l-9.498-1.34a49.54 49.54 0 0 1-.502-1.69l6.801-6.683a1.134 1.134 0 0 0 .324-1.006l-2.003-11.383 10.253 5.34a1.134 1.134 0 0 0 1.055-.006l6.975-3.705-1.705-1.66-5.807 3.082-11.76-6.123a1.134 1.134 0 0 0-.517-.13 1.134 1.134 0 0 0-1.123 1.333l2.293 13.057-5.43 5.337A50.079 50.079 0 0 1 10.1 60c0-15.339 6.915-29.046 17.793-38.197l1.072 6.097-9.457 9.291a1.134 1.134 0 0 0 .637 1.932l13.125 1.852 3.039 6.091 2.363-.341-3.637-7.297a1.134 1.134 0 0 0-.857-.614L22.734 37.2l8.246-8.1a1.134 1.134 0 0 0 .32-1.003l-1.388-7.909a49.962 49.962 0 0 1 2.57-1.818l7.069 3.68a1.134 1.134 0 0 0 1.056-.004l10.206-5.418-1.909 11.394a1.134 1.134 0 0 0 .33 1.004l5.83 5.637 1.055-2.135-4.879-4.718 2.19-13.077a1.134 1.134 0 0 0-1.121-1.32 1.134 1.134 0 0 0-.53.133l-11.71 6.217-5.35-2.785A49.675 49.675 0 0 1 60 10.1zm-.016 21.443-8.111 16.436L33.74 50.61l13.123 12.791-3.1 18.063 16.221-8.53 16.22 8.53-3.097-18.063 11.475-11.187 1.645-1.604-18.133-2.632-8.11-16.436zm-6.392 6.103-7.479 1.118a1.134 1.134 0 0 0-.85.625l-3.353 6.865 2.715-.395 2.414-4.94 5.33-.794 1.223-2.479zm12.783 0 1.22 2.475 5.333.797 2.414 4.941 2.715.395-3.354-6.867a1.134 1.134 0 0 0-.851-.623l-7.477-1.118zm-6.39 15.499a5.918 5.918 0 0 1 5.933 5.935 5.915 5.915 0 0 1-5.934 5.932c-2.072 0-3.483-.737-4.453-1.828-.97-1.092-1.48-2.589-1.48-4.104 0-1.515.51-3.016 1.48-4.107.97-1.092 2.38-1.828 4.453-1.828zm-22.07 5.447-1.208 7.217a1.134 1.134 0 0 0 .33 1.002l5.334 5.16.465-2.707-3.793-3.668.85-5.076-1.979-1.928zm44.138.004-1.977 1.925.85 5.075-3.793 3.666.465 2.707 5.332-5.158a1.134 1.134 0 0 0 .332-1.002l-1.21-7.213zM55.496 78.424l-2.437 1.28 6.4 3.364a1.134 1.134 0 0 0 1.055 0l6.398-3.363-2.44-1.281-4.488 2.36-4.488-2.36z"/></svg>
