<svg xmlns="http://www.w3.org/2000/svg" viewBox="0 0 120 120"><path d="M60 7.83C31.202 7.83 7.83 31.202 7.83 60c0 28.8 23.372 52.17 52.17 52.17 28.798 0 52.17-23.37 52.17-52.17 0-28.798-23.372-52.17-52.17-52.17zm0 2.27c8.138 0 15.81 1.957 22.596 5.408l-5.155 5.154 6.592 6.588v7.637h7.635l6.588 6.588 5.494-5.493A49.69 49.69 0 0 1 109.9 60a49.695 49.695 0 0 1-5.517 22.81l-6.127-6.124-6.588 6.587h-7.635v7.633l-6.592 6.592 6.373 6.37C76.738 107.714 68.626 109.9 60 109.9a49.692 49.692 0 0 1-24.02-6.152l6.252-6.25-6.59-6.592v-7.633h-7.636l-6.588-6.587-5.91 5.91A49.697 49.697 0 0 1 10.1 60c0-8.625 2.186-16.736 6.033-23.813l5.285 5.288 6.588-6.588h7.637V27.25l6.59-6.588-5.044-5.045A49.69 49.69 0 0 1 60 10.1zm24.682 6.53a50.1 50.1 0 0 1 17.89 17.321l-4.316 4.319-5.65-5.653H86.3v-6.304l-5.65-5.65 4.03-4.032zm-49.57.12 3.913 3.912-5.652 5.65v6.305h-6.305l-5.648 5.649-4.117-4.118A50.103 50.103 0 0 1 35.11 16.75zm24.726 17.672-7.813 7.816h-9.029v9.028l-7.814 7.812 7.814 7.813v9.03h9.03l7.812 7.811 7.814-7.81h9.026V66.89l7.816-7.813-7.816-7.812v-9.028h-9.026l-7.814-7.816zm-.016 19.592a5.91 5.91 0 0 1 5.846 5.927 5.912 5.912 0 0 1-5.846 5.93 5.914 5.914 0 0 1-6.011-5.93 5.912 5.912 0 0 1 6.011-5.927zM21.418 79.89l5.65 5.652h6.305v6.306l5.652 5.65-5.076 5.072a50.094 50.094 0 0 1-17.318-17.888l4.787-4.791zm76.838 0 4.994 4.998a50.098 50.098 0 0 1-17.398 17.808l-5.202-5.199 5.65-5.65v-6.305h6.305l5.65-5.652z"/></svg>
