<svg xmlns="http://www.w3.org/2000/svg" viewBox="0 0 120 120"><path d="M60 7.83C31.202 7.83 7.83 31.2 7.83 60S31.202 112.17 60 112.17c28.798 0 52.17-23.37 52.17-52.17S88.798 7.83 60 7.83zm0 2.27c1.965 0 3.9.125 5.805.345l-.114 23.051h2.268l.111-22.738a49.64 49.64 0 0 1 22.08 9.478L73.854 36.373l1.603 1.604 16.482-16.32a50.15 50.15 0 0 1 6.454 6.46L81.996 44.512l1.606 1.603L99.81 29.908a49.637 49.637 0 0 1 9.644 23.506l-22.951-.113v2.27l23.2.113c.121 1.424.196 2.86.196 4.316 0 1.626-.084 3.232-.236 4.818l-23.16-.002v2.268l22.889.002a49.639 49.639 0 0 1-9.557 22.973L83.709 73.773l-1.604 1.604 16.313 16.477a50.15 50.15 0 0 1-6.453 6.466l-16.4-16.4-1.606 1.605 16.219 16.22a49.642 49.642 0 0 1-22.592 9.583l.111-22.82H65.43l-.116 23.107A50.49 50.49 0 0 1 60 109.9a50.51 50.51 0 0 1-3.824-.16V86.508h-2.268l-.002 23.01a49.636 49.636 0 0 1-24.004-9.711L46.11 83.602l-1.603-1.604-16.393 16.39a50.148 50.148 0 0 1-6.77-6.827l16.444-16.282-1.603-1.603L19.936 89.76a49.638 49.638 0 0 1-9.329-22.68l22.88.004v-2.27l-23.151-.001A50.516 50.516 0 0 1 10.1 60c0-1.622.083-3.224.234-4.807l23.152.116v-2.27l-22.879-.113A49.635 49.635 0 0 1 20.26 29.82l16.213 16.213 1.603-1.603L21.68 28.033a50.144 50.144 0 0 1 6.851-6.76l16.272 16.434 1.603-1.603-16.072-16.235a49.63 49.63 0 0 1 23.578-9.387l-.002 23.014h2.268l.002-23.236A50.51 50.51 0 0 1 60 10.1zm-9.625 26.68L36.771 50.378V69.62l13.604 13.604h19.24L83.22 69.62V50.38L69.949 37.11l-.334-.332h-19.24zm9.89 14.722c2.017.05 4.057.83 5.727 2.5 5.344 5.344 1.56 14.482-5.998 14.48A8.482 8.482 0 0 1 51.512 60c-.001-5.196 4.318-8.61 8.754-8.498z"/></svg>
