<svg xmlns="http://www.w3.org/2000/svg" viewBox="0 0 120 120"><path d="M60 7.83C31.201 7.83 7.83 31.202 7.83 60c0 28.798 23.372 52.17 52.17 52.17 28.798 0 52.17-23.372 52.17-52.17 0-28.798-23.372-52.17-52.17-52.17zm-2.182 2.324-4.603 14.162H33.762l-.31.954-.223-.073-5.752 17.719h-14.38c6.736-18.5 24.102-31.875 44.721-32.762zm4.47.002c20.572.928 37.889 14.29 44.612 32.76H92.385L86.595 25.1l-.255-.784H66.885l-4.598-14.16zm-2.237.461 4.818 14.836-2.053 6.317 1.93 1.402 2.14-6.588h17.647l5.531 17.03-5.472 3.976 1.93 1.402 5.24-3.808h15.533l-12.48 9.068h-7.64l-.736 2.268h7.752l5.522 16.988L85.385 83.92l-6.35-4.613-.736 2.267 6.383 4.637 4.609 14.184c-.16.115-.32.23-.48.343l-11.952-8.683-2.72-8.371h-2.385l2.703 8.32-14.406 10.467-14.406-10.467 2.705-8.32h-2.385l-2.719 8.369-12.006 8.722-.133-.095 4.766-14.672 6.049-4.397-.736-2.265-6.295 4.574L20.51 73.475l5.508-16.954h7.753l-.736-2.267h-7.633l-12.484-9.07h15.424l5.295 3.845 1.927-1.4-5.656-4.111 5.502-16.934h17.805l2.162 6.65 1.928-1.402-2.073-6.38 4.819-14.835zm.053 22.274L35.166 51.01l9.525 29.318h30.827l9.529-29.318-24.943-18.12zm-48.33 14.265 12.03 8.74-5.734 17.641-.254.781.692.502-.024.034 15.07 10.949-4.365 13.443C17.567 90.112 10.098 75.938 10.098 60c0-4.442.588-8.745 1.675-12.844zm96.488.127A50.01 50.01 0 0 1 109.9 60c0 15.758-7.301 29.794-18.699 38.938l-4.267-13.135 15.07-10.95-.098-.134.551-.4-6-18.46 11.805-8.576zm-48.158 3.299a8.482 8.482 0 1 1-.004 16.964 8.482 8.482 0 0 1 .004-16.964zm-15.791 43.5 15.072 10.951.115-.158.55.4.555-.402.114.156 15.07-10.947 11.018 8.004A49.667 49.667 0 0 1 60 109.9c-9.848 0-19.02-2.86-26.752-7.779l11.065-8.039z"/></svg>
