<svg xmlns="http://www.w3.org/2000/svg" width="48" height="48"><path fill="#c5c4c4" d="M1.6 22.6c0 8.9 5.3 17.7 13.3 21.6 3.2 1.6 6.8 2.3 10.4 2.1 4.7-.2 9.4-1.7 13.1-4.8 3.8-3 6.3-7.6 7.2-12.4A22.3 22.3 0 0 0 31.7 3.3 23.8 23.8 0 0 0 16.3 3 20.2 20.2 0 0 0 1.6 22.6Z"/><path fill="#b0aeaf" d="M34.3 4.5c0 .4-.3 1.4-.9.9-.5-.6-.8.4-.9.8-.4 0-.4 1-.5 1.4-.2 1-.2 2.2-.5 3.2-.3.6-.4-.4-.5-.7a5 5 0 0 0-.6-2c-.5-.1-.5.9-.6 1.2V11a7 7 0 0 1-2.1.3c0-.6 0-1.2-.2-1.8-.2 0-.4.8-.6.6-.1.8-.2 1.7-.7 2.4-.6.4-1-.5-1.3-.8-.2-.5-1-1-1.2-.2l-.6 2c0-.4 0-1-.5-1.4-.4.3-.4.9-.6 1.3-.1.3-.2 1-.6.4-.3-.3-.6-1-.8-1-.1.6-.1 1.2-.4 1.8-.4 0-.4-.8-.5-1.2l-.7-2.6c-.3-.5-.4.7-.6.1-.3-.3-.6-1-1-1.1-.4.6-.5 1.4-.9 2-.4 0-.2-.8-.3-1.2 0-.4-.3-.8-.3-1.3-.2-1-.2-1.8-.5-2.7-.4-.3-.4.8-.7 1-.2.6-1 .3-1.2.8-.3.5-.3 1-.4 1.6-.2-.5-.2-1.2-.8-1.3-.6.1-.9.7-1.5.7-.5-.2-.6-.9-.7-1.4l-.2-1c-.2.6-.3 1.3-.8 1.7-.5.2-1-.4-1.4-.6-.5.3-1 1-1.5 1.5a19.8 19.8 0 0 0-4.6 12c-.4 9.2 5 18.4 13.2 22.6 3.2 1.6 6.9 2.4 10.5 2.1 4.7-.2 9.4-1.7 13.1-4.8 3.8-3 6.3-7.6 7.2-12.4A22.3 22.3 0 0 0 34.4 4.5Z"/><path fill="#9e9c9d" d="M40 8.8c-.3.9-.4 1.8-.9 2.6 0-.8 0-1.5-.3-2.2-.3-.1-.9 0-1-.3v2L36 12.3c0-.3-.3-.5-.3 0-.1 1.2 0 2.5-.2 3.8l-.6-.2-1.5 5.4c-1-.7-2.2-1-3.3-.6-1.6.5-2.8 1.8-4 3-.5 0-.5-1-.6-1.3-.2-.3-.1-1.1-.6-1.1-.3.5-.4 1.2-.5 1.8-.4 0-.9.9-1 .2-.3-.8-.7-1.4-1.2-2-.4-.7-.5-1.5-.6-2.3-.5 1-.5 2.2-.5 3.3-.1.5 0 1-.2 1.4-.7.1-.5-1-1-1-.3.4-.3 1.4-.6 1.4 0-.3-.3-1.4-.6-.7 0 .4-.1.7-.5.4-.5-.2-1.2-.3-1.6-.7a62 62 0 0 0-1-3.1c-.6 0-1 .4-1.6.2-.8 0-.1-1-.6-1.4-.4-.6-1-1-1.8-1.2-.6-.2-1.3-.6-1.5-1.2-.2-.2-.3-.8-.4-.2 0 .5-.6 1.1-1 .5-.2-.3-.6-.5-.7-.5 0-.7 0-1.5-.3-2.2-.5-.2-.5-.8-.7-1.3-.4-.4-.6-1.2-1.2-1.3-.4 0-.9-.4-1 .2a20.4 20.4 0 0 0-3.2 12.6c.6 8.3 5.8 16.3 13.3 20 3.2 1.6 6.8 2.3 10.4 2.1 4.7-.2 9.4-1.7 13.1-4.8 3.8-3 6.3-7.6 7.2-12.4a22.3 22.3 0 0 0-5.7-20.4z"/><path fill="#8b8989" d="M43.2 13.2c-.3.4-.3.9-.3 1.4l-.2 4c-.4 0-.8 1-1 .6l-.9-5.1-.3 6.6.6 3.5V27c-.1.4 0 1.2-.5.8-.6 0-.8-.4-1-.9-.2-.1-.5-1-.5-.3V29l-.8-.2-1.1 1.6c-.3 1-.4 1.9-1 2.7 0 .2-.7.2-.3.2-.6 0-.9-.6-1.2-1-.2-.3-.4-1.4-.8-.7-.2.3-.1-.7-.3-.2-.4.4-.7 1.2-1 1.3-.5-.3-.8-1.2-1.2-1.3l-2 2.3-.7-1.5c-.4.3-.3 1.1-.4 1.7 0 .6-.9.2-1.3.3h-1.5c-.6.5-1.2 1-1.9 1.3v1c-.5 0-.3-.7-.5-1-.3-.4-.2-1.2-.6-1.3-.4-.3-1-.6-1 .1-.2.4-.2.4-.2 0l-.2-1.7-.8 2.8-.6-1.2-.4 2.6c-.2.2-.2-.6-.3-.8-.2-.5-.2-1-.5-1.3-.4 0-.3 1.4-.7.6-.4-.5-.7-1.2-1.4-1.3-.3-.2-.1.3-.2.5v1.3c-.1.2-.7 1-.7.6v-.8c-.3.4-.7 1-1.2.6-.2 0-.5.1-.7-.2-.6-.6-.7.7-.8 1 0 .3 0 1-.1.4l-.8-3.1c0 .4-.2 1-.7.8-.3.1-.3.9-.3.8l-.5-4-.4 2.7c-.4-.3-.9-1.2-1-1.3v1l-2-.7.1-2c.2-1 .4-2 .9-3 .1-.5.7-.4 1-.4v-1.8c-.3-.7-.6-1.7-1.4-2-.7-.2-.8-1-1-1.6 0-.5-.4-.9-.7-1.2-.4-.5-1-1-1.7-.8-.6.3-.8 1-1 1.5l-.5-4c-.1.2-.2 1.2-.5.5 0-.1-.3-.7-.3-.2l-.2 2.6-.1 1.4c0 5.7 2.2 11.2 5.8 15.5l1 1.2A21.7 21.7 0 0 0 28.8 46a20.6 20.6 0 0 0 17.1-19 22.5 22.5 0 0 0-2.7-13.7zM5.9 30.3c.4.3.4 1 .5 1.4L6 34.4 5.4 32c.2-.3.2-1 .3-1.4 0-.1 0-.3.2-.4z"/><path fill="#777576" d="M45.6 27.5 44 27c-.2.3-.7 1.1-.9.3-.1-.3-.2-1-.5-.5-.5.4-.7.8-.8 1.4l-.7-1.2c-.1.4 0 1.2-.5.8-.3 0-.7-.4-.6 0v1.6c-.2.3-.1 1.2-.5 1.1-.3-.4-.3-1-.5-1.4l-.7-.2-1.1 1.6c-.3 1-.4 1.9-1 2.7-.5.6-1.1-.2-1.3-.6-.3-.3-.4-1.1-.8-1.2-.1.4-.4.4-.4 0L32.6 33l-1.1 2.5c-.6 0-.7 1-1 1.4-.2.7-1 .3-1.1-.3-.4.9-1 1.6-1.4 2.4-.4.5-.8 1-1 1.7-.6-.4-1-1-1.5-1.5 0 .3-.2 1.4-.6.7-.4-.9-.4-1.9-1-2.7 0-.4-.7-1-.7-.2l-.3 2.3-1.8-.7c-.4-.6-.6-1.4-.8-2-.4.3-.2 1-.7 1.3-.3-.1-.4-1.4-.5-.6-.3 1-.3 2.2-.7 3.2-.2.6-.7 0-.9-.4-.3-.3-.6-1-1-.9l-1 1.4c-.3-.5-.7-1-.8-1.5l-.6-2.9c-.3.4-.7-.8-1 0-.4 1-.4 2.2-.5 3.4 0-.3-.3-1-.5-.4l-.4 2.2c-.2-.5-.2-1.1-.2-1.7 0-.5-.2-.7-.6-.7-.4-.3-.7-1-1-1.1L9.1 40a21.5 21.5 0 0 0 21 5.5 20.4 20.4 0 0 0 15.5-18zM4.6 32c-.5 0-.3 1-.8.6 1 2 2.1 4 3.6 5.7-.1-.4-.2-1.3-.4-1.3 0 .3-.2.7-.3.2-.5-1.2-.5-2.4-1-3.6l-.3-1.4c-.4.1-.6-.3-.9-.2ZM8.1 38c-.2.6-.3 1 .2 1.4.2.2.5.6.3 0L8.2 38Z"/><path fill="#646162" d="M45.4 27.4c-.4 1.4-.5 2.8-1 4.1-.2.5-.3-.6-.3-.9 0-.2 0-.8-.4-.4-.6.4-.5 1-.8 1.6-.4.7-1-.3-1-.6l-.2 4.8c-.5-.2-.6 0-.5.4 0 .8 0 1.7-.2 2.5 2.5-3 4-6.6 4.7-10.3-.1-.4.2-1-.3-1.2z"/><g><path d="M35.1 19.4c.3.7 2.2-.2 1.8-.3l-1.8.3zm3.4-.6c-1 0-1.2 1-2 1.3.5.5 1.8 1.5 1.6.2 0-.5.2-1 .4-1.5m-6.5 2c-.4-.1 0-1-.6-.3-.3.3.7-1-.2-.6-1.1-.3-1.5.7-1.8 1.5-.4 0 .6-2-.7-1.4l-4.8.1c-.5 1-1.5-.6-2.4 0-1.1.5.3 2.2 1.2 2 .7.2 1.8-.7 2-.2-1.7 1-3.6 1.6-5 3-.6.6-.9 1.6-.8 2.4.2 1.5 2 2 3.2 1.9 1.6-.3 3.2-1 4.2-2.3-.1 1.1-1.7 2-2.6 2.8-1 .7-2.3 1.2-3.5 1.3-1.4 0-2.8-1.2-2.6-2.6a6 6 0 0 1 1.7-3.8c.5-.7 1.9-1.3 2.1-1.7-1.1.5-2.6-.7-1.6-1.8.3-.6 2-1.4.5-1.1-1.5 0-3-.1-4.4-.3l-1.7 4c-.3.9-1 2-.1 2.8.7.9 1.7-.7 2-.2-.5.8-1 2-2 2.3-1.6.2-1.8-1.7-1.4-2.8.5-1.6 1.3-3.2 2-4.8.2-.6 1.4-1.6 0-1.6-2-.5-4.2-1.3-5.6-3-.4-.4-.5-2.1-.7-.8a4.7 4.7 0 0 1-1.7 3c-.8.6-1.8-.3-2.7 0-.4.3-1.1.4-.6-.3.5-.5.8-1.3 1.6-1.4.8-.6 1.9.6 2.6-.2l.8-4c.3-.7.2-2.2.9-2.4-.2 1.1-.5 2.3 0 3.5.7 1.5 2.4 2.4 4 3a26 26 0 0 0 7.9 1.4h3.6c1.5.2 3 0 4.6 0 .3-.7.2-1.7.4-2.5.4-1.3 1-2.6 2.2-3.3a4.3 4.3 0 0 0 2.4-2.3c.9-.4 1.8-1.1 2.8-1 .5.7 1 2.1 1.9 1 .5-.3 1.2.8 1.6-.2.3 1-1.1 1.4-1.9 1.2-1 1-1.8-.4-2.3-1.1-.6-.2-1.9.1-.8.5.8.4 1.3 1.1.5 1.8-.6 1.1-2.1.6-3.1.9-1 .2-2.5.4-2.4 1.7l-.4 3.3c3.4-.1 6.7-.6 10-1.2 1.5-.3 2.9-.8 4.2-1.4 0 .8-1 1.6-1.9 2-1.2.6-3 .5-3.9 1.4l-.1 2c1.1.5 2.3-.4 2.7-1.4.2-.8.7 1 0 1.1-.6.6-.8 1-.4 1.8.1 1-.5-.8-1.2-.5-.7-.2-1.5-.5-1.2.6 0 1 1 2.2 2 1.8 1-.3 1.1-2.3 2.3-1.6.8.3 1.1-1 2-.6.1-.7.7-.7.3 0-.2 1-1.4.3-1.8 1.3-.7 1-1.9-.4-2 1-.4.7-.7 2-1.8 2-1.1-.1-1.8-1.4-1.7-2.5 0-1 .7-2.5-.7-2.5-.7-.3-1-1-1.5-.1-1.3.1-.4-1.3-1-1.8-.5-.2-2 .1-2.2.3 1.1.5-.6 1.2 0 1.8-.4.6-1 1.6-1.6.7-1-.2.1-2.1.7-1.4.5.5.3.1.5-.3z"/><path d="M33.3 6.4c.1-.6-.4-1.1-.9-.6-.5.5-1.1 1.1-1 1.9 0 .4.6.7.9.3.5-.4 1-1 1-1.6zM19.7 7.7c.7.2 1.5.4 2.3.2.4-.1.9-.3 1.2-.7.2-.4-.4-.9-.8-1-1-.1-1.9.5-2.5 1.2l-.2.3zm-.9 1.9c-.3.7-.7 1.4-.8 2.2 0 1 .6 2 1.5 2.3.7.2 1.4.3 2 .1a5 5 0 0 0 3.3-1.8c.9-1 1.4-2.4 1.5-3.8.2-.8.1-1.7.3-2.5l.8-1.6c0-.3.5-.4.3 0l-.3 1.8-.1 1.2c.2.5.7.7 1.2.8.6.2 1-.6 1.6-.3.3 0 1 .5.7-.1 0-.7.5-1.3 1-1.9a5 5 0 0 1 1.5-1.1c.6-.1.9.7.9 1.1a2 2 0 0 1-.7 1.8c-.1.2-.7.5-.6.7 1.3.2 2.5-.5 3.5-1.2-.1-.7-1.3-1-1.5-1.6.3-.5.8.3 1.1.4.4.3 1.1.6 1 1.2-.1.5-.8.3-1 .7-1 .7-2.2 1.2-3.5 1-.3 0-.5.5-.9.6-.4.2-.9 0-1.1-.4-.3-.3-.5-.9-1-.8l-.8 1.2c-.2.4-.6.8-1 .6-.4 0-.8-.6-1-.4-.6 1.2-1.1 2.5-1.9 3.7-.8 1.1-1.8 2.2-3.2 2.6-1.2.4-2.8.3-3.7-.7a3 3 0 0 1-.6-3c.3-1 .8-2 1.2-2.9-.4-.4-.5.5-.7.7-.5.8-1 1.6-1.6 2.2-.7 1-1.5 2-2.7 2.2-1.3.3-2.8 0-3.5-1.2-.7-1.2-.5-2.7.1-3.9l1.6-2.3c.4-.2 0 .4-.2.6-.5.8-1 1.9-.8 3a2 2 0 0 0 1.3 1.7c1.3.4 2.8.2 3.8-.7.7-.5 1.2-1.2 1.6-1.9l1.1-2.3c.2-.4.6-.2 1 0 .7-.8 1.5-1.6 2.4-2.3.4-.4 1.1-.7 1.8-.6.6 0 1.2.6 1 1.2-.3.6-.8 1-1.2 1.6-.8 1-1.8 1.7-3 2.1h-1.7zm26 16.9-1.2-.8c-.3-.5-1-.5-1.4-.3-.2.2-.6.8-.8.6.1-.3.5-.6.8-.8.6-.6 1.5-.5 2.2 0l1.5 1c.3.2 1.1 0 .8.4-.3.2-.8 0-1.2.2-.8.1-1.5.6-2.2 1-.7.2-1.3.6-2 1l-4.5 2.1c-.9.5-1.9.8-2.8 1.1l-2.6 1-2 .5c-.5 0-1 .1-1.4.3-.8 0-1.7.1-2.5.3H24l-2 .2-4.2-.7c-.7-.3-1.4-.5-2-.9-.5-.1-.8-.4-1.3-.6l-2-1c0-.3-.1 0-.2 0a2 2 0 0 0-1.9.4c-1 .7-1.9 1.7-2.9 2.5-.5.3-1 .7-1.7.7-.3.2-.8 0-.4-.3.5-.1.9-.6 1.3-.8.8-.5 1.6-1 2.1-1.7l1.5-1.6c.8-.6 1.8-1 2.8-.8.7 0 1.4.4 2 .7a16.3 16.3 0 0 0 6 1.9c1 .2 2 .3 3.1.2a30.5 30.5 0 0 0 8.6-1.3c1.6-.4 3.1-1 4.7-1.5l2.5-1 4.7-2m-5.4 7.7V33c-.3-.2-.6-.3-.8-.7 0-.4-.4-.6-.8-.6-.8-.3-1.7.2-2.1 1 .2.6.9 0 1.1-.3.3.1-.2.7-.4.8-.4.2-1 .3-1.3 0-.4 0-1.2-.2-.9-.7.2-.4.6-.1.7-.2.4-.2.8-.4 1-.8.7-.3 1.4-.3 2-.2.5.2 1-.2 1.4-.3.3.1-.2.6-.2.9 0 .2.2 1 .3.7 0-.5 0-1 .3-1.6l.7-1.3c.6 0-.3 1.2 0 1.5.1 1-.1 2-.5 3-.3.4-.6 1-1.2 1-.4 0-.7-.5-1.1 0-.3.3-.8.3-1.1.1-.4-.2-.8-.6-1.2-.1-.6.2-.6 1 0 1.2.4.3 1.1.4 1.3 1 .2.6-.4 1-.6 1.6-.6 1-1.2 2-2.2 2.6-.8.6-1.8 1-2.8.8-.7 0-1.2-.4-1.7-.9-.5-.7-.6-1.7-.5-2.5.1-1 .6-1.8 1-2.6.5-.9 1-1.7 1.7-2.4 0-.1.4-.7.3-.2l-.8 1.2-.8 1.8c-.4 1-.5 2 0 2.8.3.7 1.2 1 1.9 1a4 4 0 0 0 2.6-.9c.4-.1 1-.8.5-1-.5-.3-1-.5-1.3-.9-.4-.5 0-1.1.2-1.6.4-.8.8-1.6 1.7-1.9.5-.2 1 .2 1.6.3.4 0 .6-.4 1-.6.4-.4.5.3 1 .2z"/><path d="m32.2 26.6-3.3-.1c-.4-.2.2-.7.3-1l1.6-1.7c.5-.3 1-.8 1.7-.6.3.2.8.7 1.2.3.4-.4.8-1.2 1.4-.7.6.3.8-.4 1-.8.4.4-.2.9-.4 1.2-.2.4-.5 1-1 .7-.8-.4-1 1.2-1.8 1-.5-.2-.9-.7-1.4-.8-.5.1-.7.5-1.1.8a6 6 0 0 0-1 1l2.5.2c.4.1 1.2-.4 1.2.3L31.7 28c-.7.8-1.5 1.8-2.8 2-.6.1-1.4-.2-1.7-.8-.5-1.2-.4-2.6-.3-3.9 0-1.3.2-2.5.5-3.8.1-.5.4-.9.4-1.4.4-.5.3 1.4.1 1-.2 1.6-.6 3.2-.5 4.8.1.6.3 1.3.8 1.8.6.5 1.5.4 2.2.1.7-.3 1.3-.7 1.9-1.2zm-12 7.9-.2 1.4a9.2 9.2 0 0 1-1 3.6 7 7 0 0 1-2.5 2.9c-.8.4-1.7.5-2.6.4-1-.2-2-1-2.2-2.2-.2-1.1.3-2.2.9-3.2.3-.7.8-1.3 1.3-2 .5.2-.3.7-.3 1-.6.9-1 2-.6 3.2.4.9 1.5 1.3 2.4 1.4.8 0 1.5-.1 2.2-.5.5-.2 1-.7 1-1.2.3-1 .4-1.9.4-2.8.1-.8.7-1.4 1-2h.1zM14.4 7.8l-.9.3c-.1.6.4 1.5 1.1 1.5.5 0 .9-.3.9-.8s-.2-1-.8-1h-.3zm0-2.9c.3.4-.4 1-.5 1.5 0 .1-.3.9 0 .4.3-.4.8-.5 1.2-.7.5 0 1.2-.2 1.5.3.5.5.4 1.3 0 1.9-.5.8-1.1 1.5-1.8 2.2-.4.4-1 .9-1.6.8-.6-.2-.9-.8-1-1.4 0-.8.4-1.6.6-2.4.3-1 .9-1.8 1.6-2.6Zm14.2 32.6c0 .5-.5.8-.8 1.1-.3.2-.7.2-1 0-.3.4-.6 1-1.1 1-.4 0-.8-.2-1 .3-.3.3-.7.6-1 .3-.5-.2-.6.5-.8.8-.3.4-.5 1-.9 1.4-.7.6-1.8.1-2-.7-.3-.8 0-1.7 0-2.6.2-.8.2-1.7.3-2.5l.7-1.7c.3.2.2 1 .2 1.3a12 12 0 0 0-.4 3.5c0 .5.5 1 1 1s1-.2 1.2-.6c.2-.5.7-1 1.3-.6.5 0 .7-.7 1-1 .4-.3 1 .5 1.2 0 .4-.3.3-1.3.9-1.1.3.3.8.9 1 .2 0-.1.1-.1.2 0M5.2 24.7c1.7-1 3.6-2 4.9-3.6l1.6-2.3c.4.4-.5.9-.5 1.3-.1.5-.5 1-.4 1.4 0 .7 1 1.2 1.5.7.2-.2.6-.4.5 0l-1 1.8c-.5.4-1.3.4-1.8 0-.4-.4-.4-1-.4-1.5l-1.4 1.5c-.5.3-1.1.3-1.7.5l-1 .3-.3-.1m29.2 2.8c0 .2 0 .7.4.8.5.3 1 0 1.3-.4.5-.5.3-1.2-.3-1.4-.4-.1-1-.3-1.2.1l-.2.9zm-.1-.8c-.5-.2 0-.8 0-1.2.2-.5.4-1 1-1.1.7-.2 1.6 0 1.8.7.3.8 0 1.6-.3 2.3-.3.7-.7 1.6-1.5 1.9-.7.1-1.6-.4-1.5-1.2l.5-1.4z"/><path d="M18.6 35.8c-.2.2-.4.3-.7.2-.1 0-.3-.2-.2 0 .2.3.6.2.7 0l.2-.2zm-.5.1c.2 0 .4-.3.2-.5-.2 0-.5 0-.6.2 0 .2.2.3.4.3zm-1.8-.2.7-.6.8-.4c.3 0 .7.2.9.5.2.3.2.7 0 .9-.3.3-.8.4-1.1 0-.1 0-.2-.4-.4-.2-.2.1-.5.4-.4.6.2.4.4.7.3 1l-.3.6.2.6.2.7c0 .2-.3 0-.4-.2l-.5-.5c-.3-.2-.7 0-1-.1h-.9v-.3l1.2-.1c.2 0 .4-.3.2-.4-.3-.2-.1-.5-.1-.8-.1-.2.1-.4.2-.6l.3-.6c-.1 0-.4-.2-.4-.5l-.2-.7-.6.7c-.1.2-.5 0-.4-.2.3-.5.5-1 1-1.3.3-.2.5 0 .6.3.2.5.2 1 .1 1.6zm9-1 1.2 1c.4.3.3.9 0 1.2l-.8.4h-.5l-.9-.7c-.2 0-.3.3-.5.4l-.6.7c-.2 0-.4-.2-.5-.3l-.9-.5.2-.6.8-1.2c.3-.1.4.3.6.4l.9.5c.2 0 .3-.3.5-.5l.5-.7zm9-18.8c-.4 0-.7-.3-1-.5a.3.3 0 0 0-.5 0c-.2.2-.4.5-.7.6-.2.1-.5-.1-.7-.2-.2-.1-.6-.2-.4-.5l1-1.5c.3 0 .5.3.8.4.2 0 .6.4.8 0l.5-.7.5.2 1.2.8c.2.3-.6.6-.6.8-.3.1-.5.6-.9.6zM7.9 30.2c-.3 0-.5-.1-.7-.3-.2-.1-.5-.4-.4-.7 0-.2.2-.4.4-.6.3-.4.6-.9 1-1.2H9c.4.4.5 1 .5 1.5 0 .6-.5 1-.8 1.4l-.9 1c-.3.3-.7.3-1.1.2-.4-.2-.8-.1-1.2-.2-.3 0 0-.4.1-.3.8 0 1.7 0 2.4-.5v-.3m20.3-18.7-.7 1c-.2.3-.5.5-.6.8l-1.4 2.4-1 1.2c-.3.3-.8.3-1.2.4l-1.2.2c-.4-.1.2-.5.3-.4a7.3 7.3 0 0 0 4.1-3.5c0-.2.4-.4.3-.7l-.7-.8c-.1-.2.1-.4.2-.5l.8-1.2c.2-.1.3.2.5.3l.5.6.1.2z"/><path d="M39.7 12.2c0 .5-.3 1-.6 1.3-.4.4-.8.9-1.4.9-.5-.2-.8.5-1 .8l-1.2 1.5c-.5.4-1.2.4-1.9.4l-1-.1c-.4-.4.4-.5.7-.6l2.4-.9c.6-.5 1-1.2 1.6-1.8.2-.3.6-.7 1-.7.5 0 1 0 1.2-.5 0-.1.1-.4.2-.3zm-19.2-.4c0 .4.7.5 1 .3.3-.2.2-1-.2-1-.5 0-.7 0-.8.7m.6-1.6c.4.2.7.5 1.1.4.6 0 .6.8.3 1.1.2.4.2 1-.4 1.2-.2 0-.4-.2-.6 0-.4.5-1.1.3-1.2-.2-.2-.5-.9-.8-.7-1.4.1-.6.9-.3 1.1-.8.1-.2.3-.3.4-.3zm2 16.3c0-.5-.5-1-.9-.5-.3.3 0 1.2.6 1.1.3 0 .3-.4.3-.6zm-1.4-.3c-.3-.3 0-1 .3-1.2.2 0 .4.4.7 0 .3-.2 1-.3 1.1.3.3.4-.3.8.2 1 .2.3.5.8 0 1-.5 0-.8.2-.8.6 0 .4-.4.4-.6 0-.2-.6-1-.2-1.3-.8 0-.3.2-.6.4-.9zm21.8-3.7L42 21.3c-.2-.5.7-1 .3-1.3-.3-.4-1-.6-.8-1 .2-.4.3-1 .6-1 .3.3.8.5 1 .9.3.4-.3.9-.1 1.3.3.2.7.4.9.8 0 .5-.3 1-.5 1.5zm-41 6.4.1.4c.1.2 0-.1 0-.2l-.1-.2zm-.3-4.6a17.7 17.7 0 0 0 2.5 9.1c.5.4-.2.8-.4.3-.7-.7-1-1.6-1.4-2.4L2.3 29 2 25.9v-1.4c0-.2.2-.2.3-.2m24.7-7.2c.1-.5.4-1 .6-1.4l.8-3c.1-.6.2-1.2.6-1.7l.7-1c.4 0 0 .7 0 1l-.9 3c-.3 1-.9 1.8-1.4 2.7 0 .2-.2.3-.4.4zm13.6 19.7-.7 1.3c-.4.1-1-.9-1.1-.2-.2.4-.4.7-.7.4-.3-.2-1-.3-.8-.7.2-.4.3-.9.6-1.2.4 0 1 .7 1.2.3.1-.2.2-.5.4-.6l.9.5.2.2zM3.8 20.4l-.4.5c-.2.4.3 1 .7.6.4-.4.3-1-.3-1m1 .4c.4.3.3 1-.2 1.1-.3 0-.4.7-.9.4-.2-.3-.7-.3-.9-.7l-.1-1c0-.7.6-.6 1-1 .3-.3.6.1.9.3.5 0 .5.6.3 1"/><path d="M4.4 27c-.4.1-.7.4-.7.8 0 .2.3.3.5.3.3-.1.5-.4.6-.6 0-.2-.1-.3-.3-.3l-.1-.1Zm-.8-.1c0-.2 0-.5.2-.6 0-.1.3-.1.4 0l.5.2c.2 0 .4 0 .5.2l.1.5c.1.2.3.4.2.7 0 .1 0 .2-.2.3l-.4.4c0 .2-.3.4-.5.3l-.4-.2h-.4a.6.6 0 0 1-.4-.5v-.8c-.1-.1-.1-.3 0-.4l.4-.1zm4-4 .2-.6.4-2 .2-1.3.8-1.3c0-.2.2-.3.3-.5 0-.1.2 0 .2 0l-.1.7-.6 2.6c-.1.6-.5 1.2-.8 1.7l-.5.7h-.1m5.5-1.8c.2 0 .5-.1.4-.4 0-.2-.2-.4-.4-.4-.1 0-.3 0-.3.2-.1.2-.1.5.1.6h.2zm-.6.4c-.3 0-.4-.3-.5-.5l.1-.4v-.8c.2-.2.5-.3.7-.2l.5-.1c.2 0 .4.2.5.4l.2.3c.1.1.3.3.2.5v.5l-.1.5-.4.2-.3-.1h-.7c-.1 0-.2 0-.2-.2v-.1m-.9 10.7c.5 0 1 0 1.5.3l.6.3.5.6v.4l-.4-.1c-.4-.4-.8-.7-1.3-.9h-2l-.6.6-.6 1c-.3.4-.4.9-.6 1.4-.1.1-.2.3-.1.4-.1 0-.3.1-.4 0V36c.4-.8.7-1.7 1.2-2.4l.6-.9c.4-.3.9-.4 1.4-.5h.2zm-1.1-5.1c-.2 0-.4 0-.4.2v.5c0 .2.2.1.3 0 .2 0 .4-.1.4-.3.1-.2-.1-.5-.3-.4m.8.8c.1.2.2.5 0 .6 0 .2-.3.2-.5.2l-.3-.2h-.4c-.3 0-.6-.3-.6-.6 0-.1.1-.3 0-.4l-.2-.5c0-.2.2-.3.3-.4h.7c0 .1.2.1.2 0 .1-.1.3-.3.4-.2.3 0 .4.2.4.4l.2.4c.2.2.2.4 0 .5 0 .1 0 .2-.2.2zM33 36.5c0 .3-.1.6 0 .8l.2.6-.2.3-.7.5c-.1 0-.2 0-.2-.2l-.1-.2-.6-.1-.2-.3.2-.4v-.3c-.2-.2-.3-.4-.3-.7l.3-.1c.2 0 .3.2.4.3l.5-.1c.2-.1.3-.3.5-.3s.2.1.2.2M15.3 16c.2 0 .4-.2.3-.4l-.5-.2c-.2.1-.2.5 0 .6h.2m-.4.4h-.5l-.2-.4.2-.3c.2 0 0-.2 0-.3v-.5c0-.2.2-.3.4-.3h.8c.2 0 .4.2.5.4 0 .2 0 .4.2.6.1.3 0 .7-.3.8-.1 0-.3 0-.4.2 0 .2-.5.3-.6 0l-.1-.2zm13.3 18.8c0 .2.2.3.4.3s.6-.2.6-.5c0-.1 0-.3-.2-.4h-.4c-.2.1-.4.3-.4.6zm1.3.4c0 .2 0 .5-.2.6h-.5c0-.2-.2-.1-.3 0H28c-.3 0-.4-.4-.3-.6l-.1-.6c-.2-.2 0-.5.2-.7h.6c.1.2.2 0 .3-.1 0-.2.2-.3.4-.2.1 0 .3.1.3.3 0 .2 0 .4.2.4.2.1.3.3.3.5s-.2.3-.3.3v.1m-2.8-14.7c.1 0 .3.2.2.4l-.2.4-.2.3V23.2l-.1.5c-.1.2-.3.3-.5.3l-.3-.1c.2 0 .4-.2.4-.4.1-.2.1-.6 0-.8l-.4-.7c-.1-.1-.4-.2-.4-.4v-.4l.3-.3c.2 0 .2-.3.4-.4l.5-.2c.2 0 .4.3.3.5zm-1.3-17c-.2 0-.4.2-.5.4 0 .2.1.5.4.6.1 0 .3-.1.3-.3.1-.1.2-.3 0-.5 0-.1 0-.2-.2-.2Zm-.9.7-.4-.4c0-.1 0-.3.2-.4l.3-.3.5-.2h.6c.2 0 .4.3.4.5l.3.9c0 .2-.2.4-.4.4l-.1.3c0 .2-.1.3-.2.3-.2 0-.4 0-.5-.3-.2-.1-.4 0-.6-.2l-.2-.4.1-.2zM7.5 20.4c.1 0 .2.2 0 .3 0 .3-.2.7-.4 1l-.3.4c0 .2 0 .4-.2.5l-.4.8c-.3.3-.7.5-1 .6l-1 .5-.7.2c-.1 0-.3 0-.3-.2l.3-.2 1-.5 1.4-1c.6-.6.9-1.3 1.3-2l.3-.4z"/><path d="M12.7 33.8c.5 0 .6.4.3.7l-1.5 3c-.1.3-.2.9-.6.7-.2-.2 0-.6.1-.8l1.4-3.4.3-.2m16.7-10.3c-.2.1-.2-.3-.3 0-.4.2.5.4.3 0m.5-1.5c.3 0 .5.3.5.6.1.4.9 0 .8.4-.4.2-.9.2-1.1.6-.2.4-.7.7-1.2.6-.4-.1-.6-.5-.5-1 .2-.4.8-.5 1.2-.3.1 0 .3.4.3 0v-1m-11.6-1.3c-.4.1-.7.4-1.1.6l-1.5 1.2c-.3.3-.1.7 0 1l.1 1.8c0 .4.4.8.7.5.7-.5 1.4-1.1 2-1.9l-.1-.9c-.1-.8-.2-1.6-.1-2.3zm-3 1.8 1.8-1.4 1.2-.6c.4 0 0 .5.1.8l.3 2.6c-.2.6-1 1-1.4 1.5-.3.3-.8 1-1.3.5-.5-.4-.4-1-.5-1.6l-.1-1.8m17.6-.7c-.2 0-.4.4 0 .2v-.2zm-.7.3.7-1.2c.2 0 .5.3.8.5.3.2.7.5 0 1l-.3.4c-.2.3-.6-.2-.7-.4 0-.2-.3-.2-.5-.3zM11.4 34.2c-.4 0-.7.3-.9.7l-.9 1.4c-.3.4-.6-.1-.2-.4.5-.8.8-1.7 1.2-2.6.3-.3 0 .5.4.5.3 0 1-.1.6.3l-.2.1m16 10c-.4 0-.7-.5-.7-.8 0-.4.6-.5.9-.2.2.2.4.7 0 .9h-.3M18 43c.3 0 .7.1.6.5 0 .4-.7.6-1 .3-.2-.3 0-.8.3-.8h.1m14.2-.5c.4 0 .8.4.4.7-.3.2-.8.3-1 0-.2-.4.3-.7.6-.7zm-7.7 1.4c0 .4-.3.7-.7.5-.3 0-.5-.6-.2-.8.3-.3 1-.1.9.3m2.4-2c0 .4-.4.8-.7.6-.3-.2-.3-.6 0-.8.1-.4.7 0 .7.3m2.5 1.2c0 .5-.6.9-1 .5-.3-.4.3-.8.7-.7l.3.2zm13.3-10c.6-.1.5.6.2.8-.2.4-.7.2-.6-.2 0-.2.2-.6.4-.6zM7.2 36.9c0 .4-.5 0-.6-.1-.1-.3-.4-.9 0-1 .3.2.4.6.5.8l.1.3zm15 6.6c.4-.1.7.5.3.7-.2.2-.8.1-.8-.3 0-.2.3-.4.5-.4zM16 30c-.4 0-.6-.7-.2-.8.3-.1.7.2.7.5-.1.2-.3.3-.5.3zm-5.5 6.8c0 .4-.6.5-.7.1-.2-.3.2-.7.5-.7.2.1.1.4.2.6m15 7.6c-.5 0-.6-.6-.1-.7.2-.2.6 0 .5.3 0 .2-.3.4-.5.4zM8.8 38.8c0-.4.4-.5.7-.3.4.2 0 .9-.4.6l-.3-.3M43.7 32c0 .3-.3.7-.7.7-.2-.2 0-.7.2-.9.2-.2.4 0 .5.2zM42 35c0 .3-.4.6-.7.3-.2-.3.3-.7.6-.7l.1.3zm-11.6 8.5c-.4 0-.7-.4-.3-.6.3-.2 1 .1.6.4l-.3.2M8.4 38c-.3 0-.7-.3-.5-.6.2-.2.6 0 .8.2 0 .2-.1.5-.3.4M41 36c.4-.2.3.4 0 .6-.1.3-.7 0-.5-.3 0-.2.2-.4.5-.3zm-7.6 6.5c0-.4.5-.6.7-.3.1.3-.1.6-.4.6-.2 0-.3-.1-.3-.3zm2.7-1.4c0 .3-.6.6-.8.2-.2-.3.2-.5.5-.5.1 0 .3.1.3.3m1.3-1.4c0-.3.1-.6.5-.5.3 0 .2.5 0 .6-.2.1-.5.2-.5 0zm-17.1 4.6c-.5 0-.5-.7 0-.6.4-.2.6.4.2.6h-.2zm-3.7-.8c-.4 0-.4-.5 0-.6.4-.2.6.4.2.6h-.2m2.8.3c0 .4-.5.6-.7.2-.2-.4.6-.6.7-.3v.1zM9.8 40c0-.4.5-.3.7 0 0 .3-.5.6-.7.2V40zm24.8 2.2c-.4-.2 0-.9.4-.6.4.2 0 .6-.4.6zm-23.4-1.6c.5 0 .3.5 0 .6-.5 0-.5-.7 0-.6zM37 40c.4.1 0 .7-.4.6-.3-.2 0-.6.3-.6zm7.3-9.6c-.1.2-.3.7-.6.6-.2-.3.1-.9.5-.7v.1zM38.6 39c-.5 0 .1-.7.4-.4.1.2-.2.4-.4.4zM32 20.7c-.1 0-.2.2-.3 0-.2 0-.3-.1 0 0h.3z"/><path d="M16.4 24.8V24a8 8 0 0 1-.2-1.2l.6-.6c.2 0 .3-.4.5-.3.2.2.1.4.2.6 0 .4.2.8 0 1-.2.5-.6.8-1 1.2"/><path d="M46.7 24.1c-1 2.8-.6-3.1-1.1-4.3A23 23 0 0 0 30 2.8c-7.6-2-16.3 0-22.2 5.4-5.7 5.4-6.7 14.2-4.5 21.5 3 9.2 12.4 16.6 22.4 15.6 8.8-.5 17.1-7.1 19.2-15.8 1.1-2.6 1.3-7.6 2-8.8a28 28 0 0 1-3.7 16.7A23.1 23.1 0 0 1 24 47C11.6 47 1 35.6 1 23.5A20.7 20.7 0 0 1 8.4 6.4C16.1.5 27.5-1.1 36 4c6.5 4 11.4 11.4 11 19.3 0 .2 0 .6-.2.7"/></g></svg>
