<svg xmlns="http://www.w3.org/2000/svg" width="48" height="48"><defs><clipPath id="a" clipPathUnits="userSpaceOnUse"><path d="M85.372 47.031c0-9.209 7.466-17.832 16.675-17.832 10.531 0 16.676 7.466 16.676 16.675 0 9.21-7.466 16.676-16.676 16.676-9.209 0-16.675-6.309-16.675-15.519"/></clipPath></defs><g clip-path="url(#a)" transform="matrix(1.33333 0 0 -1.33333 -112.236 85.282)"><path fill="#c5c4c4" fill-rule="nonzero" d="M75.442 80.048c.326.041.634.241.96.431.198-.376.413-.76.61-.984.055-.025.109-.043.163-.063.287-.41.575-.665.862-1.08.199-.067.415-.145.614-.214l.087-.804c.2.24.399.474.599.56.07-.485.122-.976.173-1.457.113.58.242 1.31.354 2.044.199-.066.415-.145.614-.22l.003.778c.488-.018.978.12 1.466.252.81-.592 1.62-1.192 2.433-1.633l-.011-2.317c.162-.06.343-.123.523-.186.004.771.008 1.546.01 2.32.453-.006.924.14 1.377.284.18-.06.36-.123.523-.185.474-2.955.362.028.523-.186.195-.839.39-1.684.603-2.535.072-.028.162-.055.253-.09.178-.523.338-1.045.516-1.576 1.085-.073 1.747-1.388 2.686-1.724.58.414 1.762 1.703 2.137-3.077.389 2.032.782 1.117 1.144 1.141-.03-2.312.265-1.333.423-2.319.108-.032.234-.078.343-.117.18-.066.343-.124.523-.184.163-.06.343-.123.524-.183.577-.208 1.155-.418 1.732-.618.197-.38.394-.76.592-.984.2.083.417.32.618.552.199.093.398.328.598.411.22.543.42.94.62 1.332.037-.012.055-.018.092-.034.253.066.525.277.779.497.29.05.58.261.87.47.179-.374.34-.743.52-.96.23 2.704.605 1.801.874 1.081.488.142.976.28 1.464.26.185.861.372 1.881.539 2.754.03-.938.062-2.037.076-2.97.47.144.922.137 1.393.277l.022 4.491c.348 1.111.45 3.558.545 4.298.199.083.399.323.598.407.645-1.315.999-2.682 1.209-.43.418.475.818.793 1.235 1.112.588-1.914.95-1.728.942.442.126-.043.234-.083.36-.128.289-.102.579-.199.868-.307.514-1.886.617.56.692 1.153.234-.086.47-.168.686-.248.289-.1.595-.204.867-.306.483-.79.402 1.097.71 1.3.16-.524.339-1.049.516-1.73.055-.025.109-.04.163-.06.177 2.88.515 1.833.71 1.296.056-.018.11-.039.164-.057.12 2.75.389 1.876.53 1.362.059.906.118 1.818.196 2.874a22.07 22.07 0 0 1 .678-1.792c.18-.06.342-.122.523-.184.059.91.118 1.976.177 2.884.178-.532.356-1.059.516-1.579.324-.424.629-.844.954-1.112.027-1.715.036-3.576.064-5.29-.147-.564-.295-1.287-.443-2.009-.036.013-.055.018-.09.034a414.131 414.131 0 0 1-.16 4.544l-.505.176c-.242-1.614-.528-.74-.715-2.068-.16.68-.338 1.204-.516 1.728-.2-.233-.4-.317-.6-.558-.11-.426-.24-.846-.35-1.27-.18-3.655-.428-2.636-.628-2.877l-.01-2.167c-.054.023-.108.04-.18.07-.252.238-.503.641-.773 1.045-.358.747-.497-1.993-.613-3.499-.182-.245-.364-.493-.527-.594-.108.2-.233.551-.34.897l-.188-1.483c-.52.655-1.042 1.297-1.544 2.1a134.468 134.468 0 0 0-.376-2.81c-.213.538-.446 1.082-.678 1.634-.236-.073-.454-.303-.69-.532-.091.035-.18.061-.27.095l-.007-1.393c-.252.246-.522.651-.773 1.05l.006 1.39c-.5 1.108-.494-1.372-.786-1.887-.2-.24-.418-.472-.617-.559.144-3.923.573-4.847.766-2.44.072-.023.127-.038.18-.062.175-1.148.333-2.13.509-3.274-.641-5.2-1.143-.84-1.661-3.135-.558.51-.663-6.267-1.241-2.5-.48 1.716-.79 1.358-.873-1.088-.507-.125-1.032-.254-1.556-.222-.114 2.675-.306.42-.52.956-.984-5.384-1.886 2.524-2.87-2.702-.422 2.318-.648.385-1.05-.404-.288.257-.575.671-.863 1.08-.474-4.633-.925 3.117-1.55 1.171-.268.402-.52.804-.771 1.045-.363-.333-.901-3.239-.96-.435-.327-.19-.397 3.861-.855 2.625-.497-1.836-1.175.103-1.494-2.41-.602 2.845-1.764-1.856-2.413 2.247-.518-2.6-1.394-.437-2.082-.66-.144.05-.288.105-.433.155.026 1.692-.21 1.468-.336 1.514-.127-.113-.286.72-.364-.645.01-1.249-.238-.38-.495 2.496l.004.771c.149.88.28 1.764.447 2.787-.224 2.244-.405 2.313-.596 3.93-.04-.762-.061-1.528-.101-2.289-.148-.565-.295-1.288-.444-2.009-.103.963-.225 2.095-.33 3.054-.441 1.863-.23-2.858-.54-3.524-.247 1.326-.511 2.658-.758 3.983-.583-.87-1.036 2.697-1.552.556-.067 1.258-.114 2.518-.162 3.772-.182-.09-.346-.34-.528-.589-.287.408-.574.822-.862 1.08-.174-2.26-.684-3.01-.686.24-.29.102-.578.21-.867.31-.186-1.17-.355-2.352-.541-3.526.113-2.826-.274-4.393-.541-3.526-.05.945-.1 2.05-.15 2.994-.127-.42-.237-.845-.366-1.265-.104.812-.228 1.476-.332 2.29l-.344.123c-.18.063-.342.117-.523.185-.437-.622-.53-1.21-.696-1.926l-.015-2.94a153.468 153.468 0 0 1-.357-2.97c-.473-.449-.807 1.371-1.22 1.983-.57 1.747-.336 5.382-.398 7.58-.144.046-.288.097-.433.147-.065 1.573-.148 2.995-.231 4.574-.04 2.96.358 2.97.7 2.696"/><path fill="#8b8989" fill-rule="nonzero" d="M74.61 31.24c.401.632.801 1.273 1.22 1.893.327.353.636.703.964 1.054.054-.02.108-.036.162-.057.083-1.424.166-3 .25-4.582.393-.76.214 3.333.454 4.336.308.193.634.24.96.43.143-.36.27-.56.43-.925.065-1.414.148-2.994.231-4.572.414-.3.901-.63 1.064 3.342.055-.025.11-.04.163-.06.237.536.425 2.017.711 1.295.197-.536.392-1.069.59-1.757.183.711.35 1.427.533 2.135.2-.066.397-.14.613-.216.133 1.193.145 3.824.026 5.101.343.19.688.378 1.032.413l-.036-7.428c.643-5.338 1.466.257 2.336-2.994.926-2.803 1.723 1.248 2.501-2.429-1.367-2.3-2.729.032-3.735-2.402l.003.775c-.618-.71-1.274 2.002-2 1.483-.402-.94-.753-2.519-.862 1.08-.144.052-.289.101-.433.157-.056-.288-.112-.583-.167-.722-.216.234-.412.617-.61.995a2667.01 2667.01 0 0 0-.018-3.718c-.493-1.213-.643-2.247-.794-3.429-.613.213-1.209.425-1.822.644-.153 1.914-.33 2.597-.683.864a992.942 992.942 0 0 0-3.628 4.998c.188 1.48.358 2.971.545 4.295"/><path fill="#777576" fill-rule="nonzero" d="M80.199 20.438c.15 1.182.3 2.216.794 3.43l.018 3.716c.197-.377.394-.76.61-.995.055.14.11.435.166.723.144-.057.289-.105.433-.158.109-3.598.46-2.02.863-1.079.725.52 1.38-2.194 2-1.484l-.004-.774c1.006 2.433 2.369.1 3.736 2.402-.778 3.677-1.575-.374-2.502 2.43-.87 3.25-1.692-2.345-2.335 2.993l.035 7.428c.11.266.237.381.347.648.14-.82.28-1.648.423-2.317.27-.405.1 2.134.285 2.845.235-.084.45-.163.685-.248.488-.172.975-.34 1.48-.52.259 1.15.634.24.96.43.16-.67.339-1.203.499-1.72.44-2.325.638-2.705.786-1.828a57.55 57.55 0 0 0 .495-2.345c.129.42.239.846.369 1.423.195-.694.392-1.226.588-1.765.238.698.477 1.384.714 1.921.216-.236.449-.628.683-.86.144-.052.289-.102.433-.152.23-4.579.336 2.05.866-.308.02.46.059.905.097 1.36.339 2.67.78.648 1.037 1.18.177-.839.335-1.67.512-2.507.179-.212.34-.583.52-.802.256.378.529.746.783 1.116.036-.014.054-.016.09-.028.325-.269.63-.69.953-1.114.577-.517.623 1.64.954 2.76.498-1.725.598.257.797.341.48-1.568.625-1.617.769-1.668.397-.14.812-.286 1.209-.43.112.736.209 2.098.354 2.047.072-.029.126-.045.18-.069.162-.21.34-.582.52-.956.214-.694.62-2.695.935-.95.36-.438.7-.869 1.043-1.14.385.945.656 1.005 1.058 1.791.255.38.51.747.783 1.274.824-1.534 1.018 1.03 1.56.84l.877 2.015c.273.361.528.742.783 1.114.104-.807.327.35.523-.186 1.037-2.379 1.584-1.332 2.083.812.29.363.6.715.874 1.242l.523-.187c.46-2.019.52-.803.704-.249l.007 1.393c.253-.09.505-.18.776-.274.019.302.057.444.094.74.16-.365.34-.585.502-.952.073.285.129.417.184.71.199.084.417.317.616.554.108-.347.233-.7.34-.897.163.102.345.348.528.587.342-.116.685-.239 1.028-.359-.46-1.7-.747-5-1.04-1.956-.181-.09-.363-.337-.526-.43-.351-1.429-.711-1.3-1.05-.404l-.181-3.654c-.126.043-.234.082-.36.13-.073-3.537-.321-2.677-.521-2.76a94.907 94.907 0 0 1-.191-2.258 29.825 29.825 0 0 0-.62-1.174c-.16.987-.254 3.65-.492 3.118-.071-3.386.113-10.42-.571-9.559-.681 1.02-1.414-.89-2.165.765-.224-1.622-.38-3.58-.79-2.66.026 1.85-.21 1.621-.353 1.672-.416-.006-.5-2.143-.947-1.216-.07.337-.124.508-.176.838-.282-2.22-.25-3.163-.452-3.556.406-2.154.467-.785.61-.99.054-.02.109-.036.163-.059.179-.524.338-1.043.516-1.575-.18.065-.342.12-.523.181-.063-1.835-.125-3.514-.187-5.196-.091.032-.181.065-.271.094-.497 1.88-.744 3.206-1.008 4.851-.071.022-.126.045-.18.064a90.903 90.903 0 0 0-.538-2.758c-.053.176-.105.507-.16.68-.146-.414-.293-.822-.438-1.236-.181.061-.362.125-.525.184-.037-.298-.056-.6-.093-.744-.181.065-.343.121-.524.19-.142.513-.284 1.03-.426 1.696l.022 4.33c-.052.64-.104 1.121-.155 1.603a.74.74 0 0 1-.091.032c-.295-1.445-.591-2.73-.887-4.174.015-.47.049-.948.083-1.429-.36.287-.702.718-1.044.99-.183-.55-.35-1.267-.534-1.98-.304.577-.627 1.151-.95 1.886-.658-1.778-1.132-2.542-1.465-.256-.324.275-.63.688-.953 1.112-.09.03-.18.061-.252.091-.128-.263-.238-.54-.365-.644-.142.514-.266 1.02-.426 1.543-.132-1.04-.281-2.067-.361-3.594-.251.406-.521.81-.772 1.051-.887-.153-1.792-.293-2.696-.44-.29-.205-.483-2.617-.792-2.819-.053.023-.108.04-.18.066-.16.831-.335 1.67-.494 2.497-.415.144-.812.286-1.21.424-.271-.209-.526-.43-.797-.487l-.343.118c-2.165.923-4.33 2-6.494 3.074-.451 4.03-.375.908-.523.185-.504.643-1.025 1.29-1.546 1.942-.253-.07-.525-.28-.78-.343"/><path fill="#b0aeaf" fill-rule="nonzero" d="M77.395 68.978c.166.715.26 1.304.697 1.926.18-.068.342-.122.523-.185l.343-.124c.038.448.06.907.098 1.511.084-1.264.168-2.535.235-3.8.128.42.238.844.367 1.265.05-.944.098-2.05.15-2.994.265-.867.652.7.54 3.526.186 1.174.354 2.354.541 3.525.29-.099.577-.208.866-.309.003-3.25.512-2.5.686-.24.288-.258.575-.672.862-1.08.183.248.346.498.528.588.048-1.253.096-2.513.162-3.772.517 2.142.97-1.426 1.552-.555.247-1.325.512-2.657.76-3.983.31.666.097 5.387.54 3.524l.328-3.054c.15.721.297 1.444.445 2.01.04.76.061 1.526.101 2.288.054.135.11.427.184.705.137-1.593.256-3.184.411-4.635-.168-1.182-.3-2.374-.45-3.558.256-2.877.506-3.746.494-2.496.08 1.364.237.532.364.645.126-.046.362.178.337-1.514.144-.05.288-.105.433-.155.688.223 1.563-1.94 2.082.66.65-4.103 1.811.597 2.412-2.248.32 2.514.997.575 1.494 2.41.458 1.237.528-2.815.855-2.625.06-2.803.598.103.96.436.252-.24.503-.644.773-1.046.623 1.947 1.075-5.803 1.55-1.17.287-.409.574-.823.861-1.08.402.79.628 2.722 1.051.404.984 5.225 1.886-2.682 2.87 2.701.214-.535.405 1.72.52-.955.524-.032 1.048.097 1.555.222.084 2.446.394 2.804.873 1.087.578-3.766.684 3.01 1.241 2.501.518 2.294 1.021-2.065 1.661 3.135-.175 1.143-.334 2.126-.508 3.274-.054.024-.109.04-.18.062-.193-2.407-.623-1.483-.767 2.44.2.087.417.317.618.56.256.682.53 1.203.786 1.885 0-.459-.004-.924-.006-1.389.251-.399.52-.804.772-1.05l.007 1.393c.09-.034.18-.06.271-.095.163.252.345.492.508.593.073-.022.127-.048.181-.06.233-.553.465-1.097.68-1.636.076.903.135 1.813.194 2.871.054-.017.108-.033.181-.06.502-.803 1.023-1.445 1.544-2.1l.188 1.483c.107-.347.232-.698.34-.897l-.012-2.159c.104-1.119.225-2.093.33-3.22a137.37 137.37 0 0 1-.268-2.84c-.53-1.365-1.074-5.358-1.602-6.097-.185 2.855-.465 1.092-.95 1.888l-.007-1.548c-.454-.305-.926-.6-1.38-1.062-.3 1.192-.225-1.936-.375-2.808l-.432.151c-.368-1.264-.826-2.654-1.14-4.09-2.018 1.487-3.653.054-5.56-1.748-.489-.142-.487 3.891-1.209.427-.199-.086-.418-.314-.617-.404-.713 1.96-1.15 1.186-1.465 3.463-.493-.912-.362-3.742-.524-3.53-.126.044-.234.082-.36.13-.48 1.562-.599-.258-.78-.5-.48 1.87-.543-.122-.687.242-.036.01-.054.023-.09.03-.343.122-.685.241-1.046.371-.073.021-.163.058-.253.09-.249.862-.516 1.73-.766 2.441-.344-.036-.706-.215-1.05-.247-.144.046-.288.1-.433.152l.003.616c-.894 2.02-2.13.596-2.844 2.557-.46-1.852-1.012.045-1.394-.279-.113 2.825-.446 1.08-.674 2.556-.18.225-.34.59-.52.808-.575.822-1.342-.768-1.722 2.932a51.276 51.276 0 0 0-.88-2.628c-.052.635-.103 1.423-.17 2.224-.253.09-.344.118-.434.15-.013.937.084 2.453-.058 2.967-.435-.155-.586-1.499-.888-4.18-.177.685-.355 1.21-.515 1.734-.147-.256-.292-.362-.437-.623-.095-.893-.19-1.944-.286-2.84-.154 1.606-.328 3.061-.483 4.662-.22-.543-.42-.933-.622-1.329-.199-.088-.417-.315-.617-.557-.054.022-.108.038-.162.062-.235.078-.47.162-.704.244-.105.812-.227 1.631-.332 2.444-.435-.153-.879-2.476-1.299.457-.397.295-.81.755-1.206 1.203-.306.263-.474 2.955-.758 3.982.005.93.01 1.861.014 2.941"/><path fill="#9e9c9d" fill-rule="nonzero" d="M83.038 50.566c.144-.206.269-.558.429-.931.284-1.03.333 1.433.448 2.939.162-.363.341-.737.502-.95.131.885.245 1.929.375 2.814l.011 2.16c.301 2.682.453 4.025.888 4.18.141-.513.044-2.03.057-2.966.09-.032.182-.061.434-.151.068-.8.118-1.588.17-2.223.293.819.586 1.648.88 2.628.38-3.7 1.147-2.11 1.722-2.932.18-.22.34-.584.52-.81.228-1.475.562.27.675-2.555.381.325.932-1.573 1.393.28.714-1.962 1.951-.54 2.845-2.558-.001-.151-.002-.466-.004-.615.145-.052.289-.107.434-.153.344.032.706.212 1.049.248.25-.711.517-1.58.766-2.442.091-.032.181-.068.253-.09.361-.13.704-.248 1.047-.37.036-.007.054-.021.089-.031.144-.364.208 1.629.687-.242.182.242.299 2.062.78.5.126-.048.234-.085.361-.13.161-.212.03 2.619.523 3.53.314-2.276.752-1.503 1.466-3.462.199.09.417.318.616.403.723 3.465.721-.568 1.209-.426 1.907 1.8 3.542 3.234 5.56 1.747.314 1.437.772 2.826 1.14 4.09l.433-.15c.149.872.073 4 .375 2.808.454.46.926.757 1.38 1.062l.007 1.548c.485-.797.764.966.95-1.888.527.739 1.071 4.732 1.601 6.096.076.902.172 1.946.268 2.84-.105 1.128-.226 2.1-.329 3.22l.011 2.16c.163.1.345.348.527.593.116 1.507.255 4.247.613 3.5.27-.405.521-.808.773-1.046.072-.031.126-.046.18-.07.143-.357.286-.564.429-.922.548 1.047.992 3.215 1.661 3.127.471.149.941.136 1.394.287.035-.015.053-.021.09-.034l-.011-2.168a12.516 12.516 0 0 0-.531-1.357c-.003-.773-.277-1.142-.195-2.877.654.543.755-4.757 1.285-3.397.128.112.238.382.365.493l.848-4.02c-.382-.33-.762-.66-1.143-.988-.782-.648-1.705-1.1-2.415 1.626-.449.779-.526-3.996-.884-3.402-.517-2.14-1.033-4.282-1.6-5.474-.078-1.215-.175-2.417-.27-3.631-.199-.073-.4-.314-.617-.548a.24.24 0 0 0-.073.03 3583.35 3583.35 0 0 1-.686 3.954c-.098-1.67-.179-3.342-.278-5.016.16-.827.336-1.664.513-2.5l-.011-2.166c-.037-.295-.074-.436-.093-.74-.271.095-.524.185-.777.276-.196.38-.413.61-.61.99a58.933 58.933 0 0 0-.101-2.134l-.522.186c-.275-.527-.583-.878-.874-1.242-.499-2.143-1.046-3.19-2.083-.811-.196.536-.419-.621-.524.185-.255-.372-.509-.753-.783-1.114-.287.257-.575.664-.862 1.079-.527-.587-1.036-1.18-1.564-1.773-.142.363-.286.57-.429.927-.231.858-.349-1.114-.531-1.358-.632.065-1.265-.018-1.916.054-.49-.44-.98-.73-1.47-1.027l-.003-.775c-.054.023-.108.039-.18.068-.161.524-.339 1.046-.517 1.73-.344-.19-.737.88-1.032-.408l-.173 1.61c-.202-.705-.404-1.41-.607-2.107-.143.358-.287.563-.429.92-.13-.726-.21-2.248-.372-2.036-.141.517-.266 1.024-.426 1.544-.161.37-.291-.207-.437-.62-.27.408-.575.828-.863 1.083-.162.059-.343.12-.505.184l-.007-1.397c-.181-.245-.364-.493-.527-.587l.004.773c-.182-.247-.346-.498-.527-.586-.181.06-.343.117-.524.182-.255-.532-.697 1.49-1.036-1.18-.195.846-.407 1.689-.602 2.535-.224-1.316-.56.196-.784-1.277l-.328 3.063c-.131-.73-.242-1.305-.354-2.043-.27.25-.521.65-.79 1.055l-.004-.776c-.163.062-.343.123-.506.18-.288.105-.595.213-.866.305l.007 1.396c.502 2.916.899 2.776 1.386 2.608l.007 1.386c-.766 2.442-1.426.51-1.722 2.936-.699 1.022-1.832 2.354-2.602.144l-.329 3.06c-.092-.272-.164-.41-.257-.68-.178.368-.34.58-.519.956l-.014-2.94-.639-5.035c.087-.808.174-1.46.26-2.261-.184-.711-.015-3.25-.284-2.845-.142.669-.283 1.498-.423 2.318.076.9.136 1.964.194 2.879-.104.963-.224 2.092-.329 3.054-.467.478-.995-.27-1.555 3.649.129.42.239.845.368 1.265"/><path fill="#8b8989" fill-rule="nonzero" d="m84.807 42.507.639 5.035.014 2.94c.179-.376.341-.588.519-.955.093.27.165.407.257.679l.329-3.06c.77 2.21 1.903.878 2.602-.144.296-2.425.956-.494 1.722-2.935l-.007-1.387c-.487.168-.884.308-1.386-2.608l-.007-1.396c.271-.092.578-.2.866-.305.163-.057.343-.118.506-.18l.004.776c.269-.405.52-.805.79-1.055.112.739.223 1.314.354 2.043l.328-3.063c.224 1.473.56-.04.784 1.277.195-.846.407-1.69.602-2.534-.038-.455-.077-.901-.097-1.36-.53 2.357-.635-4.271-.866.307-.145.05-.289.1-.433.152-.234.233-.467.625-.683.86-.238-.536-.476-1.223-.714-1.92-.197.539-.394 1.07-.589 1.765a18.554 18.554 0 0 0-.368-1.423 59.296 59.296 0 0 1-.495 2.345c-.149-.877-.346-.498-.787 1.827.095.743.188 1.48.282 2.069-.495 2.495-.582-.572-.78-.35-.326-.188-.701.722-.96-.43-.506.18-.993.349-1.48.52-.235.086-.451.165-.686.249-.086.802-.173 1.453-.26 2.26M95.283 36.632c.182.088.345.339.527.586l-.004-.773c.164.094.346.342.527.587l.007 1.397c.163-.064.343-.125.505-.184.289-.255.594-.675.864-1.083.146.413.275.99.437.62.159-.52.284-1.027.426-1.544-.331-1.12-.377-3.275-.954-2.758-.323.423-.628.844-.953 1.114-.036.012-.054.014-.09.027-.254-.37-.527-.737-.782-1.115-.18.219-.342.59-.521.802-.176.837-.335 1.668-.512 2.506.18-.065.343-.121.523-.182M101.884 37.236c.49.298.98.588 1.47 1.026.651-.07 1.283.012 1.916-.053.182.244.3 2.215.531 1.358.143-.357.287-.564.43-.928.527.593 1.035 1.187 1.563 1.774.287-.415.575-.823.862-1.079-.293-.67-.585-1.344-.877-2.015-.542.19-.735-2.374-1.56-.84-.273-.527-.528-.895-.783-1.274-.4-.785-.673-.846-1.057-1.79-.342.27-.684.701-1.043 1.138-.316-1.744-.722.257-.935.952-.18.374-.359.745-.52.956l.003.775"/><path fill="#646162" fill-rule="nonzero" d="M108.238 23.835c.054-.018.108-.037.181-.06l-.004-.78c.447-.926.53 1.21.946 1.218.145-.052.38.178.354-1.674.411-.92.565 1.039.79 2.66.751-1.653 1.483.255 2.165-.763.683-.863.5 6.172.571 9.558.237.532.333-2.131.491-3.117.22.388.42.775.62 1.174.058.752.116 1.506.192 2.257.2.084.448-.777.52 2.759.126-.046.235-.086.361-.128l.18 3.654c.34-.898.7-1.026 1.05.403.163.094.346.34.526.43.293-3.044.58.257 1.04 1.957.073-.027.127-.05.181-.065.083-1.58.15-2.994.232-4.574.327.349.635.707.963 1.21.185.864.352 1.729.537 2.754.164.094.346.342.528.587l.011 2.16c.11.435.24.848.35 1.427.253-.091.524-.183.776-.276.21 2.096.436 4.182.645 6.434.072-.023.163-.055.253-.09.036-3.886.145-3.766.235-3.8.167.873.086 2.915.112 4.454.078 1.21.262 1.92.183.555.063-2.04.173-5.328.5-5.29.164.407.347.806.511 1.216.318-1.506.463-1.562.607-1.612.2-.07.415-.144.614-.22l-.022-4.481c-.129-.42-.239-.847-.368-1.42.02-3.411.04-6.831.04-10.391l-.004-.772c-.09.03-.162.057-.253.09a.62.62 0 0 0-.09.034c-.287.408-.574.818-.862 1.075-.055.023-.108.04-.18.069-.163.057-.343.116-.506.178-.13-.728-.209-2.25-.372-2.035-.108.03-.216.076-.342.115-.159.834-.336 1.516-.513 2.356-.308-.05-.684.855-1.033-.416.048-1.41.095-2.977.141-4.384.27-.407.521-.802.791-1.057-.209-1.935-.637-1.011-.63-3.49-.328-.197-.636-.4-.962-.437-.583-1.034-1.028-3.194-1.848-4.61.67.07.64-2.554.776-3.99-.075-.594-.132-1.351-.19-2.105a24.991 24.991 0 0 0-.517 1.734l-.025-5.258c-.146-.261-.29-.365-.437-.62-.014.78-.046 1.565-.079 2.347-.692-1.146-.808 4.78-1.293 1.855l-.004-.777c-.216.079-.45.162-.685.249-.237-.381-.456-.772-.692-1.146-.042-1.227-.085-2.452-.109-3.684-.415.144-.812.282-1.209.424-.117 2.063-.216 3.952-.333 6.008.194 2.717.774-.892.813 3.428-.123.818-.228 1.63-.35 2.448-.182-.091-.396.448-.513-1.366-.87-.468-1.507-1.021-2.267-1.367-.343.117-.703.248-1.047.37-.144.208-.286.565-.43.77-.254-.064-.525-.277-.779-.343-.179.533-.338 1.05-.517 1.576-.053.023-.108.039-.162.057-.143.206-.205-1.163-.61.99.201.395.17 1.336.451 3.558"/><path fill="#8b8989" fill-rule="nonzero" d="M109.963 40.263c1.037-2.38 1.584-1.332 2.083.812-.5-2.144-1.046-3.191-2.083-.812M113.543 44.264c.197-.38.414-.61.61-.99l-.006-1.393c-.184-.555-.244-1.77-.705.249.04.604.08 1.367.1 2.134M114.799 53.42l.687-3.954a.225.225 0 0 1 .072-.03c.218.234.418.475.617.548.06 1.224.12 2.446.198 3.66.51.902.836 4.498 1.484 3.962-.075 3.28.575-.667.45 3.563 1.07 4.575 2.059-4.297 3.13.439.2.083.467-.784.617.397-.116 2.054-.406 1.854-.415 3.868l.012 2.317c.236.386.455.763.692 1.154.087-.656.174-1.457.242-2.257-.026-1.696-.071-3.534-.098-5.233-.602-4.897-.937-6.948-1.425-6.93a30.752 30.752 0 0 1-.624-1.946c.196-.538.41-1.076.606-1.763l-.02-4.333c-.112-.58-.241-.992-.351-1.426-.181.068-.361.13-.523.184-.18.218-.341.587-.52.964-.438-.777-.77-2.205-1.224-2.513l-.003-.773c-.054.016-.11.039-.181.065-.343.12-.686.242-1.028.358-.183-.238-.365-.484-.528-.587-.107.198-.232.55-.34.898-.2-.237-.417-.471-.616-.555-.056-.293-.111-.425-.184-.71-.162.367-.341.587-.502.95l.01 2.167c-.176.836-.353 1.673-.512 2.5.098 1.674.179 3.347.277 5.016"/><path fill="#9e9c9d" fill-rule="nonzero" d="M88.193 39.908c.198-.224.285 2.844.78.35a73.53 73.53 0 0 1-.282-2.07c-.16.517-.338 1.05-.498 1.72"/><path fill="#777576" fill-rule="nonzero" d="M118.406 44.09c.453.31.785 1.737 1.224 2.514.178-.377.34-.746.52-.964.161-.053.342-.116.523-.184l-.01-2.161c-.183-.245-.365-.493-.528-.587a87.575 87.575 0 0 0-.538-2.753 8.328 8.328 0 0 0-.963-1.211c-.083 1.58-.149 2.994-.232 4.575l.004.772"/><path fill="#8b8989" fill-rule="nonzero" d="M98.571 36.238c.162-.212.242 1.31.372 2.036.142-.357.286-.562.43-.92l.606 2.108.173-1.612c.295 1.288.688.22 1.032.41.178-.685.356-1.208.516-1.73-.145.05-.24-1.312-.354-2.048-.396.145-.812.29-1.208.43-.145.052-.289.1-.77 1.668-.199-.084-.299-2.066-.797-.342"/></g><path fill="#231f20" fill-rule="evenodd" d="m110.538 49.43-.003-.038c.172-.098.328-.244.556-.17.213.069.429.129.637.212.098.038.178.119.267.18l-.022.034-.72-.106a88.36 88.36 0 0 1-.715-.112m2.482.396c-.17-.027-.321-.04-.465-.078-.073-.02-.174-.074-.19-.132-.047-.176-.195-.25-.309-.355-.145-.132-.3-.252-.462-.388.331-.27.587-.643 1.097-.678-.002.564.118 1.093.329 1.63m-4.855-1.422c.019.088-.035.094-.101.095-.114 0-.13.037-.08.145a.271.271 0 0 1 .011.176c-.062-.054-.133-.101-.186-.163-.042-.048-.062-.114-.092-.172a1.32 1.32 0 0 0-.051.029l.225.552c-.3-.02-.562-.035-.825-.052-.005 0-.009-.003-.013-.002-.312.054-.412-.141-.484-.393a5.305 5.305 0 0 0-.238-.645c-.028-.066-.108-.111-.165-.166-.006.074-.023.148-.018.22.022.279.048.557.075.835.008.089-.034.114-.117.12-.376.025-.748-.033-1.122-.051-.508-.025-1.018-.042-1.527-.06-.237-.01-.476-.02-.713-.021-.182 0-.364.013-.546.025-.085.005-.129-.021-.151-.11-.06-.233-.282-.318-.447-.15-.406.412-1.117.337-1.546.086-.084-.05-.111-.125-.088-.217.115-.462.359-.834.797-1.041a.923.923 0 0 1 .684-.063c.062.02.137-.004.201.014.165.047.332.095.488.164.181.08.359.15.569.108.046-.133-.081-.166-.158-.206-.582-.3-1.167-.592-1.752-.884-.563-.281-1.111-.588-1.61-.975a1.969 1.969 0 0 1-.605-.846c-.09-.228-.138-.474-.204-.713a1.382 1.382 0 0 1 .004-.658c.067-.325.193-.623.465-.825a2.482 2.482 0 0 1 1.76-.503c.437.04.841.187 1.252.33a4.744 4.744 0 0 1 1.436.789c.161.13.293.297.437.447.054.057.106.116.161.176.088-.071.09-.14.037-.21-.146-.188-.28-.39-.446-.56a14.296 14.296 0 0 0-.886-.838c-.466-.404-.932-.81-1.527-1.021-.348-.124-.688-.291-1.046-.363-.467-.093-.951-.124-1.412.066-.605.25-1.072.627-1.219 1.313-.1.459-.043.899.095 1.338.076.242.124.499.239.72.154.296.342.582.55.842.25.312.507.63.814.88.348.283.754.495 1.135.737.025.017.053.029.107.058-.269 0-.508-.006-.747 0-.235.008-.467.052-.613.26-.077.109-.108.249-.172.369-.101.192-.047.353.051.53.189.346.479.59.78.824.106.082.219.154.329.23l-.01.038c-.069-.01-.139-.028-.208-.028-.236 0-.472.01-.707.01-.206.002-.413-.008-.619-.007-.15 0-.3.009-.45.02-.394.026-.789.052-1.182.086a8.63 8.63 0 0 0-.579.07c-.089.015-.14-.007-.175-.093-.217-.533-.434-1.065-.657-1.595-.165-.391-.341-.778-.506-1.17-.186-.44-.347-.89-.428-1.361a.975.975 0 0 1 .215-.785c.176-.225.621-.316.907-.17.194.1.362.25.546.373.045.029.13.067.153.048.063-.05.087-.13.03-.212-.122-.18-.239-.364-.36-.544-.111-.165-.226-.328-.338-.493a1.66 1.66 0 0 0-.743-.626c-.411-.166-.887.009-1.124.489-.188.38-.19.76-.102 1.166.158.72.436 1.4.717 2.078.22.532.442 1.062.648 1.6.177.464.471.859.733 1.274.018.03.038.059.068.105-.14.037-.268.082-.399.102a4.784 4.784 0 0 0-1.076.303c-.155.063-.322.094-.478.156-.285.113-.57.228-.846.362-.293.142-.593.282-.858.468a6.533 6.533 0 0 0-.805.692c-.368.36-.575.815-.677 1.318-.005.024-.02.046-.061.07-.051-.206-.13-.411-.151-.62-.046-.48-.24-.89-.526-1.266-.106-.141-.201-.291-.299-.44a1.24 1.24 0 0 0-.71-.514.97.97 0 0 0-.534.007c-.319.09-.643.216-.981.149-.229-.046-.472-.076-.672-.226-.024-.018-.087-.006-.116.014-.023.016-.041.077-.029.1.08.146.113.31.241.437.174.173.312.38.475.565a.943.943 0 0 0 .654.334c.407.229.809.078 1.213-.011.055-.012.111-.03.167-.04a.512.512 0 0 1 .606.556c-.005.067.06.136.074.209.066.32.124.643.188.964.122.616.242 1.232.372 1.847.09.42.189.838.3 1.253.028.103.117.19.181.29.106-.033.127-.096.107-.194-.065-.303-.123-.608-.183-.911-.093-.467-.012-.916.118-1.364.169-.576.539-1.006.988-1.375a6.469 6.469 0 0 1 2.045-1.143 21.982 21.982 0 0 1 1.571-.471 17.774 17.774 0 0 1 1.57-.327c.464-.074.935-.105 1.404-.144.575-.047 1.15-.081 1.726-.12.162-.012.324-.031.486-.03.087 0 .175.037.263.055.038.007.078.016.116.014.471-.017.941-.036 1.411-.054.348-.013.696-.033 1.044-.032.443 0 .886.02 1.329.032.36.009.721.024 1.081.026.122 0 .151.04.164.16.055.53.13 1.057.19 1.586.049.448.296.82.464 1.223.222.532.605.94 1.067 1.276.193.14.391.277.599.393.141.078.306.11.456.175a.378.378 0 0 1 .159.122c.259.392.506.793.773 1.179.055.079.178.113.274.16.307.148.61.309.926.433.217.085.452.125.682.17a.268.268 0 0 0 .287-.13c.158-.264.316-.53.459-.803.09-.173.31-.262.476-.155.14.09.268.203.406.3.191.134.229.122.403-.021.286-.236.441-.238.709.09.03.036.066.068.099.1l.057-.02c-.004-.08.014-.172-.018-.24-.15-.308-.33-.605-.704-.665-.143-.023-.304.02-.446.065-.116.037-.203.05-.306-.032-.11-.088-.247-.142-.357-.23-.192-.155-.382-.095-.548.013-.122.079-.207.214-.301.33-.102.127-.192.263-.29.393-.062.08-.131.156-.194.237-.107.139-.183.159-.344.107-.078-.026-.167-.018-.247-.04-.141-.035-.279-.082-.452-.135l.224-.153c.237-.164.479-.321.708-.495.081-.062.137-.161.192-.25.016-.026.002-.085-.018-.116-.14-.21-.291-.41-.423-.623-.097-.157-.197-.302-.373-.375-.084-.035-.172-.08-.261-.087-.229-.02-.461-.015-.691-.03-.096-.006-.19-.04-.285-.052-.29-.038-.582-.058-.869-.111a3.857 3.857 0 0 1-1.404-.564c-.068-.043-.101-.17-.117-.263-.086-.53-.174-1.06-.238-1.591-.052-.422-.071-.848-.104-1.282.13 0 .235-.005.339 0 .484.027.968.054 1.451.084.252.015.505.033.757.057.251.024.501.055.751.086a111.423 111.423 0 0 1 1.819.24c.373.052.747.1 1.119.157.275.042.548.094.823.142.814.146 1.598.404 2.382.662.351.117.692.264 1.038.397l.198.076c.08-.065.086-.135.023-.208-.2-.232-.395-.468-.602-.693-.27-.292-.618-.451-.987-.575-.365-.123-.723-.263-1.089-.376a47.44 47.44 0 0 0-1.514-.436c-.11-.031-.171-.085-.178-.197l-.103-1.57c-.001-.012.002-.026.002-.034.258-.083.517-.112.78-.037.384.109.682.349.942.639.085.096.156.205.246.295.118.119.101.252.059.39.131.04.16.027.193-.091.002-.01.001-.02.005-.026.224-.411.002-.726-.234-1.027-.125-.16-.284-.292-.431-.433-.059-.057-.071-.092-.023-.177.139-.247.224-.518.249-.803.002-.03-.033-.06-.051-.091-.025.018-.068.032-.075.056-.107.357-.373.54-.71.625-.318.08-.645.13-1.001.2 0-.216-.01-.428.003-.638.018-.297.035-.597.214-.855.197-.286.428-.516.801-.556.284-.03.53.053.743.223.276.222.467.515.607.84.086.196.26.262.447.306.02.004.045-.022.069-.032.142-.058.284-.12.428-.173.167-.061.293.018.402.134.106.114.207.233.313.346.11.115.239.149.387.078.012-.006.023-.012.036-.016.191-.071.191-.071.285.114.048.095.094.192.149.283.018.032.06.05.092.075.025-.043.082-.093.073-.128-.076-.312-.186-.611-.442-.827-.13-.111-.282-.1-.426-.034-.104.046-.163.008-.231-.065-.181-.196-.362-.394-.555-.58-.26-.252-.736-.235-1.079.047-.125-.25-.253-.49-.366-.737-.12-.261-.205-.54-.345-.788a1.417 1.417 0 0 0-.418-.486c-.274-.186-.589-.145-.872.012-.558.313-.825.804-.857 1.438-.022.447.025.887.074 1.329.026.233.033.467.05.709-.575.012-1.008.319-1.441.652-.063-.09-.133-.178-.189-.274-.094-.162-.255-.161-.397-.145-.152.017-.251.128-.316.275a.54.54 0 0 0 .009.447c.083.195.001.332-.092.5-.162.295-.393.183-.612.155-.368-.047-.735-.105-1.103-.16-.029-.004-.056-.018-.121-.04.076-.05.132-.081.18-.121.075-.063.157-.122.212-.2.077-.11-.045-.176-.091-.25-.106-.173-.228-.337-.345-.504-.047-.07-.085-.128.025-.181.026-.012.048-.097.031-.124a20.01 20.01 0 0 0-.496-.787c-.061-.091-.197-.104-.315-.022-.209.146-.408.305-.609.46-.088.068-.1.159-.047.25.149.25.301.5.456.75.019.03.064.045.097.067.195-.134.389-.268.563-.39l.107.359z" transform="matrix(1.33333 0 0 -1.33333 -112.236 85.282)"/><path fill="#231f20" fill-rule="evenodd" d="M109.174 59.163c-.012.105-.007.217-.042.314-.037.103-.095.246-.175.271a.48.48 0 0 1-.364-.057 2.413 2.413 0 0 1-.44-.4c-.21-.226-.382-.476-.44-.791-.073-.412.097-.558.379-.719.023-.014.076.001.1.021.188.149.385.289.553.459.243.246.436.528.429.902m-10.246-.971c.315-.08.587-.176.867-.216.59-.085 1.127.098 1.624.408.182.113.249.282.144.448-.166.266-.401.463-.728.472a1.779 1.779 0 0 1-.937-.249c-.377-.213-.643-.531-.97-.863m-.63-1.424c-.102-.21-.211-.4-.286-.602-.111-.302-.245-.607-.287-.922-.111-.834.288-1.546 1.115-1.845.263-.095.547-.16.826-.177.266-.017.538.042.806.075.519.062.97.294 1.393.584.426.291.78.658 1.095 1.066.488.633.778 1.354.902 2.133.103.654.145 1.317.222 1.975.029.25.096.488.229.712.163.273.298.563.447.846.03.058.063.116.106.165.016.019.08.026.089.015.028-.04.06-.094.05-.135-.02-.103-.073-.2-.093-.303-.03-.156-.043-.316-.064-.474-.068-.496-.134-.993-.204-1.489-.018-.125.034-.218.126-.291.246-.194.512-.358.829-.39.193-.02.406.003.549.15.166.173.36.148.547.115.186-.032.363-.115.544-.174.032-.011.066-.016.106-.026-.101.356-.02.682.15.974.259.449.568.864 1.004 1.161.196.133.4.258.61.369.148.078.29.03.406-.093.274-.292.32-.65.31-1.029-.013-.588-.388-.956-.788-1.312a1.456 1.456 0 0 1-.23-.252c1.058-.13 1.908.324 2.715.933-.092.204-.257.332-.425.447a3.711 3.711 0 0 0-.702.621c-.09.101.004.156.055.219.052.064.086.037.149-.007.263-.188.54-.356.805-.541.145-.102.283-.215.407-.34.136-.138.136-.322.097-.501-.026-.123-.11-.181-.24-.189a.41.41 0 0 1-.18-.061c-.325-.199-.63-.435-.972-.596-.51-.239-1.048-.414-1.627-.382-.115.006-.23.032-.344.028a.305.305 0 0 1-.174-.081c-.183-.172-.354-.364-.62-.411-.27-.048-.481.057-.653.261-.177.21-.352.42-.531.627-.1.115-.286.079-.388-.086-.16-.255-.324-.51-.454-.781-.131-.273-.356-.413-.618-.502-.081-.027-.205.01-.287.056-.187.105-.361.235-.54.355l-.067.043c-.091-.194-.177-.38-.265-.565-.307-.647-.594-1.305-.931-1.936-.24-.449-.564-.849-.912-1.223-.476-.51-1.021-.922-1.703-1.109a3.854 3.854 0 0 0-.926-.152c-.514-.01-1.021.096-1.456.378-.55.356-.863.875-.946 1.537-.042.335.01.652.085.972.182.77.53 1.471.903 2.162l.027.057c-.16.136-.23.121-.33-.054-.26-.453-.508-.914-.79-1.355-.177-.278-.402-.527-.612-.785-.141-.175-.291-.343-.44-.512-.316-.359-.677-.672-1.101-.887-.246-.125-.533-.19-.81-.233a2.591 2.591 0 0 0-1.591.238 1.755 1.755 0 0 0-.961 1.193c-.16.619-.106 1.231.086 1.836.137.436.353.829.614 1.201.25.36.496.724.743 1.087.038.056.08.125.156.066.07-.054.06-.113.002-.191-.308-.399-.566-.83-.717-1.314-.13-.417-.222-.84-.153-1.283.11-.709.538-1.114 1.208-1.296a2.988 2.988 0 0 1 1.844.061c.35.127.648.347.934.583.376.312.675.694.953 1.092.088.125.149.27.213.411.215.471.422.946.643 1.416a.962.962 0 0 0 .207.273c.113.111.232.105.358.007.153-.119.177-.106.314.032.269.271.544.538.828.793.329.297.665.586 1.008.866.212.173.465.271.73.34.228.059.457.101.677.013.298-.119.536-.309.6-.653.039-.198-.044-.355-.154-.504-.148-.198-.294-.398-.446-.593a6.422 6.422 0 0 0-1.03-1.087c-.382-.31-.813-.533-1.257-.726-.424-.185-.88-.192-1.333-.111-.026.005-.052.015-.078.016-.035.003-.071.001-.106.001M117.733 44.11c-.094.054-.169.09-.236.137-.192.135-.38.275-.568.415a.268.268 0 0 0-.072.078c-.136.235-.347.276-.599.26a.836.836 0 0 1-.412-.119.919.919 0 0 1-.187-.165 1.577 1.577 0 0 0-.385-.326l-.045.024c.012.052.006.123.038.155.17.174.341.348.526.504.257.217.564.325.9.292.214-.02.422-.085.608-.21.387-.258.78-.508 1.17-.762.204-.133.435-.166.67-.178.071-.003.154-.003.152-.086 0-.047-.064-.109-.113-.133a.526.526 0 0 0-.25-.07c-.519.042-.98-.102-1.436-.345-.475-.253-.986-.44-1.467-.68-.288-.145-.549-.342-.828-.505a8.285 8.285 0 0 0-.577-.299c-.569-.272-1.137-.547-1.71-.81-.382-.175-.774-.325-1.157-.498-.184-.083-.35-.209-.539-.284-.413-.166-.835-.309-1.25-.466-.434-.164-.865-.337-1.299-.499-.197-.074-.4-.128-.599-.195-.229-.075-.453-.163-.684-.229-.21-.06-.429-.096-.643-.148-.19-.045-.378-.108-.57-.146-.139-.027-.285-.024-.427-.038-.06-.007-.125-.01-.18-.033-.3-.122-.618-.143-.933-.18-.32-.037-.649-.043-.96-.115a5.008 5.008 0 0 0-.662-.094c-.156-.016-.315-.003-.472-.01-.109-.006-.217-.03-.325-.034-.278-.01-.557-.008-.835-.02-.19-.006-.379-.034-.569-.042-.122-.004-.247 0-.369.015-.4.051-.8.1-1.197.166a39.8 39.8 0 0 0-1.45.275c-.184.038-.362.105-.539.168-.218.076-.437.152-.648.246-.286.127-.557.292-.85.395-.129.045-.213.13-.32.19-.13.073-.268.131-.402.198-.242.12-.48.244-.726.357-.259.12-.523.227-.79.341l.036.121-.04.021-.077-.139c-.09.02-.2.057-.309.062a2.33 2.33 0 0 1-.522-.018 1.042 1.042 0 0 1-.386-.17c-.29-.2-.584-.4-.849-.632a44.086 44.086 0 0 1-1.392-1.273c-.218-.207-.498-.293-.744-.444-.302-.185-.622-.235-.962-.239-.108 0-.182.048-.182.15 0 .093.084.125.175.142.08.016.16.046.227.091.563.383 1.137.752 1.68 1.162.285.215.511.506.768.76.19.187.401.357.574.56.097.113.212.208.302.334.106.151.29.252.452.357.157.101.324.194.497.268.288.122.586.206.908.182a3.672 3.672 0 0 0 1.231-.307c.197-.088.375-.216.565-.32.072-.04.155-.057.227-.094.192-.095.376-.21.574-.294.427-.178.855-.359 1.293-.506.366-.122.747-.203 1.123-.292.271-.063.545-.118.82-.16.353-.053.707-.096 1.062-.132.331-.034.663-.072.994-.07.555 0 1.11.022 1.665.05.66.031 1.32.072 1.972.2.534.104 1.081.148 1.613.257.68.14 1.355.308 2.025.485.525.14 1.042.307 1.56.47.86.267 1.71.562 2.53.94.49.223 1.003.39 1.5.594.703.291 1.4.6 2.101.893.371.155.747.297 1.121.445.02.008.037.022.084.05M113.623 38.312l.025.65a1.6 1.6 0 0 0 .004.066c.02.2.018.195-.174.272-.22.088-.334.283-.453.47a.31.31 0 0 0-.041.1c-.065.323-.366.3-.58.35-.541.124-.984-.108-1.36-.485-.073-.075-.118-.182-.184-.284.058-.076.068-.205.22-.207a.526.526 0 0 1 .387.142c.069.068.12.156.194.217.036.03.107.02.16.027-.01-.042-.01-.088-.03-.124-.042-.078-.094-.15-.142-.225-.107-.167-.296-.2-.457-.28-.282-.137-.541-.077-.802.074-.08.047-.201.04-.3.03-.131-.012-.254.054-.355.212-.071.113-.017.198.042.29.085.132.187.224.355.162.046-.017.082-.06.13-.096.027.035.054.076.089.11.037.035.082.093.12.091.2-.006.283.162.405.261.19.156.386.298.633.345.399.075.798.091 1.192-.026.163-.049.285.064.428.098.119.03.232.082.35.117.044.014.094.007.184.012-.055-.155-.068-.31-.152-.406-.186-.21-.078-.408-.02-.609.025-.084.086-.157.13-.235.02.006.037.013.056.02 0 .132.003.263 0 .395-.015.545.28.986.487 1.456.043.098.096.191.148.283.035.06.064.143.158.105.095-.039.088-.124.07-.206-.027-.138-.074-.275-.082-.413a41.578 41.578 0 0 1-.048-1.272 1.66 1.66 0 0 0-.112-.62c-.071-.166-.075-.357-.13-.53a1.679 1.679 0 0 0-.178-.399c-.107-.167-.24-.32-.36-.479-.271-.356-.557-.3-.895-.105-.053.03-.103.067-.154.1-.126-.092-.256-.17-.367-.269-.227-.2-.462-.136-.695-.034-.127.056-.245.14-.361.22-.158.107-.285.12-.441.004a3.951 3.951 0 0 1-.396-.334c-.13-.126-.132-.394.018-.505.192-.143.4-.274.62-.368.272-.114.509-.244.594-.548a.646.646 0 0 0-.057-.5c-.194-.356-.377-.72-.595-1.063a7.326 7.326 0 0 0-.7-.959c-.217-.244-.486-.448-.75-.645a4.456 4.456 0 0 0-.72-.447 2.026 2.026 0 0 0-1.114-.21c-.177.018-.361.02-.525.077-.208.071-.407.18-.596.296a2.003 2.003 0 0 0-.425.348 1.04 1.04 0 0 0-.206.378 3.016 3.016 0 0 0-.154.672c-.021.275-.011.556.027.83a4.9 4.9 0 0 0 .206.874c.084.25.208.491.338.723.283.505.568 1.012.88 1.5.176.273.41.507.615.763.05.061.083.137.124.205l.069-.027c-.023-.083-.027-.177-.07-.247-.14-.225-.308-.434-.441-.664-.232-.4-.49-.789-.622-1.242-.07-.24-.17-.472-.238-.714a2.258 2.258 0 0 1-.048-1.144c.088-.37.237-.736.602-.94.278-.154.575-.254.892-.287a2.592 2.592 0 0 1 1.513.291c.266.143.507.333.77.482.158.09.226.226.303.372.064.12.036.195-.071.253-.113.06-.234.105-.343.171-.202.122-.417.233-.594.385-.237.203-.285.496-.197.781.08.264.204.52.336.764.134.252.27.516.463.722.24.26.538.483.903.531.164.023.346-.052.514-.1.133-.039.257-.113.389-.159.182-.063.22-.014.356.112.174.164.384.292.59.421.08.051.169.017.25-.05.107-.086.194-.224.396-.173" transform="matrix(1.33333 0 0 -1.33333 -112.236 85.282)"/><path fill="#231f20" fill-rule="evenodd" d="M108.358 44.003c-.215 0-.43-.007-.646 0-.607.022-1.214.048-1.822.076-.142.006-.19.076-.122.209.131.25.251.517.433.729.301.353.645.67.974.998a2.6 2.6 0 0 0 .774.509c.247.11.471.11.7-.054.141-.102.304-.175.464-.248.141-.066.278-.02.373.092.136.158.254.33.376.499.111.153.29.235.483.137.428-.214.622-.134.83.305.033.07.075.134.114.202.106-.044.103-.102.081-.181-.085-.286-.248-.53-.414-.771-.06-.087-.128-.17-.189-.258-.175-.252-.438-.34-.728-.188-.096.049-.17.044-.244-.047a7.713 7.713 0 0 0-.435-.487c-.227-.23-.388-.253-.694-.097-.175.09-.363.156-.506.308a.519.519 0 0 1-.305.157.486.486 0 0 1-.31-.113c-.442-.358-.895-.704-1.263-1.143-.028-.033-.05-.07-.087-.12.054-.012.09-.026.126-.028.391-.021.781-.045 1.172-.06.374-.013.748-.021 1.122-.025.08-.001.16.034.24.04.032.002.091-.02.097-.041.02-.07.05-.161.021-.216-.059-.117-.15-.218-.234-.322-.313-.39-.614-.791-.943-1.167-.36-.411-.733-.818-1.223-1.083-.35-.19-.732-.29-1.126-.226-.378.06-.657.284-.837.63a2.982 2.982 0 0 0-.31 1.2c-.015.244-.036.49-.025.733.023.568.047 1.136.103 1.7.056.582.145 1.16.236 1.739.034.22.081.448.177.647.118.249.214.499.261.77.006.033.041.062.062.09.123-.057.134-.134.111-.253a56.331 56.331 0 0 1-.315-1.775c-.064-.4-.115-.8-.15-1.201-.06-.654-.077-1.308.158-1.937.09-.242.196-.484.418-.636.294-.201.632-.252.98-.21.214.027.437.05.632.13.272.112.53.266.78.423.192.118.364.265.544.403.037.029.065.07.098.105zM99.274 38.085c.015-.053.046-.106.04-.157-.03-.294-.057-.59-.105-.88-.102-.616-.185-1.238-.406-1.826a7.47 7.47 0 0 0-.4-.85 6.807 6.807 0 0 0-.466-.786 12.443 12.443 0 0 0-.725-.896c-.095-.108-.226-.186-.345-.273a6.383 6.383 0 0 0-.39-.266c-.288-.18-.613-.255-.945-.287-.461-.044-.926-.03-1.354.16-.801.362-1.226.938-1.236 1.864-.003.387.105.748.236 1.109.216.597.52 1.145.872 1.667.14.208.297.403.452.6.04.05.085.136.17.07.085-.063.03-.135-.016-.194a4.174 4.174 0 0 1-.708-1.28c-.153-.458-.237-.927-.104-1.413.085-.31.267-.54.515-.736.437-.345.947-.445 1.482-.47.417-.02.83.023 1.21.194.27.12.563.21.78.438.144.15.225.328.276.52.18.67.328 1.35.32 2.048-.004.382.184.679.359.986.109.192.23.377.346.564.025.04.049.083.074.125l.068-.031M95.084 58.105l-.007.03c-.22-.06-.443-.116-.663-.18-.02-.006-.045-.054-.044-.082.003-.101.01-.204.026-.305.086-.497.508-.916 1.1-.767.088.022.195.075.24.146.13.208.175.443.13.69-.055.3-.285.504-.57.492-.072-.003-.142-.016-.212-.024m-.062 2.163c.12-.062.126-.137.075-.246-.19-.403-.372-.81-.556-1.216-.012-.028-.01-.062.012-.106.082.096.158.199.25.286.06.057.14.095.214.134.07.036.152.052.22.093.262.163.563.175.852.192.201.012.423.01.596-.154.29-.276.374-.802.178-1.21-.163-.338-.387-.63-.6-.934-.338-.48-.78-.85-1.195-1.247a1.257 1.257 0 0 0-.785-.351c-.299-.021-.503.154-.639.4-.27.488-.289.995-.094 1.514.124.33.244.663.36.997.202.593.49 1.136.912 1.603.035.04.061.088.094.129.03.038.065.072.106.116M105.68 35.829c-.006-.065-.003-.134-.02-.196-.072-.247-.278-.384-.453-.548a.703.703 0 0 0-.447-.194c-.142-.013-.242.015-.31.134-.158-.167-.317-.324-.46-.494-.187-.219-.413-.326-.7-.292-.023.003-.045.006-.065.013-.203.075-.222.059-.363-.101a4.457 4.457 0 0 0-.425-.399c-.08-.069-.174-.085-.265-.005-.02.018-.042.029-.065.041-.242.122-.286.092-.438-.136-.261-.39-.454-.816-.683-1.223-.182-.323-.56-.552-1.003-.429-.48.134-.7.479-.791.923a2.223 2.223 0 0 0-.016.647c.064.695.147 1.388.22 2.082.032.29.037.586.09.872.038.21.131.411.207.615.066.173.136.345.214.513.023.054.076.093.117.138.041-.063.108-.122.117-.19.018-.139-.017-.288.01-.425.07-.367-.125-.687-.156-1.035a30.017 30.017 0 0 0-.175-1.469 1.362 1.362 0 0 1 .06-.655c.082-.24.224-.403.476-.469a1.38 1.38 0 0 1 .604-.047c.26.046.416.214.547.419.108.168.212.333.383.449a.393.393 0 0 0 .325.066c.03-.006.061-.012.09-.024.442-.183.355-.043.593.21.132.139.243.296.365.442.078.097.175.105.285.054.117-.053.235-.106.356-.145.048-.016.135-.015.16.014.1.128.235.259.265.407.044.212.147.375.273.535.056.071.117.06.181.001.11-.105.223-.205.335-.308.174-.164.244-.158.382.031.047.065.095.126.143.189l.038-.011M88.11 45.381c.662.397 1.326.77 1.96 1.187.515.34.996.73 1.41 1.193.375.42.693.877.976 1.361.114.195.25.377.38.563.024.035.057.065.085.096.142-.104.143-.15.053-.283a8.342 8.342 0 0 1-.393-.628c-.061-.11-.08-.242-.123-.362-.062-.175-.143-.344-.19-.523-.082-.312.108-.664.429-.83a.715.715 0 0 1 .858.16c.123.135.187.142.23.02a.172.172 0 0 0-.013-.124c-.218-.376-.433-.753-.662-1.122-.2-.32-.666-.509-.99-.399a1.024 1.024 0 0 0-.722.91l-.043.383c-.103-.114-.195-.209-.281-.31-.188-.222-.365-.455-.562-.668-.168-.183-.391-.27-.636-.32-.475-.096-.948-.21-1.421-.319-.055-.013-.104-.049-.158-.068-.087-.03-.126-.013-.186.083M109.948 43.295l.021-.006c0-.035-.003-.071 0-.106.026-.248.123-.462.36-.563.248-.106.493-.1.721.088.18.148.254.356.366.544.116.197.046.365-.08.518-.212.256-.505.339-.824.355-.062.003-.134.026-.183.003-.132-.064-.267-.14-.252-.324.003-.03-.019-.06-.026-.088-.036-.141-.069-.281-.103-.421m-.05.586c-.169.029-.193.066-.146.215.124.392.253.784.37 1.178.03.102.11.12.18.169.235.169.503.196.774.186.37-.014.692-.147.91-.468a.503.503 0 0 0 .07-.18 1.73 1.73 0 0 0-.069-1c-.134-.35-.204-.72-.385-1.052a3.422 3.422 0 0 0-.607-.82c-.255-.25-.69-.255-1.055-.055a.774.774 0 0 0-.358.922c.092.27.188.539.282.808l.034.097" transform="matrix(1.33333 0 0 -1.33333 -112.236 85.282)"/><path fill="#231f20" fill-rule="evenodd" d="M98.1 37.115c-.179-.268-.407-.247-.668-.094.045-.166.149-.215.273-.223.148-.012.331.135.395.317m-.377-.078c.092 0 .244.14.248.23.004.107-.091.167-.269.168-.099.001-.234-.11-.235-.194 0-.105.119-.2.256-.204m-1.284.161c.102.093.182.184.279.25.212.147.422.304.653.416.208.1.594.025.767-.233.117-.176.215-.348.139-.567-.115-.329-.542-.488-.826-.295-.078.053-.132.155-.172.244-.039.09-.08.104-.159.064-.151-.075-.282-.174-.339-.338a.23.23 0 0 1 .011-.146c.058-.156.143-.304.185-.464.061-.23-.022-.44-.155-.625-.061-.083-.057-.147-.021-.24.109-.274.202-.553.298-.833.008-.023-.004-.053-.007-.08-.037.003-.088-.006-.109.015-.157.151-.318.302-.46.467-.146.17-.315.193-.528.185-.317-.01-.635.027-.952.05-.043.003-.084.048-.146.086.191.124.379.134.565.15.137.012.278.001.409.032.082.02.148.097.226.151-.031.044-.044.075-.068.093-.176.137-.159.307-.098.491.012.037.027.085.013.116-.083.186.045.305.138.425.09.116.197.213.193.38-.002.047.054.097.086.15-.249.042-.327.236-.386.443-.038.131-.072.263-.118.434-.104-.107-.187-.188-.264-.274-.074-.082-.136-.177-.216-.253-.036-.035-.12-.068-.151-.05-.066.04-.145.105-.087.205.07.123.148.241.22.363.136.231.286.45.512.604.142.098.296.063.376-.084.158-.293.246-.883.192-1.332M103.161 37.896l.785-.588c.131-.098.25-.208.291-.369a.635.635 0 0 0 .004-.28c-.082-.395-.431-.506-.729-.665-.035-.019-.094.012-.164.023-.094-.106-.204-.057-.315.026-.188.141-.38.277-.569.416-.071.053-.115.064-.185-.02-.181-.218-.378-.424-.573-.63-.126-.133-.192-.149-.35-.048-.253.161-.495.34-.741.513-.089.061-.101.135-.041.227.231.358.46.717.687 1.077.063.097.138.094.205.02.246-.277.596-.406.876-.634.057-.047.106-.034.154.031.199.262.405.52.604.78.033.042.049.097.061.121M109.904 52.018c-.236.029-.393.16-.563.258-.112.063-.217.139-.334.188-.045.019-.13-.001-.17-.035-.162-.137-.307-.293-.468-.43-.114-.097-.249-.102-.383-.024-.168.099-.337.196-.508.29-.122.066-.13.159-.063.265.11.176.224.351.343.523.118.171.244.337.366.505.055.076.098.084.194.027a9.39 9.39 0 0 1 .824-.421c.036-.017.126.029.161.071.146.173.281.354.417.534.06.077.1.09.193.021.18-.133.386-.233.576-.354.153-.097.303-.201.45-.308.131-.096.141-.198.02-.305a31.238 31.238 0 0 0-.86-.729c-.057-.046-.144-.057-.195-.076M90.1 41.342c-.273-.096-.437.106-.63.234-.024.017-.04.046-.063.067-.173.158-.214.383-.074.57.206.277.429.543.65.809.087.105.185.202.286.295.229.21.383.205.635-.024.33-.301.423-1.022.146-1.447a7.293 7.293 0 0 0-.387-.524c-.2-.251-.411-.496-.611-.748-.278-.35-.63-.298-1.003-.202-.064.017-.127.037-.192.043-.212.022-.424.032-.635.06-.05.008-.092.068-.138.103.049.052.09.115.148.152.036.022.096.008.145.005a3.784 3.784 0 0 1 1.507.207c.219.074.256.157.217.4M105.334 55.332c-.095-.149-.175-.297-.276-.43-.188-.246-.391-.48-.58-.727-.054-.07-.075-.166-.121-.244-.321-.545-.651-1.084-.965-1.633-.204-.355-.525-.606-.77-.92-.18-.23-.423-.287-.67-.34-.392-.085-.79-.145-1.187-.21-.04-.007-.114.015-.12.04a.17.17 0 0 0 .03.138.333.333 0 0 0 .152.102 5.317 5.317 0 0 1 1.756.91 5.374 5.374 0 0 1 1.404 1.636c.09.163.196.317.306.467.054.073.05.121-.008.183-.165.173-.324.352-.493.522-.077.078-.1.147-.034.243.245.364.485.73.735 1.091.017.025.116.032.138.01.204-.21.4-.426.595-.645.045-.05.068-.119.108-.193" transform="matrix(1.33333 0 0 -1.33333 -112.236 85.282)"/><path fill="#231f20" fill-rule="evenodd" d="M113.977 54.83c.004-.052.023-.11.01-.157-.107-.338-.258-.65-.523-.895-.154-.142-.299-.297-.466-.426a.99.99 0 0 0-.482-.19.155.155 0 0 0-.076.014c-.137.058-.254.007-.349-.083a3.034 3.034 0 0 1-.289-.33c-.288-.373-.568-.752-.857-1.125-.265-.343-.625-.495-1.05-.487-.434.008-.867.03-1.3.053-.043.002-.118.053-.116.077.004.064.025.159.07.18.123.062.261.097.395.134.25.069.508.116.752.2.336.118.674.24.99.4.217.11.43.26.592.439.326.356.612.748.924 1.117.161.193.322.4.6.433.117.014.238.007.358.016.096.005.192.023.29.031.19.018.226.19.31.312.062.094.113.195.17.293l.047-.006M99.539 55.13c.02-.158.073-.228.22-.263.072-.018.145-.038.218-.047.218-.024.427.108.435.34.004.098-.048.198-.056.3-.012.138-.065.18-.205.146-.085-.02-.176-.05-.258-.036-.116.02-.185-.033-.228-.113-.056-.102-.085-.218-.126-.328m.5 1.167c.095-.047.216-.073.279-.148.104-.123.22-.117.348-.099a.534.534 0 0 0 .519-.238c.095-.165.083-.325-.08-.495-.096-.1-.087-.174-.031-.283a.54.54 0 0 0-.121-.662c-.123-.115-.207-.128-.34-.025-.097.077-.137.053-.22-.034-.257-.269-.537-.356-.857-.117-.071.054-.118.167-.132.26-.013.087-.031.153-.11.193-.19.096-.273.282-.375.452-.18.3.11.791.487.778.145-.006.209.06.268.17a.454.454 0 0 0 .365.248M101.527 44.117c-.023.1-.038.2-.072.294-.042.115-.208.237-.299.2a1.85 1.85 0 0 1-.363-.224c-.089-.065-.044-.164-.027-.246.041-.199.078-.399.31-.484.152-.055.315-.004.371.148.036.098.053.204.08.312m-1.064.194a.35.35 0 0 0-.104.352c.041.15.098.301.171.438.08.15.223.157.33.016.064-.086.117-.085.195-.035.156.1.301.21.494.241.198.031.303.023.393-.148a1.95 1.95 0 0 0 .156-.485c.013-.058-.02-.139-.056-.194-.05-.076-.058-.142.018-.188a.352.352 0 0 0 .152-.192c.021-.056.07-.102.108-.15.125-.164.094-.296-.1-.373a1.851 1.851 0 0 0-.405-.118c-.122-.018-.147-.09-.169-.187-.03-.128-.057-.259-.1-.382-.052-.145-.156-.177-.263-.07a1.699 1.699 0 0 0-.273.346c-.053.091-.119.12-.212.126-.188.018-.364.05-.535.161-.157.1-.16.234-.12.355.044.141.15.262.232.39.021.033.053.06.088.097M116.789 47.084l-.802.695c-.012.012-.023.027-.037.038-.267.222-.268.223-.126.537.07.158.148.313.238.504-.215.207-.44.414-.653.632-.04.041-.07.134-.051.18.115.274.244.542.369.811.015.031.04.057.042.061.246-.197.473-.378.697-.562.235-.194.254-.264.156-.55-.046-.134-.09-.269-.141-.4-.044-.112-.023-.188.08-.255.112-.072.214-.157.318-.239.295-.234.326-.355.196-.712-.07-.19-.13-.385-.2-.575-.022-.06-.06-.115-.086-.165M86.055 42.312l-.025-.007.13-.373.04.014-.145.366m-.252 3.42c0-.21-.008-.41.002-.608.011-.212.037-.423.06-.635.012-.14.026-.28.045-.42.033-.24.06-.484.105-.722.066-.35.13-.704.226-1.047.105-.372.242-.735.375-1.098.146-.397.291-.794.458-1.182.112-.258.256-.503.397-.747.104-.182.228-.353.34-.53.017-.03.025-.08.012-.11-.05-.106-.28-.134-.365-.047-.25.263-.47.547-.632.878-.249.508-.504 1.01-.634 1.566-.1.432-.235.858-.32 1.295-.08.42-.122.848-.175 1.274a7.917 7.917 0 0 0-.053.595c-.015.333-.02.666-.03.998-.005.12-.024.24-.02.36.004.098.031.197.21.18M104.329 51.159c.021.08.021.137.047.177.375.598.512 1.276.672 1.948.107.453.242.899.367 1.349.05.177.109.353.154.532.064.252.221.45.363.656.132.192.268.382.41.568.028.038.089.05.134.076.012-.053.044-.112.033-.16-.129-.49-.26-.98-.399-1.467-.18-.634-.297-1.291-.589-1.887-.252-.515-.543-1.011-.826-1.51-.051-.09-.141-.16-.22-.231-.028-.025-.075-.027-.146-.051M114.548 36.335c-.041-.096-.065-.166-.101-.23-.127-.234-.256-.465-.385-.697-.043-.077-.086-.094-.168-.034-.162.116-.335.216-.502.324-.064.042-.104.05-.144-.035-.064-.14-.146-.272-.216-.411-.046-.09-.103-.13-.201-.08-.223.116-.45.225-.67.348-.118.067-.143.196-.08.322.124.24.253.478.377.718.05.095.11.106.206.055.179-.096.365-.178.545-.272.075-.04.114-.015.152.047l.272.425c.052.082.093.119.196.04.169-.126.363-.221.539-.34.069-.045.119-.118.18-.18M87.058 48.64l-.027.031-.136-.169c-.06-.062-.147-.116-.167-.19a.503.503 0 0 1 .102-.473.242.242 0 0 1 .183-.064c.25.031.448.326.404.581-.03.176-.06.2-.236.223-.043.006-.082.04-.123.06m.76-.375a.565.565 0 0 0 .063-.708.283.283 0 0 0-.286-.128c-.08.012-.128-.009-.148-.089-.042-.16-.156-.223-.313-.233-.169-.01-.25.105-.337.22a.202.202 0 0 1-.105.073c-.307.06-.463.303-.388.605a.155.155 0 0 1-.03.12c-.24.293 0 .695.23.825.008.004.017.014.023.013.184-.055.248.11.36.191.231.167.424.122.6-.117a.287.287 0 0 1 .158-.108c.284-.055.338-.262.261-.497-.019-.058-.057-.108-.089-.167" transform="matrix(1.33333 0 0 -1.33333 -112.236 85.282)"/><path fill="#231f20" fill-rule="evenodd" d="M87.44 43.672c-.202-.037-.348-.173-.435-.377-.088-.207.046-.408.256-.391.196.018.453.23.49.415.024.109.006.2-.121.244-.063.02-.117.066-.19.109m-.582.134c.02.113.016.227.059.319a.293.293 0 0 0 .452.114c.145-.105.299-.132.464-.16.234-.04.35-.227.34-.47-.004-.09.065-.185.106-.276a.468.468 0 0 0-.24-.62c-.053-.023-.09-.098-.118-.157-.054-.114-.11-.218-.238-.268-.122-.048-.227-.03-.315.062-.062.063-.12.08-.215.079-.323-.003-.541.119-.595.47a.295.295 0 0 0 .04.174c.034.063.035.105-.006.167-.201.306-.097.525.266.566M89.878 46.826c.002.048-.01.104.01.144.218.458.281.957.381 1.445.077.378.111.765.191 1.142.035.168.12.332.207.482.18.311.374.613.565.917.037.06.086.11.13.165h.05c.011-.065.042-.133.03-.192-.05-.247-.12-.489-.172-.734-.092-.425-.176-.85-.266-1.275-.036-.174-.065-.349-.12-.516a2.8 2.8 0 0 0-.212-.47 17.674 17.674 0 0 0-.519-.882c-.059-.094-.154-.164-.233-.245l-.042.02M94.002 48.123c.206 0 .332.11.335.293.004.182-.193.343-.423.348-.094.001-.198-.152-.2-.295-.004-.227.095-.346.288-.346m-.463-.278c-.268.059-.338.28-.368.474-.008.052.022.148.06.164.106.046.068.12.064.19-.002.043-.02.085-.027.128-.045.313.196.537.501.461.093-.024.17-.024.247.042.091.077.198.04.282-.013a.566.566 0 0 0 .258-.34.22.22 0 0 1 .087-.116.43.43 0 0 0 .145-.572c-.02-.037-.032-.1-.014-.137.101-.2.014-.363-.105-.512-.085-.109-.27-.12-.384-.027-.077.064-.136.061-.213.012-.134-.087-.282-.068-.419-.019-.109.04-.139.142-.114.264M92.906 39.812c.384-.046.76-.05 1.09-.22a3.5 3.5 0 0 0 .672-.469c.091-.079.135-.224.174-.348.016-.05-.023-.15-.067-.177-.042-.025-.137 0-.185.034a2.194 2.194 0 0 0-.287.258 1.612 1.612 0 0 1-.768.452c-.232.06-.479.064-.72.08a2.26 2.26 0 0 1-.435-.016c-.369-.05-.623-.28-.827-.569-.18-.255-.363-.514-.503-.793-.143-.28-.242-.586-.345-.884-.04-.119-.163-.223-.09-.369-.067-.023-.134-.06-.202-.063-.063-.002-.105.045-.076.12.177.446.34.9.534 1.34.167.375.395.717.647 1.047.216.283.497.433.828.506.19.042.385.05.56.071M92.025 43.655c-.158.04-.236-.09-.28-.2a.645.645 0 0 1-.009-.342.117.117 0 0 1 .18-.074c.111.064.226.13.32.216a.218.218 0 0 1 .05.267c-.05.104-.137.147-.26.133m.653-.637c.06-.146.13-.28.033-.435a.292.292 0 0 0-.304-.14c-.108.014-.232.017-.302.135-.01.017-.073.02-.1.007-.309-.15-.694.062-.715.406-.004.077.033.157.056.257-.24.371-.26.471-.043.695.223.23.461.116.688-.03.05.051.098.096.141.147.093.11.205.16.342.097.125-.058.176-.176.176-.302a.301.301 0 0 1 .12-.25c.232-.189.195-.444-.092-.587M108.934 36.567c-.017-.12-.02-.245-.055-.359a.468.468 0 0 1 .053-.39c.058-.102.181-.192.1-.333a.718.718 0 0 0-.14-.17 7.213 7.213 0 0 0-.42-.364c-.038-.03-.116-.05-.152-.032-.036.02-.07.105-.056.143.057.148-.007.19-.139.203a3.194 3.194 0 0 0-.349.064c-.273.062-.257.215-.09.368.106.097.095.164.04.272a3.066 3.066 0 0 0-.188.451c-.02.066-.016.171.024.215.036.04.14.03.211.018a.31.31 0 0 0 .15-.078c.233-.214.327-.123.602.028.068.038.12.112.19.14.153.058.21.006.22-.176M95.65 52.03c.13 0 .22.081.216.196-.003.114-.153.256-.266.252-.102-.003-.195-.116-.195-.234 0-.14.086-.216.245-.215m-.335-.322c-.257-.072-.308-.056-.415.096-.068.097-.119.2-.048.307.057.086.142.154.216.232-.054.09-.118.172-.154.265-.07.18.108.471.304.458.21-.015.401.005.604.06.19.05.49-.296.468-.49a.351.351 0 0 1 .035-.194c.077-.145.128-.287.073-.455-.06-.184-.204-.24-.37-.278-.035-.008-.078-.038-.09-.07-.057-.129-.145-.213-.288-.22-.146-.009-.224.09-.288.201-.016.027-.029.054-.047.088M105.335 37.638c.002-.143.069-.222.21-.247a.441.441 0 0 1 .436.164c.12.14.066.297.016.442-.036.108-.145.058-.224.063-.22.014-.441-.204-.438-.422m.979-.3c-.014-.082-.018-.205-.055-.315-.031-.091-.084-.187-.21-.193-.145-.006-.266.024-.311.16-.176-.028-.342-.063-.51-.08-.19-.015-.361.202-.301.383.046.143.072.268-.045.397-.051.056-.068.153-.08.234a.36.36 0 0 0 .392.394c.099-.013.197-.045.288-.082.068-.028.098-.007.125.048.03.06.058.12.093.174.073.115.19.13.308.107.109-.022.195-.084.218-.206.013-.08.016-.165.046-.24a.288.288 0 0 1 .122-.136c.189-.105.259-.283.149-.464-.042-.07-.134-.108-.23-.181M104.241 48.385c.202-.081.257-.197.158-.393a1.032 1.032 0 0 0-.226-.281c-.05-.048-.069-.081-.065-.153.007-.11-.017-.221-.023-.333-.004-.056.002-.112.005-.168 0-.004.007-.01.006-.011-.1-.218.113-.423.016-.65-.09-.212-.167-.422-.433-.45-.074-.008-.153.029-.229.045l.002.037c.06.033.12.06.174.1.217.157.274.603.103.786-.142.153-.192.329-.266.506-.028.066-.104.118-.169.158a.283.283 0 0 0-.142.294c.023.15.051.307.23.374.045.018.09.07.11.118.044.102.093.188.21.223.103.03.203.08.307.116.116.04.276-.105.256-.231-.003-.03-.015-.058-.024-.087M103.298 61.075c-.204-.002-.303-.073-.353-.254-.042-.149.029-.343.177-.405.073-.03.199-.038.253.005a.489.489 0 0 1 .17.44c-.012.14-.106.215-.247.214m-.65-.463c-.07.05-.13.103-.198.142-.104.06-.127.151-.1.251.023.088.063.177.184.18.027.001.066.037.077.065a.496.496 0 0 0 .552.297.24.24 0 0 1 .1.001c.3.073.505-.077.554-.392.014-.096.059-.189.099-.279.064-.14.14-.27.089-.439-.035-.117-.107-.19-.214-.212-.087-.017-.11-.053-.11-.13 0-.122 0-.256-.138-.302-.14-.046-.271-.002-.368.114-.068.08-.138.136-.257.131a.387.387 0 0 0-.207.076c-.2.13-.217.255-.063.497M89.789 48.685c.139-.086.133-.164.067-.287-.18-.334-.33-.682-.562-.987-.057-.075-.05-.196-.096-.284-.104-.199-.237-.384-.333-.586-.133-.277-.376-.414-.633-.532a19.384 19.384 0 0 0-1.08-.464c-.15-.058-.318-.068-.478-.092-.025-.003-.065.029-.081.056-.011.018 0 .064.017.08.055.051.114.098.178.138.508.312 1.038.594 1.52.942.349.25.618.601.844.973.179.294.35.594.528.89.03.052.07.1.109.153" transform="matrix(1.33333 0 0 -1.33333 -112.236 85.282)"/><path fill="#231f20" fill-rule="evenodd" d="M93.728 38.613c.281 0 .381-.129.296-.325-.116-.27-.254-.532-.387-.794-.236-.464-.48-.923-.713-1.389-.102-.204-.18-.42-.27-.632-.01-.024-.015-.053-.032-.072-.062-.066-.118-.162-.229-.109-.099.046-.144.213-.103.304.256.567.517 1.131.761 1.704.154.36.285.73.418 1.1.058.162.162.23.26.213M106.216 46.36c-.107-.05-.142.005-.146.11-.062-.082-.201-.118-.134-.242.025-.048.123-.082.186-.079.113.006.115.1.094.21m.376 1.11c.22.001.34-.105.356-.292.028-.3.07-.279.418-.34.065-.01.13-.02.192-.043.027-.009.044-.047.064-.072-.027-.023-.052-.057-.084-.068-.17-.057-.341-.108-.511-.16-.144-.046-.236-.149-.313-.27-.186-.29-.463-.416-.796-.427-.194-.006-.46.294-.44.508.02.21.08.408.3.51.198.092.507.061.676-.08l.135-.113c.118.288.063.568.003.846M97.896 48.543c-.066-.027-.117-.042-.162-.068-.114-.067-.222-.144-.338-.208-.502-.28-.942-.643-1.381-1.008-.132-.11-.21-.238-.18-.438.076-.464.128-.932.17-1.4.023-.24.03-.473.175-.683.11-.16.243-.204.398-.084.524.409.995.872 1.416 1.385.04.05.064.139.055.204-.048.364-.117.725-.161 1.09-.03.244-.037.49-.038.738-.001.148.027.297.046.472m-2.204-1.36.792.61.483.372c.014.01.027.024.042.032.247.144.494.288.743.43.03.017.066.027.1.03.152.01.21-.042.182-.188-.128-.683.002-1.351.117-2.02.014-.082.026-.166.042-.248.034-.17-.093-.264-.186-.36a49.365 49.365 0 0 0-1.11-1.084c-.107-.103-.236-.184-.355-.274-.011-.007-.026-.02-.035-.017-.118.042-.27.054-.346.136a1.029 1.029 0 0 0-.272.654c-.04.53-.117 1.057-.176 1.585-.011.104-.013.209-.021.343M108.937 47.712c-.063-.04-.109-.063-.148-.096-.025-.02-.05-.053-.052-.081-.002-.021.033-.057.056-.062.021-.004.061.019.071.04.03.064.05.133.073.199m-.52-.267c.036.093.063.189.11.274.11.2.23.395.345.594.04.067.073.1.154.037.161-.127.334-.24.501-.358.088-.062.18-.12.26-.192.021-.021.023-.095.004-.127a26.6 26.6 0 0 0-.503-.781c-.016-.024-.09-.037-.116-.021-.12.08-.233.172-.348.26-.01.008-.024.017-.028.028-.016.058-.012.148-.049.17-.09.052-.199.073-.33.116M92.73 38.3c-.328.022-.478-.19-.609-.388-.238-.356-.444-.733-.667-1.098a.566.566 0 0 0-.173-.193c-.045-.027-.15-.016-.184.02-.034.035-.038.136-.013.185.087.168.204.32.29.49.145.28.284.566.408.858.115.27.208.552.314.826.01.026.052.057.073.053.037-.008.09-.034.097-.064.018-.062.014-.131.013-.2 0-.108.056-.164.162-.167.116-.004.232-.003.348 0 .088.002.163-.01.168-.12.004-.1-.088-.201-.18-.201l-.048-.001M104.664 30.862c-.205.001-.362.156-.45.398-.071.204.113.435.264.445a.528.528 0 0 0 .426-.178c.069-.075.147-.169.159-.263.038-.282-.091-.402-.4-.402M97.625 31.73c.077-.017.157-.024.23-.05.267-.096.314-.317.12-.54a.444.444 0 0 0-.619-.034c-.125.12-.165.276-.094.425.071.148.195.211.363.2M108.264 32.095c.115-.052.24-.088.34-.16.048-.036.083-.146.067-.206-.068-.267-.587-.461-.787-.223-.105.126-.132.286-.012.399a.695.695 0 0 0 .392.19M102.446 31.03c-.018-.32-.128-.399-.333-.4-.237-.002-.44.185-.428.371a.39.39 0 0 0 .417.37c.237-.016.353-.125.344-.34M104.242 32.481c.016-.187-.148-.395-.312-.416-.177-.022-.245.12-.337.22-.076.078-.049.168.008.253.04.057.071.121.107.181.077.13.185.141.314.087.134-.054.226-.137.22-.294v-.03M106.124 31.53c.023-.3-.346-.544-.574-.456a.291.291 0 0 0-.14.426.523.523 0 0 0 .554.217c.114-.025.165-.092.16-.187M116.162 39.084c.077-.014.145-.02.207-.04a.14.14 0 0 0 .074-.078c.061-.217-.136-.59-.344-.66-.108-.035-.192-.007-.239.099-.03.07-.092.16-.07.213.062.153.155.293.247.43.02.029.088.026.125.036M89.576 36.26c0-.124-.071-.174-.193-.11-.161.083-.316.18-.344.389-.019.14-.132.273-.047.419.027.047.093.105.138.102.052-.004.113-.06.149-.107.047-.065.075-.145.111-.22l.221-.456-.035-.017M100.839 31.371c.217.029.382-.202.34-.429-.008-.044-.063-.082-.1-.118-.14-.134-.516-.081-.573.078-.075.215.104.466.333.469M96.208 41.487c-.156.001-.285.084-.332.214a.309.309 0 0 0 .11.344c.09.07.186.095.288.011.05-.042.122-.063.16-.113.052-.068.125-.165.109-.23-.03-.128-.147-.203-.282-.226-.017-.003-.035 0-.053 0M92.052 36.36c.003-.123-.05-.193-.16-.239-.116-.048-.208-.036-.294.06-.162.184-.16.295.014.475.036.037.062.094.105.113.169.08.243.03.27-.157.013-.085.043-.168.065-.253M103.248 30.673c-.111.002-.266.104-.29.195-.031.128.037.208.134.278.197.14.33.15.489.016a.203.203 0 0 0 .064-.155c-.018-.16-.238-.336-.397-.334M90.84 34.85c-.005.25.175.363.395.268.107-.046.225-.074.243-.212.008-.058.014-.132-.015-.174-.08-.115-.217-.193-.34-.163-.103.025-.183.148-.27.231-.013.013-.011.042-.012.05M116.951 39.977c-.027-.211-.214-.462-.397-.517-.092-.028-.195.035-.183.13.023.204.061.407.253.54.086.06.164.047.232-.003.045-.032.064-.099.095-.15M115.702 37.75c.02-.186-.201-.36-.386-.355-.176.003-.274.18-.161.344.079.115.22.196.349.26.08.04.177.01.18-.118.002-.044.012-.087.018-.131M106.96 31.349c-.09.02-.152.028-.207.05-.175.07-.2.211-.063.342.169.166.529.114.629-.1.018-.037-.01-.13-.046-.15-.102-.064-.218-.103-.312-.143M90.462 35.36c-.147-.004-.422.207-.435.352-.005.053.03.142.074.164.06.03.15.03.22.013.078-.017.146-.07.22-.103.103-.045.176-.107.158-.23-.018-.122-.108-.195-.237-.197M114.976 37.068c.064 0 .112.011.151-.003.035-.013.078-.05.082-.08.027-.188-.129-.427-.315-.465-.064-.014-.166.012-.208.058-.054.057-.15.142-.039.242.008.008.008.024.012.037.053.165.151.258.317.211M109.273 32.169c0 .146.161.326.294.326.11 0 .297-.112.294-.18-.01-.233-.13-.383-.304-.381-.163 0-.283.1-.284.235M111.306 33.225c0-.144-.186-.323-.332-.32-.154.001-.278.136-.28.306-.002.113.166.218.344.22.165 0 .27-.078.269-.205M112.272 34.245c-.005.254.081.39.29.415.074.009.186-.021.23-.075.04-.048.032-.163.003-.231-.066-.159-.215-.236-.373-.268-.092-.02-.148.06-.15.159M99.452 30.805c-.143 0-.278.1-.295.217-.017.113.062.213.228.242a.665.665 0 0 0 .307-.02c.094-.027.128-.112.079-.213-.082-.173-.157-.228-.319-.226M96.71 31.398c-.023.005-.086.008-.144.03-.092.033-.152.112-.123.205.042.131.143.22.283.247.12.025.21-.02.276-.126.076-.12-.024-.335-.173-.355-.026-.004-.053 0-.118 0M98.837 31.155c0-.124-.084-.22-.244-.278-.108-.039-.182-.014-.256.09-.123.167-.122.254.07.34a.643.643 0 0 0 .288.036c.106-.005.146-.086.142-.188M91.497 34.018c.001.114.117.238.225.24.126.003.35-.146.346-.23-.004-.129-.194-.303-.327-.3-.11 0-.245.162-.244.29M110.16 32.387c-.031.022-.114.055-.146.115-.026.05-.007.139.02.197a.32.32 0 0 0 .319.196c.149-.006.242-.15.173-.281a.378.378 0 0 0-.366-.227M92.583 33.618a.227.227 0 0 0 .23-.218c.004-.09-.195-.254-.318-.262-.074-.005-.213.156-.216.25-.005.126.126.225.304.23M111.923 33.917c.014-.008.083-.022.103-.062a.225.225 0 0 0 0-.17.386.386 0 0 0-.297-.236c-.127-.02-.185.026-.181.154.006.17.146.303.375.314M117.374 41.088c-.03-.07-.043-.128-.076-.172-.07-.091-.148-.174-.225-.26-.071-.078-.125-.041-.16.036-.016.038-.026.092-.011.125.059.126.12.252.2.365.026.034.12.042.17.027.043-.012.069-.078.102-.121M113.135 34.717c-.062.007-.145.014-.144.127 0 .119.13.224.28.223.078-.001.159-.01.17-.108.012-.101-.16-.242-.306-.242M108.168 48.403l-.154-.083-.215.133.01.02c.119-.025.237-.049.356-.07z" transform="matrix(1.33333 0 0 -1.33333 -112.236 85.282)"/><path fill="#231f20" fill-rule="evenodd" d="M96.512 45.398c-.016.05-.033.073-.028.089.077.254-.048.488-.067.732-.017.216-.045.43-.062.647-.002.028.028.066.052.089.215.199.43.399.65.592.039.034.102.039.155.057.006-.048.01-.097.019-.144.039-.216.079-.433.12-.648.02-.096.066-.19.063-.284-.003-.1-.021-.221-.081-.292-.21-.247-.438-.478-.662-.712-.041-.043-.094-.075-.16-.126" transform="matrix(1.33333 0 0 -1.33333 -112.236 85.282)"/><path fill="#231f20" fill-rule="nonzero" d="M119.165 45.874c-.124.015-.49-1.38-.374-.708-.087.631-.254 3.24-.551 4.407-.304 1.143-.766 2.51-1.571 3.942-.183.375-.447.726-.674 1.118-.212.387-.486.748-.766 1.12a9.22 9.22 0 0 1-.89 1.107c-.323.363-.645.745-1.032 1.077-.366.337-.761.727-1.21 1.054-.43.343-.852.7-1.322.987-.458.314-.912.613-1.411.842a8.464 8.464 0 0 1-1.546.657l-.834.281-.885.201c-.593.162-1.22.232-1.855.327-1.195.172-2.463.13-3.774.027a30.482 30.482 0 0 1-1.941-.286c-.64-.165-1.3-.266-1.926-.505l-.948-.317-.943-.406c-.663-.24-1.253-.605-1.874-.889-.567-.37-1.175-.675-1.67-1.115l-.795-.657-.73-.734a6.496 6.496 0 0 1-.69-.78c-.214-.276-.445-.539-.647-.824-.38-.606-.766-1.129-1.008-1.765a519.33 519.33 0 0 1-.365-.848l-.282-.907c-.225-.599-.303-1.253-.486-1.873a25.703 25.703 0 0 1-.276-1.847c-.011-.623-.087-1.243-.045-1.862.048-.6.046-1.294.154-1.91.07-.616.144-1.229.302-1.826l.2-.858c.099-.27.196-.54.299-.827.193-.577.448-1.126.717-1.663a17.994 17.994 0 0 1 4.175-5.517c1.65-1.5 3.516-2.595 5.389-3.265.94-.32 1.872-.576 2.792-.692.454-.1.908-.12 1.353-.139.444-.025.878-.063 1.314-.022l1.27.06c.413.041.805.11 1.167.16.74.08 1.423.328 2.094.495.656.22 1.279.457 1.858.688.499.248.975.451 1.382.694l1.073.682.75.581c.21.173.443.312.636.511.21.19.417.374.62.555.428.333.74.737 1.09 1.067.359.326.6.714.878 1.042.28.327.473.673.704 1.07.233.376.444.748.607 1.131.167.38.373.728.497 1.095.279.731.519 1.377.7 2.047.225.64.352 1.211.482 1.703.145.491.233.91.299 1.255.149.685.55 3.977.647 3.968.094-.008.117-2.053.128-2.822.02-.384-.058-1.46-.128-1.995-.033-.267-.276-1.224-.313-1.523-.062-.295-.127-.606-.196-.927-.104-.628-.332-1.389-.571-2.17-.295-.77-.598-1.616-1.078-2.44-.11-.199-.23-.42-.356-.652-.143-.22-.307-.442-.466-.662l-.48-.644c-.175-.202-.361-.393-.54-.586a10.79 10.79 0 0 0-1.11-1.085l-.556-.506c-.19-.189-.42-.333-.63-.503l-.775-.603-1.171-.734c-.447-.282-1.003-.505-1.601-.795-.545-.224-1.164-.426-1.845-.679-.703-.157-1.458-.445-2.324-.536l-1.296-.17-1.33-.047a8.81 8.81 0 0 0-1.401.031c-.477.038-.97.04-1.456.154-.487.1-.997.145-1.491.294-.493.15-1.003.28-1.504.457a17.198 17.198 0 0 0-5.72 3.483 18.96 18.96 0 0 0-4.378 5.807c-.254.576-.561 1.136-.75 1.747-.215.577-.458 1.271-.57 1.918l-.2.966-.105.95c-.095.623-.106 1.24-.136 1.862-.062 1.304.08 2.62.319 3.914l.465 1.848c.227.614.37 1.268.672 1.857.158.341.317.69.493 1.037l.314.496.304.461c.19.317.43.596.663.881.239.278.45.582.712.838.517.518 1.019 1.05 1.6 1.488.576.518 1.232.888 1.84 1.274.639.332 1.254.666 1.875.928.602.248 1.258.57 1.922.766 1.307.481 2.664.728 3.998.916.656.07 1.317.11 1.984.157.669-.022 1.349.01 2.024-.074 1.282-.158 2.502-.344 3.739-.744l.923-.307c.304-.116.595-.268.888-.404a10.508 10.508 0 0 0 1.624-.924c.514-.304.954-.672 1.385-1.005.445-.32.815-.658 1.23-1.04.418-.357.78-.75 1.126-1.143l.519-.575.454-.605c.294-.398.593-.776.82-1.187.228-.385.479-.75.685-1.132.393-.773.783-1.516 1.025-2.27.13-.369.279-.736.345-1.083l.223-.94c.24-1.21.349-2.22.29-2.906-.033-.687-.117-1.037-.24-1.02" transform="matrix(1.33333 0 0 -1.33333 -112.236 85.282)"/></svg>
